<svg width="1075" height="782" viewBox="0 0 1075 782" fill="none" xmlns="http://www.w3.org/2000/svg">
<g opacity="0.15">
<path d="M497.502 679.682C491.08 679.682 484.659 678.535 478.926 676.242C460.809 669.132 446.59 652.277 440.857 631.063C438.678 622.922 437.646 614.437 436.729 606.066C434.78 589.784 433.06 574.533 422.74 564.328C417.58 559.168 410.585 555.843 403.132 552.403C396.023 549.077 388.569 545.637 382.263 540.134C367.929 527.635 364.145 510.55 360.591 494.038C358.642 485.438 356.922 477.297 353.711 469.843C350.73 462.849 345.914 457.345 340.868 451.497C332.383 441.636 322.751 430.513 323.554 412.052C324.471 391.183 338.804 371.575 358.527 364.466C368.159 361.026 378.364 360.452 388.111 359.994C399.004 359.42 409.324 358.962 418.038 354.49C429.964 348.527 437.761 336.029 445.214 323.874C446.246 322.269 447.278 320.549 448.31 318.943C456.91 305.413 468.033 297.96 478.811 290.736C487.067 285.232 494.75 280.072 501.515 272.389C511.72 260.579 523.187 241.544 519.517 217.579C519.288 216.432 519.173 215.286 518.944 214.024C517.797 207.259 516.421 199.691 519.403 192.238C525.136 177.79 533.965 174.809 540.387 174.809C559.306 174.809 577.997 201.067 583.272 209.094C589.578 218.726 594.05 228.128 595.082 234.091C599.554 258.859 593.821 283.856 587.744 304.954C585.794 311.949 584.074 319.861 582.24 328.231C576.162 356.554 569.282 388.545 546.349 404.943C537.864 410.905 528.232 413.887 518.944 416.753C511.147 419.161 503.694 421.455 497.272 425.353C480.76 435.329 472.046 456.772 477.091 475.462C477.55 476.953 478.008 478.443 478.467 480.049C479.958 484.75 481.678 490.025 481.334 495.758C480.76 504.816 475.256 511.811 470.441 518.003C467.574 521.672 464.937 524.998 463.217 528.667C457.483 540.822 463.561 555.728 472.505 564.099C481.219 572.355 494.062 577.629 511.491 580.381C514.472 580.84 517.568 581.184 520.664 581.643C528.92 582.674 537.52 583.706 545.776 586.458C559.88 591.045 570.2 600.104 574.328 611.226C576.965 618.565 576.392 627.165 572.837 634.274C569.741 640.351 564.696 644.709 558.618 646.429C556.325 647.117 554.147 647.346 552.197 647.575C550.019 647.805 548.069 648.034 546.579 648.722C543.597 649.983 541.419 653.423 539.125 657.093C538.208 658.583 537.291 660.074 536.144 661.45C527.659 672.802 513.326 679.682 497.502 679.682Z" stroke="#42D198" stroke-miterlimit="10"/>
<path d="M578.456 212.304C563.205 189.142 536.488 164.489 524.677 194.531C521.925 201.526 523.989 209.323 525.136 216.776C528.576 239.136 520.32 259.547 505.758 276.173C489.36 294.978 467.23 299.68 453.126 322.039C444.067 336.258 435.582 352.082 420.561 359.65C402.214 368.823 379.625 362.975 360.361 369.97C342.818 376.276 329.975 393.82 329.172 412.396C328.026 438.425 350.042 447.254 358.871 467.665C368.617 490.139 366.095 518.576 385.932 535.891C397.857 546.325 415.401 549.077 426.638 560.315C443.953 577.515 439.825 605.952 446.246 629.573C451.062 647.575 463.561 664.087 480.875 670.852C498.19 677.618 520.205 673.031 531.213 657.895C535.112 652.621 537.979 645.855 543.941 643.218C547.955 641.498 552.541 641.842 556.784 640.695C567.677 637.599 572.608 623.61 568.709 612.946C564.81 602.282 554.49 595.173 543.827 591.733C533.048 588.178 521.696 587.605 510.459 585.885C495.208 583.592 479.728 578.776 468.491 568.112C457.254 557.563 451.406 540.019 457.942 526.03C462.987 515.136 474.683 507.11 475.486 495.185C475.944 488.878 473.078 482.915 471.473 476.723C465.739 455.74 475.601 431.43 494.176 420.193C509.312 411.135 528.576 410.217 542.909 400.012C570.658 380.29 573.41 333.391 582.125 303.234C588.546 280.989 593.362 257.712 589.349 234.893C588.546 229.963 584.418 221.248 578.456 212.304Z" stroke="#42D198" stroke-miterlimit="10"/>
<path d="M497.502 662.482C493.259 662.482 488.902 661.679 485.118 660.188C472.275 655.143 461.611 642.301 457.369 626.591C455.534 619.711 454.617 612.144 453.699 604.117C451.635 586.573 449.342 566.621 434.78 552.173C427.441 544.835 418.382 540.707 410.356 536.923C404.049 533.942 397.972 531.19 393.5 527.291C383.409 518.576 380.657 505.504 377.332 490.483C375.383 481.425 373.319 472.137 369.42 463.193C365.407 453.79 359.215 446.681 353.826 440.374C345.111 430.284 340.18 423.977 340.639 412.855C341.212 398.98 351.188 385.45 364.26 380.748C371.484 378.111 379.969 377.652 388.913 377.194C401.068 376.62 413.681 375.932 425.721 369.855C441.889 361.714 451.406 346.463 459.777 332.933C460.809 331.327 461.726 329.722 462.758 328.117C469.409 317.682 478.123 311.834 488.328 305.069C497.158 299.221 506.216 293.144 514.472 283.741C532.589 262.872 540.272 239.136 536.488 215.056C536.259 213.795 536.029 212.534 535.8 211.272C534.883 206.342 534.08 201.64 535.227 198.774C535.8 197.168 537.979 192.123 540.272 192.123C545.776 192.123 557.93 201.984 568.824 218.611C574.786 227.784 577.653 234.779 578.112 237.187C581.896 258.4 576.736 280.989 571.232 300.253C569.053 307.821 567.333 315.962 565.498 324.677C560.109 349.903 553.917 378.455 536.488 390.953C530.296 395.311 522.384 397.833 513.899 400.356C505.414 402.993 496.699 405.631 488.443 410.561C474.11 419.161 463.905 433.953 460.121 450.236C458.286 458.377 457.713 467.55 459.547 475.806C461.841 485.553 462.873 496.561 458.859 506.422C454.158 518.003 444.297 523.966 443.838 537.611C443.379 552.288 450.03 566.621 460.694 576.597C472.046 587.376 487.87 594.141 508.854 597.352C512.064 597.81 515.389 598.269 518.485 598.613C526.283 599.53 533.621 600.448 540.387 602.741C549.216 605.608 555.866 610.997 558.045 617.074C559.077 619.941 558.848 623.495 557.357 626.362C556.784 627.394 555.637 629.229 553.688 629.802C552.77 630.031 551.509 630.261 550.019 630.375C547.037 630.719 543.253 631.178 539.355 632.898C531.672 636.338 527.659 642.645 524.333 647.69C523.531 648.951 522.728 650.212 521.925 651.244C516.995 658.239 507.822 662.482 497.502 662.482Z" stroke="#42D198" stroke-width="2" stroke-miterlimit="10"/>
<path d="M492.342 396.687C486.379 396.687 480.99 395.196 475.486 393.591L462.299 389.692C459.891 389.004 454.387 387.399 451.062 381.895C447.393 375.818 448.31 368.135 453.47 361.255C458.974 354.146 465.625 349.33 472.161 344.629C477.55 340.73 482.595 337.175 486.035 332.703C488.558 329.493 490.622 325.479 492.686 321.122C494.864 316.765 497.043 312.293 500.139 307.936C506.216 299.221 516.651 294.061 527.888 294.061C531.672 294.061 535.341 294.634 538.667 295.781C546.579 298.418 552.312 304.037 554.491 311.031C556.096 316.191 556.44 324.562 549.101 334.309C546.464 337.749 543.827 340.959 541.304 343.941C535.915 350.362 531.213 355.866 528.003 363.09C527.429 364.236 526.971 365.383 526.397 366.644C521.811 377.194 516.077 390.38 501.974 395.081C499.107 396.113 495.782 396.687 492.342 396.687Z" stroke="#42D198" stroke-miterlimit="10"/>
<path d="M535.112 306.789C527.085 304.037 515.619 306.101 509.542 314.701C503.923 322.727 501.056 332.359 494.979 340.042C486.035 351.394 471.358 357.012 462.529 368.479C460.809 370.658 459.318 373.754 460.809 376.047C461.726 377.652 463.79 378.34 465.51 378.799C469.867 380.06 474.339 381.322 478.696 382.698C485.118 384.647 492.112 386.481 498.534 384.303C508.968 380.748 513.096 368.594 517.683 358.503C523.301 346.004 532.131 338.093 540.043 327.543C547.955 317.109 543.253 309.541 535.112 306.789Z" stroke="#42D198" stroke-miterlimit="10"/>
<path d="M492.342 379.487C485.118 380.06 476.862 376.506 469.982 375.015C468.721 374.786 467.23 374.327 466.771 373.066C466.198 371.575 467.689 370.084 468.95 369.052C479.155 361.026 491.424 353.802 499.566 343.597C503.235 339.01 505.758 333.965 508.166 329.034C510.115 325.135 511.95 321.351 514.358 318.026C518.485 312.178 536.488 306.33 537.979 317.453C538.552 321.81 534.997 325.594 531.901 328.805C523.072 337.978 515.848 348.642 510.574 360.223C508.28 365.268 506.331 370.658 502.547 374.671C499.566 377.882 496.011 379.143 492.342 379.487Z" stroke="#42D198" stroke-miterlimit="10"/>
<path d="M445.329 445.305C436.843 427.188 366.095 370.772 363.457 416.524C362.769 428.564 372.631 438.425 375.497 450.121C377.447 457.689 376.3 465.716 377.332 473.513C378.937 486.241 387.767 503.326 395.679 513.416C399.348 518.118 405.081 521.443 410.929 520.526C425.721 518.232 422.281 501.95 426.868 492.203C432.142 481.195 445.673 475.003 448.425 462.62C449.686 456.772 447.851 450.694 445.329 445.305Z" stroke="#42D198" stroke-miterlimit="10"/>
<path d="M408.98 514.907C405.998 514.907 402.558 512.958 400.15 509.862C392.927 500.574 384.441 484.406 382.951 472.825C382.607 469.958 382.492 466.977 382.492 463.881C382.377 458.95 382.263 453.905 381.001 448.745C379.625 443.47 377.217 438.654 374.809 434.068C371.713 428.105 368.732 422.487 369.076 416.868C369.764 404.713 375.612 404.713 378.479 404.713C397.513 404.713 434.436 435.558 440.169 447.713C442.806 453.332 443.609 457.689 442.806 461.358C441.659 466.747 437.302 470.99 432.83 475.577C428.702 479.705 424.46 484.062 421.708 489.681C419.988 493.35 419.185 497.478 418.497 501.376C416.892 510.32 415.745 513.875 410.012 514.792C409.668 514.907 409.324 514.907 408.98 514.907Z" stroke="#42D198" stroke-miterlimit="10"/>
<path d="M407.26 500.001C402.214 500.918 397.169 491.401 396.137 487.731C394.303 481.425 395.105 474.774 395.105 468.238C395.105 453.79 391.207 439.342 384.097 426.729C383.065 424.894 381.919 423.06 381.575 420.996C381.231 418.932 381.919 416.524 383.753 415.492C386.505 413.887 389.716 415.951 392.124 418.015C401.182 425.353 410.126 432.806 419.185 440.145C424.001 444.158 429.276 448.745 429.964 454.937C430.652 460.67 427.326 466.174 423.313 470.417C419.3 474.659 414.598 478.214 411.388 483.03C409.668 485.667 408.406 488.993 408.406 492.203C408.406 495.07 411.273 499.198 407.489 500.001C407.374 500.001 407.26 500.001 407.26 500.001Z" stroke="#42D198" stroke-miterlimit="10"/>
<path d="M406.457 470.761C406.113 470.761 405.884 470.531 405.769 470.302C405.654 469.958 405.884 469.499 405.998 469.041C407.145 466.633 405.884 463.078 405.425 460.555C404.852 457.804 404.049 455.052 403.361 452.3C402.788 450.006 402.1 447.713 401.87 445.305C401.756 444.273 401.412 442.324 402.444 441.521C402.558 441.521 402.558 441.406 402.673 441.406C405.081 440.374 407.948 443.814 409.209 445.42C410.012 446.452 410.7 447.598 411.502 448.516C412.764 450.006 414.254 451.153 415.63 452.414C416.662 453.332 418.268 454.708 418.497 456.198C418.612 456.886 417.924 459.065 414.942 462.39C413.796 463.537 412.649 464.683 411.273 465.945C409.897 467.206 409.324 468.926 407.948 470.073C407.604 470.302 407.26 470.531 406.916 470.646C406.686 470.761 406.572 470.761 406.457 470.761Z" stroke="#42D198" stroke-miterlimit="10"/>
<path d="M639.114 647.575C626.959 647.575 614.002 639.549 606.319 627.165C600.701 618.221 597.834 608.36 594.967 598.728C593.935 595.173 592.789 591.618 591.642 588.064C586.711 573.501 579.717 563.984 570.888 559.971C566.989 558.136 562.402 557.333 557.013 557.333C551.165 557.333 545.203 558.251 538.896 559.283C535.685 559.741 532.245 560.315 528.92 560.659C526.512 560.888 523.989 561.117 521.581 561.117C502.318 561.117 488.443 553.205 484.315 539.904C480.875 528.896 485.576 517.659 489.475 510.091C490.392 508.256 491.424 506.307 492.456 504.472C497.043 495.873 501.4 487.731 501.63 479.246C501.744 476.838 501.4 474.201 501.171 471.563C500.712 467.435 500.254 463.078 500.942 458.491C503.694 439.916 523.416 429.366 541.763 427.188C543.941 426.958 546.234 426.614 548.298 426.385C557.816 425.124 566.874 424.092 575.13 424.092C598.751 424.092 612.97 434.068 622.373 457.574C624.781 463.422 626.615 469.499 628.45 475.347C630.972 483.145 633.266 490.598 636.591 497.593C645.306 515.939 661.588 532.451 683.719 545.523C685.439 546.555 687.159 547.472 688.879 548.504C699.657 554.696 710.78 561.003 717.66 572.125C722.705 580.381 723.508 592.077 719.609 601.021C716.513 608.016 711.124 612.717 704.244 614.207C702.524 614.551 700.689 614.781 698.625 614.781C697.479 614.781 696.332 614.781 695.185 614.666C694.153 614.666 693.236 614.551 692.204 614.551C691.401 614.551 690.599 614.551 690.025 614.666C682.457 615.469 676.495 622.005 670.188 628.999C663.537 636.338 656.543 644.021 646.452 646.773C644.044 647.231 641.636 647.575 639.114 647.575Z" stroke="#42D198" stroke-miterlimit="10"/>
<path d="M712.844 574.992C705.734 563.411 692.663 557.219 680.852 550.339C660.212 538.184 641.636 521.558 631.431 500C625.354 487.043 622.373 472.939 616.983 459.638C602.191 422.945 577.194 428.678 542.336 432.921C526.512 434.87 508.854 443.585 506.56 459.409C505.528 466.059 507.478 472.71 507.248 479.475C506.904 491.515 499.91 502.179 494.406 512.843C490.392 520.755 486.952 529.814 489.59 538.299C494.062 552.861 512.982 556.875 528.117 555.04C543.253 553.32 559.306 548.504 573.181 554.811C585.45 560.429 592.559 573.387 596.917 586.229C601.274 599.072 603.911 612.602 611.021 624.069C618.245 635.535 631.775 644.479 644.847 640.925C662.85 636.109 670.761 610.768 689.337 608.704C693.924 608.245 698.625 609.277 703.097 608.36C716.513 605.722 719.953 586.573 712.844 574.992Z" stroke="#42D198" stroke-miterlimit="10"/>
<path d="M639.114 630.375C632.922 630.375 625.468 625.33 620.882 618.106C616.525 611.226 614.002 602.741 611.365 593.912C610.218 590.242 609.186 586.458 607.81 582.674C601.274 563.411 591.183 550.568 577.882 544.491C571.69 541.624 564.81 540.248 556.898 540.248C549.789 540.248 542.795 541.395 536.029 542.427C532.819 542.885 529.723 543.459 526.741 543.803C525.021 544.032 523.187 544.147 521.352 544.147C512.981 544.147 502.547 541.739 500.483 535.088C499.336 531.304 500.598 525.915 504.496 518.232C505.414 516.512 506.331 514.678 507.363 512.958C512.523 503.44 518.256 492.662 518.6 480.049C518.715 476.494 518.371 473.054 518.027 470.073C517.683 466.862 517.339 463.766 517.683 461.358C518.715 454.478 527.888 446.452 543.483 444.502C545.776 444.273 547.954 443.929 550.133 443.7C559.536 442.553 567.677 441.521 574.901 441.521C589.234 441.521 598.522 445.076 606.205 464.225C608.383 469.499 610.103 475.003 611.938 480.737C614.461 488.763 617.098 497.019 620.882 505.16C631.087 526.603 649.663 545.752 674.889 560.544C676.609 561.576 678.444 562.608 680.279 563.64C689.567 568.915 698.396 573.96 702.868 581.298C705.046 584.853 705.391 590.472 703.785 594.485C702.639 597.237 701.148 597.581 700.689 597.581C700.231 597.696 699.543 597.696 698.511 597.696C697.593 597.696 696.676 597.696 695.759 597.581C694.612 597.581 693.351 597.466 691.975 597.466C690.484 597.466 689.223 597.581 687.961 597.696C673.857 599.186 665.028 608.933 657.231 617.533C651.956 623.266 647.026 628.77 641.751 630.261C641.063 630.146 640.031 630.375 639.114 630.375Z" stroke="#42D198" stroke-miterlimit="10"/>
<path d="M577.309 465.601C568.824 455.396 555.981 449.777 542.909 458.262C536.603 462.39 536.259 471.334 532.704 477.985C528.805 485.323 520.549 490.139 518.371 498.166C516.192 506.536 521.581 515.136 528.117 520.755C532.475 524.539 535.341 524.424 540.387 522.819C545.432 521.214 549.445 520.755 554.949 521.214C567.104 522.131 578.914 525.8 591.183 525.112C595.655 524.883 600.586 523.622 602.765 519.723C605.173 515.366 602.879 510.091 600.586 505.734C593.362 492.203 587.17 477.526 577.309 465.601Z" stroke="#42D198" stroke-miterlimit="10"/>
<path d="M587.973 519.494C576.965 519.15 566.301 516.512 555.408 515.595C554.032 515.48 552.656 515.48 551.394 515.48C542.909 515.48 534.195 520.984 527.429 512.843C524.448 509.174 523.416 504.128 524.563 499.542C526.397 491.745 534.195 487.731 537.864 480.851C539.355 478.099 540.272 475.233 541.189 472.481C542.565 468.353 543.712 464.798 546.12 463.193C549.445 461.014 552.77 459.982 556.096 459.982C564.008 459.982 570.085 465.83 572.952 469.385C580.176 478.214 585.68 488.993 590.84 499.542C592.674 503.096 594.279 506.422 596.343 509.862C597.834 512.384 598.637 515.939 596.573 518.003C595.082 519.494 592.789 519.723 590.725 519.723C589.807 519.494 588.89 519.494 587.973 519.494Z" stroke="#42D198" stroke-miterlimit="10"/>
<path d="M580.29 506.078C579.602 506.88 578.456 507.339 577.309 507.454C575.818 507.568 574.328 507.11 572.837 506.651C566.301 504.816 559.65 503.899 552.885 504.014C549.445 504.014 545.891 504.243 542.565 504.931C540.387 505.275 536.947 507.11 535.685 504.128C534.424 501.376 538.552 497.937 540.272 496.102C542.795 493.35 545.776 490.254 548.069 486.126C550.019 482.571 550.362 479.017 551.968 475.462C552.656 473.857 553.802 472.481 555.408 471.907C557.586 471.105 559.994 472.022 561.714 473.513C565.269 476.609 568.25 481.769 570.773 485.667C573.869 490.483 576.736 495.414 579.832 500.344C580.749 501.835 581.666 503.44 581.093 505.046C580.864 505.39 580.634 505.734 580.29 506.078Z" stroke="#42D198" stroke-miterlimit="10"/>
<path d="M565.613 496.561C565.384 496.905 565.04 497.249 564.581 497.363C564.122 497.478 563.549 497.478 563.09 497.478C560.568 497.478 558.045 497.134 555.522 496.79C554.949 496.675 554.261 496.675 553.802 496.217C553.229 495.758 553 495.07 553.229 494.382C553.458 493.465 554.72 493.121 555.178 492.203C555.752 491.171 555.981 489.91 556.21 488.649C556.554 487.502 557.93 483.833 559.536 485.782C559.88 486.241 559.994 486.814 560.224 487.273C561.026 489.91 562.632 492.318 564.581 494.153C565.154 494.726 565.842 495.414 565.728 496.217C565.728 496.331 565.728 496.446 565.613 496.561Z" stroke="#42D198" stroke-miterlimit="10"/>
<path d="M654.823 555.843C647.14 553.32 639.572 549.421 632.348 545.637C618.474 538.413 614.575 550.568 613.314 562.264C612.511 570.291 613.429 578.432 616.295 586C618.933 593.224 626.73 599.301 627.303 606.984C627.533 610.653 626.959 615.813 630.628 616.615C633.61 617.303 635.674 613.864 637.738 611.456C641.98 606.64 648.975 605.837 655.052 603.773C665.946 600.104 675.233 590.242 675.692 578.776C676.036 568.227 666.175 559.512 654.823 555.843Z" stroke="#42D198" stroke-miterlimit="10"/>
<path d="M637.164 597.122C637.05 597.122 636.935 597.008 636.82 597.008C633.724 595.632 632.578 590.701 630.743 588.064C629.252 585.885 627.647 583.706 627.074 582.101C624.551 575.107 622.717 566.048 625.354 558.824C627.418 552.976 634.183 559.627 637.852 561.347C642.21 563.411 646.682 565.36 651.383 566.851C658.722 569.259 664.455 574.304 664.226 578.432C663.996 584.394 658.492 590.701 651.383 593.109C650.236 593.453 648.86 593.912 647.484 594.256C644.388 594.944 640.49 598.269 637.164 597.122Z" stroke="#42D198" stroke-miterlimit="10"/>
<path d="M639.458 590.357C636.82 589.784 636.82 586.573 635.444 584.738C634.412 583.362 632.807 580.954 632.463 580.037C631.316 576.941 630.514 573.73 630.055 570.405C629.94 569.144 629.252 565.131 630.628 564.328C632.004 563.525 638.426 567.768 639.916 568.341C644.159 570.061 648.516 571.896 652.759 573.616C654.823 574.419 657.002 575.45 657.69 577.514C658.263 579.12 657.69 580.954 656.658 582.33C655.626 583.706 654.135 584.624 652.53 585.426C649.663 587.032 646.796 588.408 643.815 589.554C642.439 590.128 640.948 590.586 639.458 590.242C639.572 590.357 639.458 590.357 639.458 590.357Z" stroke="#42D198" stroke-miterlimit="10"/>
<path d="M871.312 593.682C857.896 578.547 848.493 555.613 859.501 538.757C864.891 530.387 874.178 525.456 881.861 519.264C902.845 502.408 913.738 471.678 902.501 447.254C891.149 422.831 855.029 412.167 835.192 430.398C822.923 441.75 819.942 450.924 804.232 455.625C792.307 459.18 776.483 458.721 770.406 472.022C766.393 480.851 768.113 494.497 758.71 497.249C756.073 498.051 753.206 497.478 750.569 496.675C725.916 489.681 710.092 465.945 687.961 452.988C679.82 448.286 670.188 444.961 661.015 447.025C651.842 449.204 643.93 458.262 645.879 467.55C647.714 476.265 656.543 481.081 663.308 486.929C676.953 498.854 682.916 517.315 694.841 530.846C705.964 543.573 721.673 551.371 734.63 562.264C775.337 596.09 743.46 645.855 694.956 633.93C692.204 633.242 689.337 632.325 686.471 632.554C665.716 634.274 701.721 651.703 702.753 654.455C705.505 661.335 704.932 669.018 706.767 676.242C710.206 689.543 721.902 699.404 734.745 704.449C747.588 709.495 761.462 710.412 775.222 711.559C799.76 713.737 821.891 724.172 846.773 723.14C869.018 722.223 892.181 713.508 905.253 695.391C916.834 679.452 918.898 657.207 910.642 639.319C902.157 620.973 884.613 608.704 871.312 593.682Z" stroke="#42D198" stroke-miterlimit="10"/>
<path d="M852.507 711.1C850.443 711.329 848.379 711.559 846.2 711.559C833.472 712.132 821.088 709.151 808.016 706.055C797.811 703.647 787.376 701.124 776.139 700.092L773.731 699.863C761.233 698.831 749.422 697.799 738.873 693.671C727.865 689.428 720.068 681.746 717.889 673.26C716.169 666.61 712.156 657.436 715.825 650.213C721.329 639.434 734.286 642.874 743.001 636.911C752.403 630.49 759.627 621.087 762.838 610.194C768.686 590.242 761.003 569.029 741.969 553.205C736.694 548.848 731.076 544.949 725.801 541.28C717.43 535.547 709.518 530.043 703.441 523.163C698.969 518.003 695.3 511.926 691.401 505.39C685.783 495.873 679.935 486.126 670.761 478.099C669.041 476.609 667.322 475.233 665.602 473.857C661.703 470.761 657.575 467.55 657.002 464.913C656.543 462.734 659.639 458.836 663.538 457.918C663.996 457.804 664.57 457.689 665.028 457.689C669.729 457.116 675.577 458.836 682.113 462.619C690.025 467.206 697.249 473.627 704.817 480.278C717.201 491.171 730.044 502.523 747.358 507.454C750.225 508.256 754.123 509.174 758.481 508.6C759.627 508.486 760.774 508.256 761.806 507.912C774.649 504.128 777.286 491.515 778.777 483.833C779.35 481.081 779.923 478.099 780.726 476.379C782.79 471.907 787.377 470.531 797.582 468.582C800.792 467.894 804.118 467.206 807.443 466.289C821.547 462.046 828.083 454.593 834.389 447.484C836.912 444.617 839.549 441.636 842.875 438.54C846.429 435.214 851.016 433.265 856.405 432.577C870.624 430.857 886.218 439.342 892.066 451.726C896.194 460.67 896.653 471.563 893.328 482.457C890.002 493.235 883.352 503.096 874.752 510.091C872.802 511.582 870.853 513.072 868.674 514.678C862.253 519.264 855.029 524.539 849.869 532.336C840.467 546.784 838.288 573.501 862.712 601.136C867.298 606.296 872.114 610.997 876.93 615.584C886.448 624.757 895.392 633.357 900.322 643.906C906.858 658.01 905.138 675.898 896.08 688.396C887.136 700.665 871.312 708.807 852.507 711.1Z" stroke="#42D198" stroke-miterlimit="10"/>
<path d="M849.067 700.436C839.893 700.78 830.491 699.289 821.318 697.913C800.563 694.588 779.923 691.263 759.169 687.937C751.371 686.676 736.58 682.204 730.732 676.93C726.374 673.146 724.884 665.463 729.241 661.679C731.534 659.615 734.86 659.156 737.956 658.468C756.531 654.455 770.635 638.975 775.337 620.858C780.841 599.416 773.846 576.138 760.774 558.365C750.339 544.261 730.273 533.712 716.284 523.163C714.449 521.787 712.614 520.411 711.697 518.347C710.78 516.283 711.238 513.416 713.188 512.384C715.94 511.008 718.806 513.531 720.985 515.71C734.86 528.896 758.251 528.208 774.19 519.035C783.707 513.531 787.147 504.702 794.142 496.905C797.696 492.891 802.283 489.91 806.64 486.929C818.566 478.902 830.491 470.99 842.301 462.963C850.099 457.804 859.387 452.3 868.216 455.281C876.472 458.148 880.829 468.009 879.682 476.723C878.536 485.438 872.917 492.891 866.61 498.968C860.304 505.046 852.965 510.091 846.773 516.283C834.848 528.323 827.624 544.835 826.707 561.691C825.904 578.546 831.408 595.746 842.072 608.818C851.131 620.055 863.629 628.197 873.376 638.975C883.122 649.639 890.232 664.89 885.301 678.535C881.173 690.002 869.477 697.34 857.437 699.633C854.8 699.977 851.933 700.321 849.067 700.436Z" stroke="#42D198" stroke-miterlimit="10"/>
<path d="M862.138 682.778C858.125 683.007 854.112 682.663 850.099 682.204C826.019 679.567 802.054 677.044 777.974 674.407C775.337 674.178 772.47 673.719 770.865 671.655C768.915 669.247 769.603 665.463 771.553 663.055C773.502 660.647 776.369 659.156 779.006 657.436C805.494 640.81 809.163 606.984 800.334 579.464C798.04 572.355 794.944 565.475 791.16 558.939C787.835 552.976 766.966 542.885 783.363 535.432C786.459 533.942 790.014 533.827 793.454 533.024C803.544 530.387 808.246 519.035 814.438 511.811C820.859 504.358 828.885 498.395 837.027 493.006C844.136 488.305 856.176 484.062 861.451 477.641C863.056 475.691 864.432 473.513 866.496 472.137C868.56 470.761 871.77 470.646 873.261 472.595C874.293 473.971 874.178 476.035 873.376 477.641C872.573 479.246 871.197 480.507 869.821 481.654C857.323 492.777 843.333 502.982 834.16 517.086C825.675 529.928 820.63 545.064 819.827 560.429C818.795 581.413 825.789 602.97 838.976 619.253C844.939 626.591 851.589 632.439 858.011 638.058C862.712 642.186 867.069 645.97 870.853 650.098C878.765 658.812 885.186 673.834 870.968 680.484C868.33 681.975 865.349 682.548 862.138 682.778Z" stroke="#42D198" stroke-miterlimit="10"/>
<path d="M859.616 664.546C856.864 664.89 853.539 664.431 851.589 664.546C842.072 665.004 832.669 665.578 823.152 666.036C816.043 666.38 807.787 667.527 800.792 665.922C798.384 665.348 796.091 663.399 795.976 660.876C795.862 658.239 798.958 655.602 800.334 653.423C802.512 649.754 804.462 645.97 806.067 642.071C808.819 635.421 810.539 628.541 811.915 621.431C812.718 617.189 813.979 606.181 819.598 605.608C827.051 604.69 827.968 620.973 831.408 625.33C838.976 635.306 848.723 644.135 858.355 651.933C860.648 653.767 862.941 655.717 863.859 658.469C865.464 662.826 862.941 664.202 859.616 664.546Z" stroke="#42D198" stroke-miterlimit="10"/>
<path d="M855.488 657.436C855.029 658.583 853.424 658.927 852.048 658.927C844.021 659.271 835.88 659.615 827.853 659.959C821.547 660.188 815.011 662.367 808.475 661.679C804.118 661.22 804.347 660.074 805.838 656.29C806.984 653.423 808.475 650.786 809.736 648.034C811.8 643.218 813.52 638.173 814.896 633.127C815.814 629.802 815.699 622.119 819.368 620.514C823.611 618.45 826.477 625.445 828.083 628.197C834.16 638.631 842.875 647.461 853.195 653.767C854.456 654.57 856.061 655.946 855.488 657.436Z" stroke="#42D198" stroke-miterlimit="10"/>
<path d="M831.523 650.671C828.312 650.9 820.286 654.455 817.534 651.933C814.438 649.066 817.992 643.562 819.598 640.925C823.152 635.191 827.051 642.759 829.917 645.741C830.835 646.543 835.077 650.442 831.523 650.671Z" stroke="#42D198" stroke-miterlimit="10"/>
<path d="M807.328 568.685C802.168 571.093 802.856 558.48 799.99 553.435C798.155 550.109 790.243 551.829 792.192 544.949C794.027 538.07 794.142 544.605 795.174 544.261C803.544 542.083 806.755 529.355 813.406 531.19C820.056 533.024 807.902 550.224 807.443 560.2C807.214 562.952 812.488 566.277 807.328 568.685Z" stroke="#42D198" stroke-miterlimit="10"/>
<path d="M926.581 619.826L926.466 619.941C924.746 621.546 924.287 624.183 924.517 626.477C925.434 634.962 931.282 643.676 934.378 651.474C938.047 660.647 941.258 670.05 944.01 679.452C949.743 698.945 957.311 723.598 954.444 744.124C953.871 748.596 953.298 753.87 956.508 756.966C960.178 760.406 966.026 759.03 970.612 756.737C981.161 751.577 987.124 743.894 994.692 735.409C1002.6 726.465 1013.84 720.044 1023.24 712.82C1027.26 709.724 1031.73 705.481 1030.35 700.551C1029.09 695.849 1023.36 694.359 1018.54 693.212C981.047 684.039 962.012 648.263 936.556 622.693C934.149 620.17 930.135 616.501 926.581 619.826Z" stroke="#42D198" stroke-miterlimit="10"/>
<path d="M960.407 744.812C959.948 741.83 960.866 738.39 960.866 735.638C960.866 729.217 960.292 722.91 959.26 716.604C957.311 704.335 953.756 692.409 950.316 680.599L949.514 677.847C945.959 665.922 941.716 654.455 936.671 643.103C936.212 641.957 935.639 640.581 936.327 639.549C938.735 635.994 950.202 646.543 951.692 648.492C960.407 658.927 969.236 669.476 979.556 678.42C991.023 688.396 1002.83 693.441 1016.82 698.487C1018.54 699.06 1020.15 700.207 1020.95 701.927C1022.1 704.449 1020.95 707.66 1018.89 709.609C1015.22 713.164 1009.37 715.687 1005.24 718.783C999.967 722.681 994.807 726.809 990.335 731.74C989.417 732.772 988.615 733.689 987.697 734.721C983.34 739.652 977.951 746.761 972.103 749.972C969.236 751.577 965.338 751.806 962.815 749.742C961.324 748.252 960.636 746.646 960.407 744.812Z" stroke="#42D198" stroke-miterlimit="10"/>
<path d="M966.025 724.516C964.42 723.599 963.503 720.961 963.159 719.356C962.242 714.196 965.223 709.151 964.42 703.991C962.7 693.556 956.279 684.498 953.183 674.407C952.724 672.916 952.266 671.426 952.38 669.935C952.38 668.444 952.954 666.839 954.1 665.807C958.572 662.138 962.815 669.706 964.65 672.572C968.09 677.847 973.249 681.86 978.753 684.842C983.799 687.594 989.188 688.969 994.348 691.263C997.903 692.868 999.164 696.652 995.036 698.601C989.991 701.009 985.633 703.073 981.505 706.972C979.671 708.692 977.951 710.641 976.345 712.591C974.855 714.54 973.823 717.292 972.103 719.012C971.185 720.732 969.465 724.745 967.172 724.86C966.828 724.86 966.369 724.745 966.025 724.516Z" stroke="#42D198" stroke-miterlimit="10"/>
<path d="M203.04 755.132C184.808 767.745 163.71 776.345 141.809 779.555C97.2037 786.206 64.868 768.891 27.487 748.137C-14.4806 724.86 1.11389 694.015 21.7537 658.239C43.0815 621.202 48.3561 575.795 38.6096 534.4C28.519 491.63 -12.1873 456.772 9.25515 410.332C23.8177 378.57 64.7533 363.892 96.9744 358.847C104.313 357.7 112.569 357.242 118.761 361.484C125.985 366.415 127.934 376.047 129.998 384.532C134.814 403.567 159.009 419.505 178.731 416.18C191.344 414.116 203.613 405.975 215.768 409.644C231.936 414.46 235.835 435.673 248.333 446.91C265.648 462.39 297.066 457.116 309.909 476.494C319.196 490.483 313.005 509.288 316.1 525.8C324.586 570.291 394.188 581.184 402.673 625.559C406.801 646.887 392.124 670.164 371.025 675.668C339.263 683.924 299.818 644.823 272.757 667.412C260.717 677.503 254.984 692.983 247.301 706.628C236.637 725.892 221.272 742.518 203.04 755.132Z" stroke="#42D198" stroke-miterlimit="10"/>
<path d="M122.774 769.579C89.5211 769.579 62.116 754.329 32.991 738.161C21.7537 731.969 15.3324 725.204 13.2685 717.751C9.4845 704.105 19.3457 685.415 31.7296 663.972C53.9748 625.445 60.5107 577.285 49.7322 531.763C46.0628 516.054 38.7242 501.72 31.7296 487.846C18.8871 462.619 7.76452 440.833 19.5751 415.033C34.4816 382.468 83.9025 372.378 98.6944 370.084C101.561 369.626 103.854 369.396 105.804 369.396C108.67 369.396 110.734 369.855 112.11 370.772C115.206 372.951 116.812 379.258 118.302 385.335L118.761 387.284C124.38 409.3 149.377 427.99 173.227 427.99C175.635 427.99 178.158 427.761 180.451 427.417C185.611 426.5 190.427 425.009 195.014 423.404C200.174 421.684 205.104 420.078 209.117 420.078C210.379 420.078 211.411 420.193 212.443 420.537C217.832 422.142 221.731 428.678 226.317 436.246C230.101 442.553 234.459 449.777 240.65 455.395C250.626 464.339 263.354 467.55 274.592 470.417C285.943 473.283 295.69 475.806 300.162 482.686C303.946 488.419 303.831 496.675 303.602 506.192C303.487 513.187 303.258 520.411 304.749 527.864C309.909 554.696 332.612 570.749 352.679 584.968C370.796 597.81 387.996 609.965 391.321 627.623C394.302 642.989 383.18 660.532 368.044 664.431C365.98 665.004 363.801 665.234 361.393 665.234C352.106 665.234 341.556 661.45 330.319 657.551C318.165 653.194 305.551 648.722 293.053 648.722C282.389 648.722 273.101 652.047 265.189 658.583C254.181 667.756 247.989 679.911 242.026 691.722C240.306 695.047 238.816 698.143 237.096 701.124C227.349 718.553 213.245 734.033 196.275 745.844C179.19 757.654 159.697 765.452 139.859 768.433C134.241 769.121 128.507 769.579 122.774 769.579Z" stroke="#42D198" stroke-miterlimit="10"/>
<path d="M122.774 751.692C100.414 752.265 77.8253 746.761 58.4468 735.524C49.5029 730.364 40.9029 723.598 36.431 714.311C29.207 699.404 35.743 687.02 44.1136 674.98C52.3695 663.284 57.9881 650.556 62.4601 636.797C73.812 601.824 74.9586 563.64 66.5881 527.864C62.3454 510.091 54.6628 494.84 47.0949 480.163C33.7937 454.134 27.2577 439.686 35.2843 422.257C40.9029 409.873 55.1215 401.732 66.0147 397.031C74.7293 393.247 89.6359 386.252 99.4971 390.151C106.377 392.788 106.492 396.228 108.9 402.42C112.684 412.396 115.55 418.244 124.494 426.041C137.91 437.622 155.454 445.076 173.342 445.076C185.038 445.076 195.014 436.246 206.709 441.75C217.144 446.681 221.043 458.491 228.037 466.862C236.523 476.953 246.154 480.737 258.882 482.686C269.202 484.291 280.784 487.043 285.599 496.331C288.695 502.294 288.007 509.288 288.007 516.054C288.237 554.008 314.037 578.546 342.818 598.957C352.335 605.722 366.209 613.749 372.057 624.069C375.727 630.49 375.497 639.663 369.764 644.25C364.031 648.722 355.775 647.002 348.666 645.053C316.789 635.994 283.421 621.087 254.296 645.397C234.803 661.679 229.413 685.759 214.507 705.023C198.798 725.204 176.552 740.454 151.899 747.449C142.497 749.972 132.635 751.462 122.774 751.692Z" stroke="#42D198" stroke-miterlimit="10"/>
<path d="M119.449 746.073C98.809 746.073 78.7426 740.684 61.3134 730.593C51.3375 724.745 44.8015 718.668 41.5909 711.788C36.0869 700.321 40.1002 690.804 48.8148 678.191C56.7267 666.839 62.804 654.226 67.964 638.402C79.5452 602.512 81.0359 563.755 72.2066 526.374C67.8493 507.912 59.9374 492.433 52.2548 477.411C35.8576 445.305 30.3536 418.588 68.4226 399.783C77.9399 395.081 90.4385 394.393 98.6944 401.159C101.446 403.452 103.625 406.319 105.804 409.185C123.577 433.265 140.891 450.809 173.456 450.809C178.846 450.809 183.776 449.318 188.134 447.942C191.918 446.796 195.358 445.649 198.683 445.649C200.747 445.649 202.581 446.108 204.416 446.91C209.92 449.548 213.475 455.052 217.144 460.899C219.208 464.11 221.272 467.435 223.795 470.417C234.344 483.03 246.613 486.47 258.194 488.19C267.368 489.681 277.229 491.974 280.669 498.739C282.618 502.408 282.503 507.339 282.503 512.499C282.503 513.646 282.503 514.792 282.503 515.824C282.733 557.448 311.629 583.477 339.722 603.314C341.442 604.576 343.276 605.837 345.226 607.098C353.596 612.831 363.113 619.253 367.356 626.591C369.649 630.605 369.879 636.797 366.553 639.434C365.177 640.466 363.343 641.039 360.82 641.039C357.609 641.039 353.826 640.122 350.5 639.205C346.487 638.058 342.359 636.797 338.346 635.65C322.98 630.949 307.157 626.133 291.447 626.133C275.853 626.133 262.666 630.834 250.856 640.695C238.357 651.13 231.363 664.546 224.483 677.388C220.011 685.874 215.883 693.9 210.149 701.124C195.014 720.617 173.8 734.95 150.409 741.601C141.465 744.124 132.062 745.5 122.66 745.844C121.628 746.073 120.481 746.073 119.449 746.073Z" stroke="#42D198" stroke-miterlimit="10"/>
<path d="M122.889 725.089C106.836 725.204 90.4385 721.649 75.4173 714.081C69.7986 711.329 64.18 707.545 62.116 701.697C60.3961 696.767 61.5427 691.263 64.0654 686.676C67.964 679.567 84.8198 649.639 87.8012 640.466C98.4651 607.557 101.102 572.24 96.0571 538.069C93.8784 523.278 89.9798 508.486 85.5078 494.153C81.6092 481.539 71.1746 473.169 65.3267 461.473C60.1667 451.153 58.2174 438.654 62.804 428.105C67.3907 417.556 79.7746 410.103 90.7825 413.313C101.332 416.409 107.18 427.302 113.945 435.902C124.494 449.204 139.057 457.23 154.881 462.505C169.902 467.55 185.84 458.147 200.288 464.11C212.901 469.385 217.029 486.126 228.84 493.006C238.243 498.51 250.626 496.79 259.685 502.752C269.546 509.288 272.184 522.36 275.738 533.598C282.618 555.384 296.493 574.992 314.725 588.752C318.852 591.848 323.324 594.829 325.847 599.301C328.37 603.773 328.14 610.424 323.783 613.176C316.445 617.877 305.207 608.933 297.639 607.672C286.861 605.837 275.624 606.984 265.418 610.768C241.453 619.482 224.139 644.479 212.672 666.266C208.429 674.407 204.76 681.402 199.944 687.479C180.91 711.788 152.243 724.745 122.889 725.089Z" stroke="#42D198" stroke-miterlimit="10"/>
<path d="M121.972 708.577C119.334 708.692 116.582 708.692 113.83 708.463C105.918 708.004 97.3184 705.825 92.5025 699.519C88.3745 694.129 87.8012 686.676 89.2918 680.026C90.7825 673.375 93.9931 667.298 96.9744 661.22C127.246 597.925 122.43 519.035 84.7052 459.867C82.2972 456.084 79.6599 452.185 78.3986 447.828C77.1373 443.47 77.4813 438.31 80.4626 434.985C93.5344 419.849 103.854 450.694 110.046 457.115C122.889 470.646 142.726 480.278 161.531 479.59C173.686 479.131 186.987 477.985 196.963 484.979C205.333 490.713 209.576 501.147 218.176 506.651C226.088 511.696 236.293 511.811 244.434 516.398C254.869 522.246 258.194 532.795 262.552 543.115C267.482 554.925 275.509 565.589 282.389 576.482C284.338 579.578 286.287 583.133 285.026 586.573C282.045 594.714 267.138 592.536 260.602 594.37C249.824 597.237 239.963 603.544 231.936 611.226C219.781 622.807 211.067 637.485 202.238 651.818C183.891 680.943 157.289 707.087 121.972 708.577Z" stroke="#42D198" stroke-width="2" stroke-miterlimit="10"/>
<path d="M126.673 698.831C118.188 697.684 113.601 690.804 118.302 679.338C125.297 662.138 132.635 645.97 136.649 627.623C141.465 605.149 142.611 581.986 140.662 559.168C138.942 539.904 134.241 522.59 128.393 504.243C127.361 501.032 126.444 497.134 128.737 494.611C131.259 491.745 135.961 492.777 139.63 494.038C149.033 497.248 156.027 501.95 166.003 501.72C177.814 501.491 188.248 502.408 198.11 509.747C205.104 515.022 210.493 522.36 217.832 527.062C224.827 531.419 233.197 533.139 240.307 537.496C252.346 544.949 273.445 569.488 263.354 584.05C258.997 590.357 251.658 593.682 244.664 596.664C234.229 601.021 222.877 607.098 216.112 616.501C205.448 631.293 198.11 647.919 186.299 662.138C173.686 677.388 157.862 690.46 139.286 697.111C134.585 698.831 130.227 699.404 126.673 698.831Z" stroke="#42D198" stroke-miterlimit="10"/>
<path d="M129.31 693.327C128.622 693.327 128.049 693.327 127.361 693.212C125.756 692.983 123.692 692.409 122.66 690.689C121.513 688.74 121.857 685.415 123.462 681.516C124.609 678.535 125.87 675.668 127.017 672.802C132.979 658.354 138.713 644.594 142.038 628.885C146.854 606.525 148.23 582.904 146.166 558.709C145.363 549.995 142.497 541.739 139.859 533.368C137.795 526.947 130.915 511.696 134.011 504.931C137.337 497.822 157.059 507.454 165.086 507.454C165.315 507.454 165.659 507.454 165.889 507.454C166.921 507.454 167.953 507.454 168.985 507.454C178.731 507.454 186.758 508.6 194.44 514.334C197.192 516.398 199.83 518.92 202.467 521.558C206.136 525.112 209.92 528.896 214.507 531.763C218.52 534.286 222.763 535.891 226.776 537.611C230.445 539.101 233.885 540.477 236.981 542.312C244.664 547.128 257.162 560.315 259.57 571.781C260.373 575.45 259.914 578.432 258.309 580.84C254.869 585.77 248.677 588.637 242.141 591.504C232.739 595.517 219.208 602.053 211.181 613.29C206.48 619.826 202.352 626.706 198.454 633.357C193.179 642.301 188.134 650.786 181.712 658.583C168.067 674.98 153.161 686.218 137.222 691.836C134.47 692.753 131.718 693.327 129.31 693.327Z" stroke="#42D198" stroke-miterlimit="10"/>
<path d="M148.574 666.151C142.038 662.711 156.486 643.906 159.009 632.439C164.169 608.474 165.659 583.133 163.366 557.333C162.678 549.536 160.499 540.363 156.601 533.483C154.995 530.731 154.078 526.947 156.371 524.768C158.321 522.819 161.531 523.392 164.054 524.08C170.934 526.144 177.928 523.278 184.235 527.979C186.07 529.355 188.134 531.419 190.542 533.712C194.67 537.725 199.256 542.312 205.563 546.325C210.952 549.651 216.112 551.715 220.699 553.549C223.795 554.811 226.432 555.843 228.152 556.875C232.624 559.627 241.912 565.475 239.389 571.896C237.096 577.858 223.909 581.069 218.635 584.28C210.493 589.21 203.04 595.288 197.422 603.085C192.262 610.194 188.019 617.418 183.891 624.413C178.731 633.127 174.259 640.695 168.64 647.46C162.907 654.34 155.11 669.591 148.574 666.151Z" stroke="#42D198" stroke-miterlimit="10"/>
<path d="M176.782 604.346C174.144 604.117 172.883 602.053 172.08 599.53C170.475 593.682 172.31 587.032 173.112 581.184C174.259 573.043 177.24 565.131 176.667 556.875C176.438 552.632 174.947 549.536 172.883 546.096C170.934 542.885 170.36 541.166 174.259 539.216C182.974 534.859 187.102 551.6 196.734 557.677C200.632 560.085 219.437 558.939 217.373 567.539C217.144 568.456 216.456 569.144 215.768 569.717C212.901 572.011 209.232 572.928 206.136 574.992C202.811 577.17 199.486 579.693 196.39 582.33C192.72 585.426 189.166 588.752 185.955 592.306C184.35 594.026 182.515 595.861 181.368 597.81C179.534 600.906 182.4 604.346 177.355 604.346C177.24 604.346 177.011 604.346 176.782 604.346Z" stroke="#42D198" stroke-miterlimit="10"/>
<path d="M477.435 227.211C469.982 213.795 453.585 204.048 453.814 188.683C453.929 179.969 459.662 172.515 463.561 164.603C479.27 133.07 460.923 95.46 430.537 79.7508C414.025 71.2655 396.137 75.6228 380.084 67.9402C362.311 59.455 351.188 41.2231 337.084 28.2659C326.535 18.634 313.922 11.41 300.391 7.05275C272.757 -1.77651 218.061 5.79142 214.851 43.4018C213.819 54.983 219.437 66.5642 227.923 74.4762C248.218 93.1667 296.149 99.4733 290.759 138.116C289.498 146.83 284.338 155.201 285.714 163.915C288.007 178.019 305.207 183.523 314.839 194.072C323.898 204.048 326.076 218.611 325.274 232.027C324.586 245.443 321.49 258.859 322.063 272.274C322.751 289.933 330.319 307.935 344.767 318.255C359.1 328.575 380.428 329.722 394.073 318.485C407.718 307.247 413.108 285.69 430.078 280.76C436.729 278.81 443.953 279.957 450.833 279.154C473.651 276.402 488.443 247.277 477.435 227.211Z" stroke="#42D198" stroke-miterlimit="10"/>
<path d="M370.452 315.159C363.687 315.159 356.807 312.981 351.418 309.082C340.868 301.4 334.103 287.525 333.53 271.93C333.3 264.706 334.103 257.253 335.135 249.456C335.823 244.067 336.511 238.448 336.74 232.715C337.772 212.878 333.3 197.283 323.324 186.39C319.082 181.803 314.037 178.134 309.45 174.923C302.111 169.763 297.639 166.209 296.951 162.081C296.493 159.329 297.639 155.659 299.015 151.417C300.162 147.977 301.309 144.078 301.997 139.836C306.927 105.092 278.261 90.3 257.392 79.5214C248.792 75.0495 240.765 70.9215 235.605 66.2202C229.184 60.2576 225.515 52.0017 226.088 44.5484C226.891 35.3751 231.936 28.3805 241.683 23.1059C250.741 18.1753 263.469 15.3087 276.426 15.3087C283.994 15.3087 291.218 16.3406 296.837 18.0606C308.762 21.8446 319.999 28.3805 329.287 36.8658C333.644 40.7644 337.772 45.4657 342.13 50.2817C351.532 60.8309 361.279 71.7242 375.153 78.3748C384.671 82.9614 394.532 83.9934 403.132 84.9107C411.158 85.828 418.726 86.6307 425.262 90.0707C449.342 102.569 466.313 133.414 453.241 159.558C452.438 161.163 451.406 162.883 450.489 164.718C446.705 171.369 442.462 179.051 442.347 188.568C442.118 202.787 451.177 212.992 458.401 221.134C461.955 225.147 465.281 228.931 467.345 232.715C470.67 238.792 470.441 246.933 466.542 254.387C462.758 261.84 456.337 266.885 449.342 267.688C447.278 267.917 444.985 267.917 442.462 268.032C437.761 268.032 432.372 268.146 426.868 269.752C412.764 273.88 405.081 285.346 398.201 295.322C394.417 300.941 390.863 306.215 386.735 309.655C382.607 313.21 376.759 315.159 370.452 315.159Z" stroke="#42D198" stroke-miterlimit="10"/>
<path d="M358.986 297.616C357.724 297.845 356.348 297.845 355.087 297.616C344.423 295.552 339.722 280.53 339.378 271.242C339.148 265.395 339.951 258.973 340.868 251.52C341.556 245.787 342.244 239.939 342.588 233.517C343.276 219.758 341.786 205.539 336.282 192.811C330.204 178.707 318.623 171.598 308.877 160.934C306.583 158.411 304.863 155.201 304.863 151.875C304.863 146.945 308.074 142.932 308.647 138.116C309.221 133.07 308.418 126.993 307.615 121.948C305.551 109.22 299.245 97.7533 290.301 88.58C276.082 74.0175 257.048 66.7936 239.963 56.359C236.293 54.0657 232.28 51.0844 232.051 46.8417C231.936 43.7458 234 40.7644 236.637 39.0445C244.32 33.8845 256.016 32.5085 264.96 32.5085C270.693 32.5085 276.197 33.1965 280.096 34.4578C289.727 37.5538 298.786 42.7138 306.239 49.5937C309.909 52.919 313.693 57.2763 317.821 61.7483C327.911 72.9855 339.263 85.8281 356.234 93.9693C368.388 99.8173 380.199 101.079 389.716 102.111C396.367 102.799 402.1 103.487 405.884 105.436C422.281 113.921 434.78 135.134 426.409 151.99C425.836 153.251 424.918 154.742 424.001 156.347C419.644 164.03 413.796 174.465 413.681 188.454C413.566 198.659 416.662 207.947 421.708 216.662C423.428 219.643 425.033 223.083 427.326 225.491C430.537 228.931 434.894 230.536 437.532 234.664C440.398 239.021 440.627 245.557 436.729 248.997C433.289 251.979 428.358 251.635 423.772 251.749C405.54 252.208 387.767 262.184 378.02 277.549C375.039 282.136 372.86 287.181 369.191 291.309C366.668 294.52 362.884 297.042 358.986 297.616Z" stroke="#42D198" stroke-width="2" stroke-miterlimit="10"/>
<path d="M357.38 277.893C356.463 277.893 355.546 277.664 354.743 277.434C347.06 274.338 347.748 264.019 347.978 260.579C348.322 255.419 349.812 250.717 351.303 246.131C352.564 242.003 353.826 238.104 354.055 234.32C354.972 217.006 352.564 201.64 346.831 188.454C343.964 181.803 339.722 175.382 334.332 169.305C333.186 168.043 331.466 166.553 329.516 165.062C325.732 161.966 321.375 158.411 319.426 153.596C317.362 148.665 318.394 144.078 319.197 140.409C319.541 139.033 319.77 137.886 319.885 136.74C320.343 132.038 320.114 126.764 319.082 120.342C317.247 109.22 309.106 101.193 299.589 91.9054C297.525 89.8414 295.346 87.7774 293.282 85.5988C293.167 85.4841 280.784 71.0362 283.994 61.7483C285.141 58.423 287.893 56.359 291.562 55.9003C292.021 55.9003 292.365 55.7857 292.823 55.7857C296.149 55.7857 298.786 57.391 300.391 58.3083C301.423 58.8816 302.341 59.455 303.373 60.0283C308.303 62.8949 313.349 65.8763 317.477 70.6922C319.655 73.2149 321.49 75.7375 323.324 78.3748C324.586 80.0948 325.847 81.8148 327.108 83.4201C335.364 93.9693 343.162 100.62 351.532 104.519C365.521 111.169 378.937 112.66 388.799 113.692C399.921 114.953 413.796 119.54 416.433 135.02C418.268 145.798 412.878 155.545 408.636 163.342C404.278 171.369 402.673 177.905 402.558 188.454C402.444 196.595 404.278 204.736 408.292 213.451C408.636 214.139 409.553 215.744 410.585 217.235C414.484 223.542 419.414 231.454 417.58 237.875C416.892 240.512 415.057 242.691 412.534 243.952C409.668 245.443 406.801 245.557 404.278 245.557H402.902H402.329C395.793 245.672 388.455 249.456 379.969 257.368C379.281 257.941 377.332 260.579 375.841 262.528C370.108 269.981 365.751 275.37 361.623 277.32C359.903 277.664 358.642 277.893 357.38 277.893Z" stroke="#42D198" stroke-miterlimit="10"/>
<path d="M358.642 271.816C357.954 272.16 357.266 272.274 356.807 272.045C353.138 270.554 353.482 263.789 353.596 260.808C354.17 251.749 359.215 243.379 359.674 234.435C360.591 216.203 358.068 199.92 351.991 185.931C348.666 178.249 343.964 171.369 338.46 165.177C334.447 160.705 326.764 156.577 324.586 151.187C322.637 146.486 325.044 141.785 325.503 136.969C326.076 131.121 325.503 124.929 324.586 119.081C322.063 103.372 308.991 93.396 297.181 81.2414C295.002 79.0628 283.535 62.3216 292.135 61.1749C293.97 60.9456 295.69 61.9776 297.295 62.8949C303.029 66.3349 308.762 69.2015 313.005 74.1322C316.33 78.0308 319.197 82.5028 322.522 86.6307C329.746 95.804 338.231 104.404 349.01 109.335C363.801 116.444 377.791 117.934 387.996 119.081C398.316 120.228 408.521 124.012 410.585 135.708C412.076 144.308 407.604 152.678 403.361 160.361C398.201 169.878 396.711 177.561 396.481 188.11C396.367 197.742 398.774 206.8 402.673 215.515C404.852 220.216 416.777 234.893 409.553 238.563C407.26 239.709 404.393 239.48 401.756 239.48C391.78 239.595 382.607 246.245 375.612 252.781C372.745 255.533 363.572 269.522 358.642 271.816Z" stroke="#42D198" stroke-miterlimit="10"/>
<path d="M368.273 241.544C367.815 241.2 367.471 240.627 367.241 239.709C366.783 238.104 367.585 236.499 368.273 235.008C373.204 224.803 371.599 214.368 370.223 203.59C368.961 193.958 366.553 184.441 362.655 175.611C359.788 168.961 355.89 162.769 351.418 157.035C347.175 151.761 339.951 147.977 336.855 142.014C334.332 137.198 336.626 132.726 337.084 127.91C337.772 121.604 336.97 114.724 333.988 108.991C333.186 107.385 332.039 105.665 332.498 103.831C332.727 102.569 333.874 101.423 335.135 101.079C339.951 100.047 346.602 109.793 350.5 112.201C362.196 119.196 375.841 119.998 389.143 121.489C402.329 122.98 403.246 128.025 403.705 130.548C404.622 136.166 400.838 143.046 397.513 149.238C391.092 160.934 389.716 170.566 389.601 181.345C389.487 188.454 390.633 195.334 392.583 202.214C394.073 207.603 403.246 217.808 402.329 222.854C401.87 225.376 399.692 227.326 397.399 228.243C394.073 229.504 390.519 229.045 387.193 230.307C383.065 231.912 378.937 234.205 375.727 237.301C374.236 238.333 370.452 243.493 368.273 241.544Z" stroke="#42D198" stroke-miterlimit="10"/>
<path d="M383.295 221.936C382.377 221.248 381.575 220.216 381.345 218.84C378.593 203.131 378.593 187.995 372.057 172.859C369.191 166.323 365.521 160.017 361.164 154.398C358.986 151.532 356.578 148.894 354.055 146.372C349.124 141.556 345.34 138.46 345.57 130.662C345.684 127.91 347.175 124.929 349.812 124.012C351.647 123.324 353.711 123.782 355.546 124.241C363.916 126.19 372.401 128.254 380.772 130.204C384.327 131.006 387.881 131.35 391.321 131.924C394.417 132.382 396.825 133.185 394.761 137.198C388.111 150.385 382.492 162.654 381.689 177.675C381.231 186.619 382.148 195.678 384.671 204.278C385.817 208.291 389.372 213.451 389.716 217.464C390.06 221.019 386.62 224.23 383.295 221.936Z" stroke="#42D198" stroke-miterlimit="10"/>
<path d="M939.538 3.15412C931.511 -10.6058 918.669 -20.811 905.253 -29.2963C835.307 -73.7866 746.9 -79.5198 664.799 -67.5946C647.599 -65.072 630.055 -61.632 615.607 -52.0001C598.178 -40.3042 587.17 -19.5497 587.17 1.5488C587.285 39.5031 632.234 59.6843 630.858 95.2307C630.055 117.59 617.901 138.574 624.437 161.278C627.877 173.547 638.77 183.867 638.311 196.71C637.852 211.731 622.487 221.707 616.525 235.467C603.682 265.395 637.738 302.432 621.111 330.41C615.951 339.01 607.122 344.399 600.357 351.738C593.592 359.076 589.12 370.658 594.853 378.799C605.058 393.361 628.909 378.57 645.65 384.532C658.034 389.004 663.538 404.025 675.119 410.447C688.42 417.9 706.308 411.249 715.022 398.751C723.737 386.367 724.998 369.97 722.934 354.948C721.214 342.335 717.201 329.722 709.404 319.631C697.02 303.693 674.431 292.112 674.775 271.816C675.004 252.437 697.479 238.333 697.02 218.955C696.676 200.035 674.66 186.39 675.348 167.585C675.692 160.246 679.591 153.366 684.751 148.092C707.11 125.617 745.179 133.758 773.387 148.206C801.595 162.654 830.147 182.491 861.565 178.937C890.002 175.726 914.541 150.729 917.178 122.292C918.669 106.468 914.311 89.612 921.306 75.3935C926.351 65.3029 936.327 58.423 941.831 48.5617C949.743 34.9165 947.45 17.0287 939.538 3.15412Z" stroke="#42D198" stroke-miterlimit="10"/>
<path d="M690.713 402.191C688.191 402.191 686.012 401.617 684.063 400.585C680.623 398.636 677.412 394.852 673.972 390.839C668.583 384.532 662.506 377.308 652.874 373.868C648.746 372.378 644.274 371.69 638.999 371.69C633.839 371.69 628.909 372.378 624.093 373.066C620.194 373.639 616.41 374.098 613.314 374.098C608.727 374.098 608.039 373.066 607.581 372.378C605.975 370.084 608.154 364.007 612.167 359.65C614.231 357.356 616.754 355.178 619.391 352.884C624.551 348.412 630.285 343.367 634.412 336.373C645.65 317.567 639.572 297.042 634.183 278.81C629.941 264.363 625.927 250.717 630.514 240.053C632.234 235.925 635.559 231.797 638.999 227.44C645.42 219.299 652.759 210.011 653.218 197.168C653.562 186.275 648.746 177.561 644.388 169.878C642.095 165.75 639.916 161.851 638.884 158.182C635.674 146.945 638.311 135.708 641.292 122.865C643.356 114.265 645.42 105.207 645.764 95.6893C646.567 73.7882 633.61 57.1616 622.143 42.3698C611.823 29.0686 602.077 16.57 602.077 1.43413C602.077 -15.6511 611.25 -32.9656 625.469 -42.4828C638.311 -51.0828 655.167 -54.0641 669.959 -56.2427C694.039 -59.7973 717.66 -61.5173 740.134 -61.5173C804.118 -61.5173 858.699 -47.4135 902.501 -19.6644C912.018 -13.5871 925.434 -4.06982 933.002 8.8874C939.652 20.354 940.57 33.7699 935.295 42.9431C933.346 46.4977 930.25 49.8231 926.925 53.4924C922.567 58.1936 917.751 63.5829 914.426 70.3482C908.578 82.2734 908.922 95.116 909.266 106.353C909.381 111.628 909.61 116.558 909.151 121.26C906.973 144.193 886.562 165.062 863.629 167.585C861.565 167.814 859.501 167.929 857.437 167.929C837.141 167.929 817.534 157.265 796.779 146.028C791.963 143.39 786.918 140.638 781.873 138.116C762.609 128.254 742.428 122.865 725.113 122.865C706.881 122.865 691.172 128.828 679.935 140.18C672.137 148.092 667.551 157.609 667.207 167.241C666.634 180.657 673.743 191.091 679.935 200.379C684.521 207.144 688.764 213.566 688.879 219.414C688.993 225.606 684.751 232.027 679.705 239.48C673.628 248.539 666.748 258.859 666.634 271.816C666.404 290.736 679.591 303.005 691.172 313.898C695.873 318.37 700.345 322.498 703.671 326.855C709.404 334.309 713.188 344.285 714.908 356.668C716.398 367.103 716.513 381.666 709.06 392.329C704.932 398.177 697.364 402.191 690.713 402.191Z" stroke="#42D198" stroke-miterlimit="10"/>
<path d="M688.764 397.375C686.127 396.572 684.177 393.705 681.999 391.183C677.297 385.679 672.596 380.29 666.748 376.047C658.492 369.97 651.383 368.708 641.407 367.332C638.999 366.988 636.362 366.53 634.756 364.695C632.807 362.402 633.151 358.847 634.756 356.324C637.967 351.394 641.751 349.788 644.044 343.941C646.911 336.831 648.287 329.493 648.058 321.81C647.599 306.216 641.751 291.309 637.394 276.517C633.839 264.248 634.986 251.52 637.738 245.099C638.884 242.461 641.866 238.677 644.847 234.893C649.663 228.816 651.383 220.102 655.626 213.451C659.066 208.062 665.716 204.048 669.959 210.814C674.431 217.923 668.354 224.803 664.57 230.422C657.346 241.315 654.364 254.731 654.25 273.077C654.02 289.818 659.41 309.082 671.564 321.351C682.113 331.901 692.892 342.794 697.937 357.127C701.263 366.644 705.046 389.348 694.497 395.999C692.204 397.719 690.369 397.948 688.764 397.375Z" stroke="#42D198" stroke-miterlimit="10"/>
<path d="M647.599 151.761C640.031 152.449 647.026 127.91 648.058 123.553C650.122 114.838 652.415 105.092 652.759 94.428C653.562 73.7882 643.586 53.3777 630.399 38.0125C617.786 23.2206 605.746 8.77273 613.429 -12.3258C621.799 -35.4882 643.815 -38.3549 664.799 -41.4508C687.732 -44.7761 710.321 -46.4961 731.649 -46.4961C786.688 -46.4961 840.352 -34.8002 887.25 -4.98715C896.309 0.74613 905.482 7.62608 909.839 17.4873C918.554 37.3245 897.914 47.8737 890.232 63.4683C883.008 78.1455 883.466 93.1667 883.81 105.092C883.925 109.793 884.04 114.265 883.696 117.934C882.205 134.102 867.184 149.353 851.016 151.187C849.525 151.302 848.035 151.417 846.429 151.417C830.032 151.417 812.259 141.785 793.454 131.58C788.638 128.942 783.592 126.19 778.547 123.668C757.793 113.004 735.892 107.156 716.742 107.156C702.639 107.156 687.503 110.596 675.348 118.508C669.041 122.636 663.423 128.025 659.18 134.332C656.199 138.804 653.676 150.385 647.828 151.761C647.943 151.761 647.714 151.761 647.599 151.761Z" stroke="#42D198" stroke-miterlimit="10"/>
<path d="M689.337 380.06C683.489 379.258 678.444 370.428 673.628 366.874C668.009 362.746 652.644 362.631 651.956 353.687C651.727 351.05 656.084 340.959 657.002 337.634C658.492 332.245 660.098 327.429 666.748 330.754C676.38 335.57 683.719 351.623 687.044 361.14C689.108 366.988 691.401 373.983 689.337 380.06Z" stroke="#42D198" stroke-miterlimit="10"/>
<path d="M846.085 133.529C841.384 133.873 836.683 133.3 832.211 131.924C820.286 128.369 810.195 120.686 799.531 114.38C779.121 102.111 755.958 94.428 732.222 91.9053C721.558 90.7587 707.454 88.8094 697.135 92.5933C688.535 95.804 680.393 105.092 670.647 104.633C661.932 104.289 664.455 96.3773 664.799 88.8094C665.946 58.5376 649.09 36.8658 636.706 21.0419C629.367 11.5247 622.373 2.58078 622.373 -3.72583C622.258 -28.8376 650.007 -31.8189 668.927 -35.3736C691.516 -39.6162 714.678 -41.4508 737.726 -40.7629C784.28 -39.3869 830.72 -28.1496 872.344 -7.16581C880.714 -2.92318 889.314 1.89278 894.818 9.80471C901.583 19.4366 898.373 24.4819 891.952 32.9672C879.797 49.0204 872.229 67.9402 871.885 88.236C871.656 100.505 873.605 114.036 866.152 123.782C861.451 129.974 853.997 132.956 846.085 133.529Z" stroke="#42D198" stroke-miterlimit="10"/>
<path d="M762.838 444.961C745.982 444.961 735.662 433.609 734.516 422.945C733.942 417.671 735.318 412.74 736.35 409.529C739.332 400.471 744.262 391.871 749.078 383.615C757.219 369.511 764.902 356.21 761.577 342.565C758.939 331.901 750.225 323.759 740.937 315.274C738.873 313.325 736.694 311.375 734.516 309.311C718.233 293.373 712.5 275.37 719.265 261.381C721.329 257.024 724.425 253.584 727.292 250.259C730.846 246.131 734.057 242.576 734.516 238.448C734.86 235.123 733.484 231.453 731.993 227.555C731.305 225.95 730.732 224.23 730.158 222.395C725.457 207.718 729.241 191.55 739.332 182.147C743.804 178.019 749.193 175.841 755.385 175.841C767.539 175.841 780.497 183.982 792.995 191.779C801.48 197.054 809.507 202.099 815.928 203.704C819.598 204.622 823.496 205.539 827.165 206.342C841.04 209.552 855.488 212.878 868.445 219.872C880.6 226.523 893.786 240.627 902.615 256.795C919.127 286.837 917.063 314.701 897.226 329.493C885.301 338.437 869.936 338.437 856.291 338.551C854.8 338.551 853.424 338.551 851.933 338.551C834.504 338.781 823.267 343.023 818.336 351.279C816.043 355.178 815.126 360.223 814.208 365.383L814.094 366.186C810.998 383.385 807.328 397.145 802.512 409.185C795.403 426.844 786.115 437.852 773.961 442.782C770.521 444.273 766.737 444.961 762.838 444.961Z" stroke="#42D198" stroke-miterlimit="10"/>
<path d="M896.424 261.84C887.938 246.475 875.669 233.288 864.546 227.211C848.837 218.726 830.72 215.859 813.291 211.502C792.192 206.227 760.545 171.369 742.084 188.569C733.025 197.054 730.617 211.158 734.401 222.968C736.35 229.046 739.79 235.008 739.102 241.429C737.956 251.291 727.636 257.253 723.278 266.197C716.513 280.186 726.26 296.584 737.382 307.477C748.505 318.37 762.265 328.346 765.934 343.482C771.897 368.135 748.505 389.463 740.593 413.657C739.446 417.212 738.644 420.996 738.988 424.665C740.364 438.196 758.022 444.961 770.635 439.801C783.249 434.641 790.931 422.028 795.976 409.415C801.366 395.999 804.691 381.78 807.328 367.562C808.36 361.714 809.278 355.751 812.374 350.706C819.712 338.207 836.339 335.341 850.787 335.111C865.234 334.997 881.058 335.799 892.64 327.199C913.05 311.949 909.037 284.544 896.424 261.84Z" stroke="#42D198" stroke-miterlimit="10"/>
<path d="M762.838 427.761C757.907 427.761 752.059 425.009 751.601 421.11C751.486 419.62 751.83 417.556 752.747 414.919C755.155 407.465 759.513 400.127 763.985 392.215C773.043 376.62 783.363 358.847 778.318 338.437C774.534 322.727 762.838 311.949 752.633 302.546C750.569 300.597 748.505 298.762 746.555 296.928C738.644 289.13 730.732 277.205 734.745 268.834C735.777 266.656 737.956 264.133 740.249 261.496C744.836 256.221 750.454 249.8 751.601 240.397C752.403 232.944 749.995 226.523 748.046 221.363C747.473 219.872 746.899 218.496 746.555 217.235C743.918 208.979 745.753 199.691 751.142 194.76C752.403 193.614 753.665 193.155 755.499 193.155C762.723 193.155 773.961 200.264 784.051 206.456C793.683 212.534 802.856 218.152 811.8 220.446C815.699 221.363 819.598 222.28 823.381 223.198C836.797 226.293 849.411 229.16 860.418 235.123C869.706 240.168 880.485 251.979 887.709 265.165C893.557 275.714 896.768 286.378 896.768 295.208C896.768 304.266 893.672 310.917 887.136 315.847C879.682 321.351 868.445 321.466 856.405 321.466C854.915 321.466 853.424 321.466 851.933 321.466C828.083 321.695 811.915 328.919 803.774 342.679C799.875 349.33 798.614 356.324 797.467 362.516L797.352 363.319C794.486 379.372 791.046 391.985 786.688 402.993C781.529 415.951 775.107 424.092 767.654 427.073C766.163 427.417 764.558 427.761 762.838 427.761Z" stroke="#42D198" stroke-miterlimit="10"/>
<path d="M793.683 317.797C782.675 315.159 780.382 301.17 773.043 293.602C766.737 287.181 754.926 281.906 753.435 272.274C751.715 260.808 765.819 249.685 765.705 236.269C765.705 229.504 767.31 221.478 773.502 219.07C782.675 215.63 798.04 229.963 807.328 232.256C811.342 233.288 815.355 234.205 819.139 235.008C831.981 237.989 842.875 240.512 851.819 245.328C863.4 251.635 885.416 278.352 877.16 292.226C873.949 297.616 867.528 300.482 861.221 300.941C847.117 301.973 838.173 299.565 823.955 304.725C814.667 308.05 805.723 319.402 795.174 318.026C794.715 318.026 794.256 318.026 793.683 317.797Z" stroke="#42D198" stroke-miterlimit="10"/>
<path d="M797.238 299.909C791.619 299.565 790.358 293.488 788.065 289.13C784.969 283.282 780.497 278.008 774.763 274.568C770.865 272.274 766.622 269.064 766.393 264.477C766.278 262.413 766.966 260.349 767.769 258.4C770.865 250.029 773.961 241.659 777.057 233.288C780.611 223.771 787.376 227.555 793.683 231.568C803.2 237.76 813.979 240.053 824.872 242.461C841.384 246.245 856.52 253.355 865.234 268.72C867.413 272.504 867.757 277.664 865.005 280.989C860.992 286.034 853.309 284.773 846.888 284.085C834.275 282.824 821.203 286.264 810.768 293.488C807.099 296.01 803.43 299.221 798.958 299.68C798.27 300.024 797.696 300.024 797.238 299.909Z" stroke="#42D198" stroke-miterlimit="10"/>
<path d="M802.512 275.485C797.123 274.109 792.88 269.752 788.982 265.624C785.657 262.069 782.217 258.285 780.611 253.584C774.534 235.696 792.651 240.053 802.398 242.576C812.488 245.213 823.038 247.277 832.555 251.749C835.192 253.011 842.875 255.992 841.957 259.776C841.155 263.216 822.923 269.752 819.483 271.472C814.667 273.994 809.392 276.517 804.003 275.714C803.43 275.714 802.971 275.6 802.512 275.485Z" stroke="#42D198" stroke-miterlimit="10"/>
<path d="M302.57 288.098C302.341 287.754 302.111 287.41 301.882 286.952C293.626 273.765 289.613 261.955 288.925 246.131C288.122 228.358 288.695 209.094 278.146 194.76C269.317 182.721 253.837 176.299 246.842 163.113C240.88 151.99 242.256 138.46 242.256 125.846C242.141 100.391 223.795 77.9161 197.88 74.3615C183.203 72.2975 155.339 77.4575 141.694 84.7961C120.251 96.2627 118.188 121.948 114.289 143.161C106.836 183.409 60.8547 201.526 60.8547 243.723C60.6254 265.165 70.2573 286.493 86.4251 300.597C93.3051 306.56 101.446 311.375 110.39 313.21C135.043 318.141 161.072 299.909 184.694 308.623C197.077 313.21 205.907 324.562 210.608 336.946C215.424 349.788 213.589 364.122 221.96 374.671C227.349 381.436 239.274 387.513 246.269 392.903C253.722 398.521 283.077 425.468 293.855 417.9C303.946 410.791 300.621 385.22 302.226 374.098C306.469 343.826 319.655 314.586 302.57 288.098Z" stroke="#42D198" stroke-miterlimit="10"/>
<path d="M279.407 391.412C264.96 393.591 241.682 371.116 236.293 359.65C230.904 348.298 228.381 335.685 222.648 324.562C214.048 307.706 197.995 294.749 179.648 289.933C150.523 282.25 122.659 309.541 97.777 287.64C85.3931 276.746 78.0545 260.464 78.1692 243.952V243.837C78.1692 227.44 88.6038 215.056 100.758 200.723C115.436 183.294 127.475 165.521 131.603 142.702C133.438 132.497 134.814 121.948 139.515 112.775C148.689 94.772 172.195 91.332 190.656 91.332C193.064 91.332 194.67 91.4467 195.702 91.5614C236.866 97.2946 217.603 143.39 229.872 169.075C237.44 184.785 255.901 192.696 264.845 207.603C280.898 234.664 269.661 267.917 287.434 296.24C287.663 296.698 288.007 297.042 288.237 297.501C298.098 312.866 297.754 335.57 295.919 352.999C294.887 362.516 293.511 373.41 289.269 382.124C286.287 388.201 282.962 390.839 279.407 391.412Z" stroke="#42D198" stroke-miterlimit="10"/>
<path d="M271.725 367.906C265.533 370.084 257.736 364.81 251.773 352.196C249.709 347.724 247.989 342.679 246.154 337.405C243.861 330.639 241.453 323.645 237.898 316.65C227.12 295.552 206.939 279.269 183.891 273.192C178.96 271.93 173.686 271.242 168.182 271.242C157.747 271.242 148.001 273.65 139.401 275.714C132.521 277.434 126.099 279.04 120.71 279.04C115.894 279.04 112.454 277.778 108.9 274.682C100.185 267.115 95.025 255.648 95.1397 244.067V243.837C95.1397 234.205 101.79 225.835 113.716 211.846C125.067 198.43 135.502 183.867 142.038 167.47C148.803 150.729 145.363 129.172 159.696 116.444C167.952 108.991 188.134 102.913 198.568 109.793C207.741 115.87 206.824 128.484 207.283 138.574C207.856 150.729 208.429 164.489 214.163 176.414C219.667 187.995 228.725 195.792 236.637 202.558C242.026 207.259 247.186 211.616 249.938 216.318C255.786 226.179 256.933 237.989 258.194 251.749C259.685 268.376 261.52 287.296 272.757 305.298C272.986 305.757 273.33 306.216 273.674 306.674C281.357 318.599 283.65 337.061 281.471 350.82C279.981 360.682 276.311 366.3 271.725 367.906Z" stroke="#42D198" stroke-miterlimit="10"/>
<path d="M268.973 362.631C266.106 362.631 261.29 358.618 257.048 349.788C255.098 345.661 253.378 340.73 251.658 335.685C249.25 328.69 246.842 321.466 243.058 314.127C231.477 291.538 209.92 274.224 185.382 267.803C179.992 266.427 174.144 265.624 168.296 265.624C157.174 265.624 146.969 268.147 138.139 270.325C131.603 271.93 125.411 273.421 120.825 273.421C117.385 273.421 115.321 272.618 112.798 270.44C105.345 263.904 100.873 254.043 100.988 244.181V243.837C100.988 236.155 107.18 228.472 118.188 215.4C132.521 198.43 141.579 184.211 147.542 169.534C150.179 162.883 151.441 155.774 152.473 148.894C154.307 137.886 156.027 127.452 163.595 120.686C168.067 116.673 178.043 112.545 186.872 112.545C190.427 112.545 193.523 113.233 195.587 114.609C200.747 118.049 201.32 124.814 201.549 134.79C201.549 136.166 201.664 137.542 201.664 138.918C202.237 151.646 202.811 165.979 209.117 178.937C215.195 191.55 224.597 199.806 232.968 207.03C238.013 211.387 242.829 215.515 245.122 219.414C250.282 228.128 251.314 239.365 252.576 252.437C254.181 269.752 256.016 289.36 268.056 308.509C268.285 308.968 268.629 309.426 268.973 309.999C275.279 319.746 278.146 336.258 275.967 350.132C274.706 358.274 271.954 361.943 270.005 362.631C269.546 362.631 269.202 362.631 268.973 362.631Z" stroke="#42D198" stroke-miterlimit="10"/>
<path d="M188.363 256.565C181.942 254.845 175.176 254.043 168.296 254.043C161.416 254.043 154.078 254.616 147.313 256.107C141.465 257.483 135.846 260.579 129.769 261.267C124.15 261.84 117.958 260.12 114.633 255.419C111.881 251.52 111.766 246.131 113.257 241.544C115.78 234.32 121.971 228.472 126.787 222.739C141.923 204.736 151.555 189.601 157.976 173.662C161.072 165.865 162.448 157.723 163.595 150.614C165.086 141.326 166.462 133.185 171.048 129.057C175.062 125.388 183.318 121.145 188.019 125.961C192.835 130.892 190.656 140.18 190.542 146.372C190.542 154.857 191.803 163.342 194.211 171.369C197.651 182.721 203.499 193.384 211.181 202.328C217.947 210.24 229.643 216.088 235.032 225.032C238.93 231.453 239.848 241.544 240.88 253.24C242.714 271.013 215.997 263.904 188.363 256.565Z" stroke="#42D198" stroke-miterlimit="10"/>
<path d="M226.891 251.52C226.661 251.635 226.432 251.864 226.088 251.979C223.909 252.896 221.387 252.437 219.093 251.864C209.92 249.8 200.632 248.08 191.574 245.672L191.115 245.557C173.342 240.971 154.422 241.544 137.222 248.195C135.158 248.997 132.979 249.915 130.686 250.029C128.393 250.144 125.985 248.997 125.067 246.933C123.921 244.181 125.985 241.085 127.819 238.792C136.419 228.357 145.707 218.267 153.619 207.374C159.238 199.691 166.118 187.537 168.411 178.249C171.392 170.795 170.246 163.113 171.048 155.43C171.507 150.958 172.883 146.486 175.176 142.588C175.75 141.67 177.928 137.657 179.19 137.657C182.974 137.657 182.286 150.041 182.171 152.449C181.827 160.017 180.91 167.585 183.203 174.923C187.102 187.766 193.752 199.92 202.467 210.011C206.021 214.254 210.379 217.579 214.392 220.904C221.845 226.867 228.496 234.32 229.643 244.181C230.216 246.819 229.184 249.915 226.891 251.52Z" stroke="#42D198" stroke-miterlimit="10"/>
<path d="M269.088 329.263C267.597 325.823 265.189 322.957 263.469 319.631C259.914 313.095 258.882 305.528 256.474 298.418C254.869 293.832 252.002 292.456 248.677 289.474C248.104 289.016 247.53 288.442 246.842 288.213C246.154 287.984 245.237 288.213 244.893 288.786C244.549 289.36 244.893 290.162 245.122 290.736C246.269 293.373 247.301 296.01 248.218 298.762C252.805 313.783 253.034 330.295 261.176 343.711C262.552 345.89 265.074 348.183 267.253 346.922C268.17 346.463 268.629 345.546 269.088 344.629C271.152 339.927 271.266 334.194 269.088 329.263Z" stroke="#42D198" stroke-miterlimit="10"/>
<path d="M539.355 131.58C538.093 123.094 531.901 116.215 525.595 110.481C518.027 103.487 509.312 97.18 499.336 94.6574C493.718 93.2814 483.512 93.396 483.627 101.537C483.627 103.487 484.315 105.321 485.003 107.041C488.443 115.527 496.24 125.273 490.851 134.446C488.558 138.345 485.118 141.326 482.366 144.996C476.976 151.99 474.568 161.163 475.715 169.878C477.32 181.689 488.672 203.934 502.088 190.977C510.803 182.491 506.102 166.782 517.797 159.443C520.32 157.838 523.301 157.035 526.053 155.774C535.112 151.532 540.96 141.326 539.355 131.58Z" stroke="#42D198" stroke-miterlimit="10"/>
<path d="M495.094 190.289C490.966 190.289 484.086 180.313 482.71 170.222C481.792 163.113 483.742 155.43 488.214 149.697C489.131 148.55 490.163 147.289 491.31 146.142C493.374 143.849 495.438 141.556 497.158 138.689C504.152 126.764 495.323 117.246 491.31 106.583C490.736 104.977 490.736 102.913 491.883 101.537C493.603 99.4733 497.158 100.964 499.336 101.423C509.083 103.716 517.568 110.825 523.072 115.87C528.003 120.457 533.851 126.649 534.997 133.644C536.029 140.638 531.672 148.55 525.021 151.761C524.219 152.105 523.187 152.564 522.269 152.908C520.32 153.596 518.256 154.513 516.077 155.774C507.707 161.049 505.758 169.649 504.152 176.414C503.006 181.23 502.088 185.473 499.336 187.995C498.19 189.027 496.584 190.289 495.094 190.289Z" stroke="#42D198" stroke-miterlimit="10"/>
<path d="M493.259 176.185C492.456 176.299 491.654 175.726 491.195 175.038C489.819 172.401 490.392 167.355 490.622 164.489C490.851 160.705 491.883 157.15 494.176 154.054C494.864 153.137 495.782 152.22 496.814 151.073C499.107 148.55 501.63 145.798 503.808 142.014C510.688 130.318 497.502 116.444 503.35 112.201C505.184 110.825 507.248 110.94 508.968 112.431C510 113.348 510.688 114.494 511.376 115.526C513.555 118.852 516.077 122.062 518.944 124.814C521.352 127.222 524.104 130.204 524.677 133.758C525.136 136.74 522.843 140.753 519.861 142.129C519.288 142.358 518.485 142.702 517.683 143.046C515.619 143.849 512.752 144.996 509.886 146.716C505.299 149.582 501.63 153.595 498.992 158.297C496.584 162.654 494.062 167.585 494.52 172.745C494.635 173.891 494.75 175.497 493.718 176.07C493.603 176.07 493.488 176.185 493.259 176.185Z" stroke="#42D198" stroke-miterlimit="10"/>
<path d="M1068.31 189.945C1062.92 171.598 1056.38 153.481 1047.21 136.625C1040.79 124.7 1032.65 113.233 1021.29 106.009C1010.86 99.3586 998.476 96.7213 986.436 94.084C949.628 86.2867 962.012 142.473 953.527 161.163C946.647 176.529 933.117 188.683 917.178 194.072C911.33 196.022 905.024 197.168 900.208 201.067C895.392 204.966 893.328 212.992 897.8 217.235C899.52 218.955 902.042 219.643 904.221 220.675C916.375 226.638 920.045 242.003 920.733 255.419C921.421 268.835 920.733 283.512 928.645 294.52C933.575 301.4 941.487 305.986 945.615 313.439C952.839 326.282 946.647 342.679 950.316 356.898C953.527 369.396 966.484 379.602 979.212 377.079C995.839 373.639 1002.15 353.228 1002.26 336.258C1002.37 319.287 1000.2 300.482 1010.75 287.296C1023.01 271.931 1047.09 271.472 1061.31 257.827C1070.03 249.571 1073.93 237.187 1074.27 225.262C1074.73 213.336 1071.75 201.526 1068.31 189.945Z" stroke="#42D198" stroke-miterlimit="10"/>
<path d="M975.314 371.804C966.943 371.804 958.343 364.466 955.935 355.522C954.559 350.247 954.788 344.399 955.018 338.207C955.362 328.919 955.591 319.402 950.66 310.573C947.909 305.757 944.125 302.088 940.341 298.648C937.703 296.125 935.181 293.832 933.346 291.194C927.613 283.168 927.154 272.274 926.695 260.808C926.581 258.859 926.581 257.024 926.466 255.189C925.434 235.123 918.669 221.363 906.744 215.515C906.056 215.171 905.368 214.942 904.794 214.598C903.533 214.024 902.386 213.566 901.813 212.992C901.698 212.878 901.125 212.304 901.125 210.928C901.24 208.979 902.386 206.686 903.877 205.424C906.629 203.131 910.642 201.984 914.885 200.723C916.261 200.264 917.637 199.92 919.013 199.462C936.327 193.614 951.234 180.198 958.802 163.457C961.783 156.806 962.471 147.174 963.159 136.854C964.764 114.036 966.828 99.0146 979.9 99.0146C981.506 99.0146 983.34 99.244 985.175 99.588C996.641 101.996 1008.45 104.519 1018.2 110.711C1027.03 116.329 1034.6 125.388 1042.16 139.262C1049.96 153.71 1056.5 170.222 1062.8 191.435C1065.78 201.526 1068.88 213.336 1068.65 225.032C1068.31 236.728 1064.29 247.163 1057.41 253.584C1051.57 259.088 1043.65 262.299 1035.17 265.624C1024.62 269.752 1013.73 274.109 1006.27 283.626C996.068 296.354 996.297 313.325 996.527 328.231C996.527 330.983 996.641 333.621 996.527 336.143C996.412 351.852 990.679 368.823 978.066 371.346C977.263 371.69 976.231 371.804 975.314 371.804Z" stroke="#42D198" stroke-miterlimit="10"/>
<path d="M968.09 352.655C966.714 351.738 965.682 350.247 965.223 348.642C964.306 345.546 965.223 341.991 965.338 338.895C965.682 328.346 966.14 315.274 958.802 302.317C952.036 290.162 940.341 285.92 938.162 270.784C936.786 261.496 937.359 251.749 933.805 243.035C930.594 235.237 923.943 228.587 923.37 220.102C922.567 209.208 932.085 200.494 941.258 194.76C951.234 188.569 960.407 183.065 966.14 172.515C972.791 160.246 974.282 146.142 972.791 132.497C972.332 128.484 971.644 124.356 973.25 120.686C978.066 109.793 992.399 117.246 999.049 121.604C1006.96 126.764 1013.04 137.772 1017.97 145.569C1029.67 164.03 1038.15 184.555 1042.62 205.998C1044.69 215.744 1045.83 226.408 1041.13 235.237C1035.28 246.245 1022.33 250.947 1010.75 255.419C996.183 261.037 987.698 268.491 980.13 282.021C972.332 296.01 972.218 313.095 972.447 328.575C972.562 335.799 971.874 346.463 968.09 352.655Z" stroke="#42D198" stroke-miterlimit="10"/>
<path d="M965.223 295.322C961.668 296.125 958.572 290.162 956.164 287.296C953.527 283.97 951.234 280.301 950.661 275.944C950.317 273.306 950.087 270.555 949.858 267.688C949.284 260.808 948.711 253.125 945.615 245.557C944.125 241.888 942.175 238.677 940.455 235.811C938.277 232.256 936.213 228.816 936.098 226.179C935.754 221.936 940.455 216.432 948.597 211.272L949.972 210.355C960.063 204.048 970.612 197.512 977.492 184.67C984.716 171.483 984.028 155.545 984.716 140.868C984.831 138.918 985.06 136.74 986.665 135.478C987.927 134.561 989.647 134.561 991.023 135.249C992.399 135.822 993.545 136.969 994.692 138.116C1014.3 158.297 1027.14 187.766 1032.76 215.056C1034.25 221.936 1035.51 230.651 1032.3 236.613C1028.63 243.608 1018.54 247.392 1008.8 251.176L1007.88 251.52C998.591 255.075 989.991 260.12 983.111 267.229C978.868 271.587 975.658 276.632 972.791 281.906C970.842 285.576 970.383 290.621 967.516 293.717C966.714 294.634 965.911 295.093 965.223 295.322Z" stroke="#42D198" stroke-miterlimit="10"/>
<path d="M965.911 283.053C964.764 283.397 963.618 282.136 963.044 278.008C962.7 275.714 962.471 273.077 962.242 270.325C961.324 258.973 959.719 247.163 953.068 237.531C951.463 235.237 949.858 232.6 949.858 229.848C949.743 225.147 954.788 223.656 958.114 221.592C968.663 214.942 980.703 207.488 988.844 192.467C993.431 183.982 995.609 174.121 995.265 164.489C995.151 162.31 995.151 159.787 996.985 158.641C998.591 157.723 1000.65 158.411 1001.92 159.787C1006.16 164.718 1009.37 172.63 1012.35 178.593C1017.51 188.569 1021.87 199.003 1025.19 209.782C1027.37 216.662 1029.09 224 1027.26 230.995C1024.28 242.003 1015.68 244.067 1006.27 246.933C996.756 249.8 986.78 257.253 979.9 264.363C977.034 267.344 974.626 270.669 972.447 274.109C970.956 276.517 968.204 282.365 965.911 283.053Z" stroke="#42D198" stroke-miterlimit="10"/>
<path d="M968.778 254.387C968.319 254.387 967.975 254.157 967.631 253.928C964.535 251.979 964.764 245.213 963.732 242.117C962.242 237.76 959.146 234.091 957.884 229.734C956.623 225.376 961.095 224.803 964.191 222.739C966.484 221.134 968.892 219.528 971.071 217.808C982.996 208.864 994.004 197.398 997.329 182.491C997.559 181.459 997.788 180.313 998.705 179.625C1000.65 178.134 1002.03 181.345 1002.72 182.606C1004.55 185.702 1005.47 189.257 1006.85 192.582C1009.14 197.971 1011.2 203.59 1012.92 209.208C1014.99 215.63 1017.63 222.739 1012.69 228.472C1008.91 232.944 1002.6 234.205 997.1 236.155C990.105 238.677 983.684 242.691 978.41 247.851C976.575 249.685 972.218 254.845 968.778 254.387Z" stroke="#42D198" stroke-miterlimit="10"/>
<path d="M967.058 235.925C966.943 236.04 966.714 236.155 966.599 236.269C966.14 236.613 965.567 236.843 965.108 236.613C964.535 236.384 964.42 235.696 964.42 235.008C964.42 233.288 964.535 231.454 965.338 229.963C966.714 227.326 969.236 228.128 971.3 226.638C976.002 223.083 979.327 218.038 982.882 213.222C985.06 210.355 989.762 202.787 994.463 205.08C995.38 205.539 996.068 206.571 996.183 207.603C996.412 210.011 994.921 211.846 995.953 214.483C996.412 215.744 997.215 216.891 997.444 218.267C997.559 219.528 997.1 220.79 996.183 221.592C994.807 222.739 992.055 223.083 990.335 223.656C989.188 224 987.927 224.459 986.78 224.803C979.442 227.44 973.364 231.798 967.058 235.925Z" stroke="#42D198" stroke-miterlimit="10"/>
<path d="M1014.87 407.809C1008.57 395.884 996.068 385.449 983.225 385.908C973.823 386.252 964.764 391.068 955.476 389.807C942.175 388.087 933.575 375.244 922.797 367.332C905.138 354.375 881.288 354.604 859.501 357.012C855.259 357.471 850.328 358.503 848.493 362.402C847.003 365.498 848.149 369.167 849.64 372.263C855.029 383.5 864.776 392.444 876.242 397.145C886.448 401.273 897.685 402.076 907.775 406.548C927.957 415.721 939.079 439.572 936.901 461.702C934.722 483.718 921.191 503.555 903.991 517.43C893.786 525.571 881.058 534.171 880.6 547.243C880.37 554.237 884.154 560.773 889.314 565.475C894.474 570.176 900.896 573.157 907.317 575.68C912.821 577.858 919.013 580.152 921.879 585.426C924.517 590.357 923.37 596.664 925.434 601.824C927.957 607.901 934.263 611.341 940.34 613.978C946.303 616.615 953.068 619.023 959.375 616.959C963.503 615.583 966.828 612.602 969.81 609.506C982.652 596.32 993.545 580.496 996.527 562.379C998.361 551.829 997.444 541.051 997.329 530.387C997.1 505.963 1001.11 481.539 1009.14 458.377C1013.5 445.878 1020.84 432.921 1018.89 419.39C1018.31 415.607 1016.94 411.708 1014.87 407.809Z" stroke="#42D198" stroke-miterlimit="10"/>
<path d="M954.1 605.608C951.692 606.181 949.284 606.066 946.876 605.378C941.717 603.773 937.359 599.53 935.525 594.37C934.493 591.274 934.263 588.064 933.575 584.853C931.397 574.189 920.962 568.8 911.674 565.245L911.215 565.016C906.285 563.067 900.781 560.659 896.768 556.989C893.672 554.123 891.722 550.453 891.837 547.472C891.952 541.165 899.863 534.974 907.546 528.896C908.693 527.979 909.839 527.176 910.871 526.259C932.199 509.059 945.73 485.897 948.023 462.619C950.775 434.182 936.098 406.777 912.247 395.999C905.941 393.132 899.634 391.641 893.557 390.265C888.856 389.119 884.269 388.087 880.37 386.481C876.242 384.761 872.802 382.009 869.592 378.914C865.693 375.244 856.291 368.135 865.12 365.268C867.986 364.351 871.885 365.383 874.637 366.186C888.856 370.314 902.845 366.988 915.802 376.506C918.669 378.57 921.421 381.207 924.402 383.959C932.199 391.183 940.914 399.439 953.871 401.159C955.362 401.388 956.852 401.388 958.458 401.388C964.076 401.388 969.351 400.127 973.938 398.98C977.378 398.177 980.703 397.375 983.569 397.26C983.684 397.26 983.799 397.26 984.028 397.26C991.137 397.26 999.967 404.025 1004.78 413.084C1006.27 415.836 1007.19 418.473 1007.53 420.996C1008.68 429.252 1005.13 437.966 1001.8 445.305C997.673 454.249 994.692 463.651 992.399 473.283C988.041 492.318 986.78 512.04 986.092 531.534C985.633 546.096 985.289 561.003 980.703 574.762C977.378 584.394 966.599 602.856 954.1 605.608Z" stroke="#42D198" stroke-miterlimit="10"/>
<path d="M951.004 599.874C949.743 599.874 948.596 599.645 947.335 599.186C944.01 597.81 941.602 594.714 940.455 591.274C938.621 585.885 939.309 580.84 936.213 575.909C933.461 571.667 929.677 568.226 925.434 565.475C918.554 561.232 909.725 559.971 903.304 555.384C900.437 553.32 898.258 549.88 898.832 546.325C899.405 543 902.157 540.477 904.909 538.643C930.135 521.787 950.89 494.382 953.986 463.537C956.967 432.692 940.914 402.879 914.885 391.068C908.119 387.972 901.584 386.481 895.162 384.991C890.576 383.959 886.333 382.927 882.778 381.436C880.6 380.519 873.032 377.423 873.146 374.327C873.261 368.823 887.021 374.327 889.773 374.671C898.373 375.474 905.711 376.276 912.706 381.321C915.229 383.156 917.981 385.679 920.733 388.316C928.759 395.769 938.621 405.057 953.298 407.007C955.018 407.236 956.738 407.351 958.572 407.351C964.879 407.351 970.727 405.975 975.314 404.828C978.524 404.025 981.505 403.337 983.799 403.223H984.028C988.385 403.223 995.609 408.383 999.737 415.95C1000.88 418.014 1001.57 420.193 1001.8 421.913C1002.72 428.564 999.508 436.246 996.527 443.012C992.399 451.956 989.188 461.817 986.78 472.022C982.308 491.63 981.047 512.155 980.359 531.304L980.244 533.483C979.786 546.784 979.327 560.544 975.199 572.928C972.447 580.954 966.714 591.16 959.948 596.549C957.426 598.498 954.215 599.874 951.004 599.874Z" stroke="#42D198" stroke-miterlimit="10"/>
<path d="M952.266 586.114C949.514 585.426 949.628 578.89 948.252 575.68C946.418 571.552 944.01 567.653 941.143 564.213C935.181 557.333 927.039 552.517 917.981 551.256C916.146 551.027 914.082 550.683 913.165 549.192C912.018 547.357 913.165 545.064 914.311 543.344C921.191 532.565 929.906 523.278 938.277 513.76C946.647 504.243 954.788 494.152 959.948 482.571C965.108 470.99 967.172 457.459 963.044 445.42C961.439 440.718 958.916 436.246 957.311 431.545C952.61 416.868 964.879 418.129 975.543 416.18C979.442 415.492 984.028 414.919 987.124 417.326C989.647 419.276 990.564 422.83 990.22 425.926C989.876 429.137 988.615 432.118 987.353 434.985C976.116 461.473 969.924 490.025 969.122 518.691C968.778 531.075 969.466 543.459 967.516 555.728C966.484 562.035 965.108 568.341 962.471 574.189C960.866 577.744 958.458 582.674 955.362 584.968C953.986 586 953.068 586.229 952.266 586.114Z" stroke="#42D198" stroke-miterlimit="10"/>
<path d="M953.183 566.163C952.954 566.163 952.839 566.163 952.61 566.048C951.234 565.475 950.775 562.608 950.087 561.461C948.711 558.939 947.106 556.531 945.271 554.352C942.404 551.141 938.735 548.848 934.951 547.013C932.429 545.752 925.09 544.376 924.746 541.051C924.402 537.84 929.333 534.744 931.053 532.565C933.805 529.24 936.557 525.915 939.423 522.704C940.57 521.443 941.716 520.182 942.863 518.92C947.908 513.187 952.495 507.11 956.508 500.688C958.458 497.592 961.095 494.038 962.127 490.598C962.586 488.993 962.012 483.374 964.65 483.374C966.484 483.374 960.98 509.747 960.751 511.926C959.719 519.608 960.407 527.864 959.948 535.661C959.49 543.573 958.802 551.485 957.884 559.397C957.655 561.003 957.426 562.723 956.623 564.099C955.935 564.901 954.444 566.277 953.183 566.163Z" stroke="#42D198" stroke-miterlimit="10"/>
<path d="M950.775 550.797C949.628 551.371 948.711 549.651 948.482 548.619C946.876 543.344 942.29 542.083 937.818 539.904C937.13 539.56 936.442 538.987 936.213 538.299C935.525 536.693 937.015 535.203 937.932 534.056C939.308 532.451 940.57 530.731 941.831 529.126C943.207 527.52 944.468 525.8 945.844 524.195C946.532 523.278 947.45 522.475 948.138 521.443C948.826 520.64 949.284 519.608 949.972 518.691C950.316 518.232 950.89 517.888 951.348 517.888C952.266 517.888 953.068 518.806 953.183 519.838C953.298 520.87 952.839 521.787 952.724 522.704C952.61 523.851 952.61 524.998 952.61 526.144C952.495 528.552 952.495 530.96 952.38 533.368C952.151 538.184 952.036 542.885 951.922 547.701C951.922 548.619 951.807 549.651 951.234 550.224C951.234 550.568 951.004 550.683 950.775 550.797Z" stroke="#42D198" stroke-miterlimit="10"/>
<path d="M695.529 728.07C692.892 719.929 683.145 714.081 684.636 705.596C685.209 702.271 687.503 699.519 688.993 696.423C691.86 690.575 691.631 683.236 688.305 677.618C684.98 671.999 678.673 668.215 672.137 667.986C660.671 667.527 651.154 676.7 639.916 678.994C615.607 684.039 593.133 656.29 569.053 662.138C552.885 666.036 544.285 683.122 532.475 694.817C518.256 709.036 485.003 708.348 477.779 729.332C475.944 734.721 476.518 741.601 481.334 744.582C484.086 746.302 487.64 746.302 490.851 746.073C519.976 744.009 548.642 728.185 576.965 735.18C586.941 737.588 595.999 742.748 605.631 746.646C624.895 754.444 646.223 757.081 666.863 754.673C674.316 753.756 681.999 752.15 687.961 747.678C693.924 743.206 697.823 735.18 695.529 728.07Z" stroke="#42D198" stroke-miterlimit="10"/>
<path d="M651.842 749.857C636.591 749.857 621.34 746.876 607.695 741.372C604.714 740.225 601.733 738.849 598.866 737.473C592.33 734.492 585.68 731.396 578.341 729.676C573.066 728.415 567.677 727.727 561.829 727.727C548.528 727.727 535.227 731.052 522.384 734.262C511.835 736.9 500.942 739.652 490.392 740.34C489.475 740.454 488.787 740.454 488.099 740.454C486.379 740.454 485.118 740.225 484.315 739.766C482.251 738.505 482.136 734.262 483.168 731.166C486.608 721.42 498.075 717.177 510.344 712.705C519.861 709.265 529.837 705.596 536.488 698.831C540.157 695.161 543.483 691.148 546.578 687.25C553.802 678.306 560.682 669.935 570.314 667.642C572.149 667.183 573.984 666.954 575.818 666.954C584.303 666.954 592.903 671.082 602.191 675.554C612.167 680.37 622.602 685.3 633.724 685.3C636.132 685.3 638.655 685.071 640.948 684.612C646.338 683.466 651.154 681.058 655.855 678.764C661.129 676.127 666.175 673.604 671.105 673.604C671.335 673.604 671.564 673.604 671.793 673.604C676.38 673.834 680.852 676.471 683.26 680.484C685.553 684.498 685.783 689.658 683.719 693.786C683.375 694.588 682.801 695.391 682.343 696.193C680.967 698.487 679.361 701.124 678.788 704.449C677.527 711.903 681.884 717.636 685.324 722.223C687.273 724.745 689.108 727.268 689.911 729.561C691.401 734.377 688.305 739.881 684.292 742.862C679.017 746.761 671.793 748.137 665.946 748.71C661.474 749.628 656.658 749.857 651.842 749.857Z" stroke="#42D198" stroke-miterlimit="10"/>
<path d="M651.842 738.734C641.178 737.588 630.399 737.588 620.309 733.001C608.613 727.727 596.687 722.796 584.189 719.929C568.136 716.26 550.821 716.031 535.685 722.337C532.933 723.484 530.296 724.86 527.315 725.319C516.88 726.809 520.893 718.553 526.741 715.687C532.589 712.705 539.928 712.132 544.744 707.316C548.757 703.303 552.312 699.06 555.637 694.932C559.192 690.575 563.205 683.695 568.136 681.172C574.672 677.847 584.074 680.14 590.495 682.663C598.751 685.988 606.319 691.034 614.69 694.13C630.17 699.748 648.287 697.569 662.047 688.396C663.652 687.364 665.258 686.103 667.092 685.759C668.927 685.415 671.22 686.103 671.908 687.823C672.367 688.97 672.023 690.346 671.793 691.607C669.844 699.289 665.372 708.233 668.583 715.916C671.105 722.108 678.903 729.217 674.889 736.441C672.023 741.601 666.289 741.486 661.244 740.34C658.034 739.422 654.938 739.078 651.842 738.734Z" stroke="#42D198" stroke-miterlimit="10"/>
<path d="M662.506 730.249C661.932 731.511 660.9 732.428 659.295 733.001C654.938 734.492 648.402 730.593 644.159 729.447C635.788 727.268 627.303 724.975 618.933 722.796C602.535 718.439 586.138 714.196 569.626 709.839C566.301 708.921 562.517 707.775 561.141 704.564C559.65 701.009 561.944 696.996 565.04 694.703C574.213 687.479 587.744 690.575 598.293 695.506C608.957 700.436 619.735 706.972 631.316 705.825C637.623 705.137 644.044 702.271 650.122 704.105C655.282 705.596 658.951 710.412 660.556 715.457C662.162 719.241 664.57 726.121 662.506 730.249Z" stroke="#42D198" stroke-miterlimit="10"/>
<path d="M1.57257 294.405C21.0657 310 41.5909 326.167 66.1293 330.754C96.6304 336.373 129.998 323.301 158.206 336.373C162.449 338.322 166.576 340.959 169.328 344.858C177.584 356.668 169.902 374.786 178.502 386.367C184.579 394.508 196.046 395.769 206.136 395.311C216.227 394.737 226.891 393.017 235.949 397.489C248.562 403.567 253.378 418.703 262.552 429.366C273.101 441.75 289.269 447.484 303.831 454.708C318.394 461.932 333.186 472.71 336.396 488.763C337.887 496.446 336.511 504.472 337.199 512.384C338.804 529.584 350.5 544.261 363.687 555.613C376.873 566.851 391.895 575.909 403.934 588.408C415.974 600.906 424.918 618.221 421.478 635.191C418.956 648.263 409.782 658.813 400.838 668.559C381.689 689.543 360.935 710.871 333.988 719.7C315.527 725.663 295.461 725.319 276.77 730.364C257.965 735.409 239.045 748.71 237.096 768.089" stroke="#42D198" stroke-width="2" stroke-miterlimit="10"/>
<path d="M172.998 27.9219C179.878 44.0897 190.771 58.4229 204.531 69.4309C216.685 79.1774 230.789 86.2867 242.944 95.9186C255.098 105.551 265.762 118.852 266.794 134.446C267.138 140.294 266.221 146.257 266.909 151.99C269.776 174.465 296.034 186.161 305.322 206.915C314.954 228.358 304.29 253.928 311.055 276.402C316.1 293.144 330.663 308.165 327.452 325.365C325.044 338.093 314.037 346.807 309.679 358.618C306.698 366.644 306.813 388.889 321.604 379.028C324.586 377.079 326.65 373.983 328.255 370.772C332.727 362.516 335.594 354.26 345.799 351.852C352.564 350.247 359.788 351.279 366.668 352.082C385.359 354.031 406.113 347.61 417.924 332.359C428.014 319.173 431.11 300.597 444.297 290.621C453.47 283.741 465.625 282.365 475.715 277.09C507.936 260.235 507.248 220.56 513.555 189.944C519.517 161.393 558.733 155.086 574.098 133.3C580.864 123.668 582.01 110.711 578.8 99.3586C575.589 88.0067 568.594 78.0308 560.224 69.6602" stroke="#42D198" stroke-width="2" stroke-miterlimit="10"/>
<path d="M1039.07 23.2206C1015.45 17.258 990.793 31.9352 976.345 51.6577C962.012 71.2655 955.247 95.3453 946.532 118.049C937.818 140.753 925.778 163.801 904.909 176.414C899.29 179.854 893.098 182.491 887.824 186.505C883.237 190.059 879.568 194.646 874.752 197.856C862.024 206.342 844.709 203.131 831.293 195.792C817.992 188.339 807.099 177.331 794.142 169.19C777.859 158.985 758.481 153.595 739.332 154.169C729.356 154.398 719.036 156.347 711.009 162.195C702.868 168.043 697.479 178.249 699.543 187.995C702.753 202.787 721.788 213.91 717.201 228.357C714.22 238.104 702.295 241.544 695.529 249.227C683.145 263.331 692.089 285.92 705.046 299.45C718.004 313.095 735.089 324.333 740.707 342.221C747.587 364.236 734.516 387.169 721.902 406.548C717.086 414.001 711.812 421.684 703.785 425.468C693.121 430.398 680.393 426.614 670.303 420.537C660.212 414.46 651.498 406.204 640.948 400.929C633.036 397.031 621.226 396.343 617.786 404.369C615.493 409.644 618.589 416.18 623.29 419.505C627.991 422.83 633.954 423.862 639.687 424.78C670.417 429.71 703.556 436.246 723.966 459.753C742.084 480.622 765.131 467.665 783.478 451.612C800.678 436.59 809.392 404.369 836.683 404.484C850.099 404.599 863.514 413.887 876.701 416.983C887.48 419.62 898.487 422.028 908.119 427.646C917.751 433.265 925.893 442.553 926.925 453.561C928.759 471.449 909.495 501.835 898.029 514.792C886.218 528.094 869.362 536.808 871.082 557.333C871.656 563.984 875.784 567.309 878.765 573.043C882.09 579.578 883.466 586.802 886.677 593.453C900.437 622.349 931.167 639.778 922.797 676.242C915.458 707.775 884.154 723.713 864.89 747.105" stroke="#42D198" stroke-width="2" stroke-miterlimit="10"/>
<path d="M409.897 740.798C413.108 718.783 424.918 694.817 446.705 690.116C463.446 686.561 480.646 695.735 497.616 693.556C515.848 691.263 529.723 676.815 543.712 664.89C557.701 652.964 576.736 642.415 593.706 649.524C603.567 653.652 611.135 663.399 621.799 664.431C627.762 665.004 633.724 662.711 639.228 660.188C647.599 656.404 655.97 651.932 665.028 650.327C674.087 648.607 684.292 649.983 690.943 656.519C702.065 667.527 697.708 685.988 699.772 701.468C701.607 715.801 709.977 729.217 722.017 737.244" stroke="#42D198" stroke-width="2" stroke-miterlimit="10"/>
</g>
</svg>
