<?xml version="1.0" encoding="utf-8"?>
<!-- Generator: Adobe Illustrator 24.2.3, SVG Export Plug-In . SVG Version: 6.00 Build 0)  -->
<svg version="1.1" id="Layer_1" xmlns="http://www.w3.org/2000/svg" xmlns:xlink="http://www.w3.org/1999/xlink" x="0px" y="0px"
	 viewBox="0 0 1152 942" style="enable-background:new 0 0 1152 942;" xml:space="preserve">
<style type="text/css">
	.st0{fill:#E9F3EF;}
	.st1{opacity:0.15;}
	.st2{fill:none;stroke:#42D198;stroke-miterlimit:10;}
	.st3{fill:none;stroke:#42D198;stroke-width:2;stroke-miterlimit:10;}
</style>
<rect class="st0" width="1152" height="942"/>
<g class="st1">
	<path class="st2" d="M535.1,824.6c-6.8,0-13.6-1.2-19.7-3.6c-19.2-7.5-34.3-25.4-40.3-47.9c-2.3-8.6-3.4-17.6-4.4-26.5
		c-2.1-17.3-3.9-33.4-14.8-44.2c-5.5-5.5-12.9-9-20.8-12.6c-7.5-3.5-15.4-7.2-22.1-13c-15.2-13.2-19.2-31.3-23-48.8
		c-2.1-9.1-3.9-17.7-7.3-25.6c-3.2-7.4-8.3-13.2-13.6-19.4c-9-10.4-19.2-22.2-18.3-41.8c1-22.1,16.2-42.9,37.1-50.4
		c10.2-3.6,21-4.3,31.3-4.7c11.5-0.6,22.5-1.1,31.7-5.8c12.6-6.3,20.9-19.6,28.8-32.4c1.1-1.7,2.2-3.5,3.3-5.2
		c9.1-14.3,20.9-22.2,32.3-29.9c8.7-5.8,16.9-11.3,24.1-19.4c10.8-12.5,23-32.7,19.1-58.1c-0.2-1.2-0.4-2.4-0.6-3.8
		c-1.2-7.2-2.7-15.2,0.5-23.1c6.1-15.3,15.4-18.5,22.2-18.5c20,0,39.9,27.8,45.4,36.3c6.7,10.2,11.4,20.2,12.5,26.5
		c4.7,26.2-1.3,52.7-7.8,75.1c-2.1,7.4-3.9,15.8-5.8,24.7c-6.4,30-13.7,63.9-38,81.3c-9,6.3-19.2,9.5-29,12.5
		c-8.3,2.6-16.2,5-23,9.1c-17.5,10.6-26.7,33.3-21.4,53.1c0.5,1.6,1,3.2,1.5,4.9c1.6,5,3.4,10.6,3,16.6c-0.6,9.6-6.4,17-11.5,23.6
		c-3,3.9-5.8,7.4-7.7,11.3c-6.1,12.9,0.4,28.7,9.8,37.5c9.2,8.7,22.8,14.3,41.3,17.3c3.2,0.5,6.4,0.9,9.7,1.3
		c8.7,1.1,17.9,2.2,26.6,5.1c14.9,4.9,25.9,14.5,30.3,26.2c2.8,7.8,2.2,16.9-1.6,24.4c-3.3,6.4-8.6,11.1-15.1,12.9
		c-2.4,0.7-4.7,1-6.8,1.2c-2.3,0.2-4.4,0.5-6,1.2c-3.2,1.3-5.5,5-7.9,8.9c-1,1.6-1.9,3.2-3.2,4.6C567,817.3,551.8,824.6,535.1,824.6
		z"/>
	<path class="st2" d="M620.8,329.4c-16.2-24.5-44.5-50.7-57-18.8c-2.9,7.4-0.7,15.7,0.5,23.6c3.6,23.7-5.1,45.3-20.5,62.9
		C526.4,417,503,422,488,445.6c-9.6,15.1-18.6,31.8-34.5,39.9c-19.4,9.7-43.4,3.5-63.8,10.9c-18.6,6.7-32.2,25.3-33,45
		c-1.2,27.6,22.1,36.9,31.5,58.6c10.3,23.8,7.7,53.9,28.7,72.3c12.6,11.1,31.2,14,43.1,25.9c18.3,18.2,14,48.4,20.8,73.4
		c5.1,19.1,18.3,36.6,36.7,43.7c18.3,7.2,41.7,2.3,53.3-13.7c4.1-5.6,7.2-12.8,13.5-15.6c4.3-1.8,9.1-1.5,13.6-2.7
		c11.5-3.3,16.8-18.1,12.6-29.4s-15.1-18.8-26.4-22.5c-11.4-3.8-23.5-4.4-35.4-6.2c-16.2-2.4-32.6-7.5-44.5-18.8
		c-11.9-11.2-18.1-29.8-11.2-44.6c5.3-11.5,17.7-20,18.6-32.7c0.5-6.7-2.6-13-4.3-19.6c-6.1-22.2,4.4-48,24.1-59.9
		c16-9.6,36.5-10.6,51.6-21.4c29.4-20.9,32.3-70.6,41.6-102.5c6.8-23.6,11.9-48.2,7.7-72.4C631.5,348.1,627.2,338.8,620.8,329.4z"/>
	<path class="st3" d="M535.1,806.4c-4.5,0-9.1-0.9-13.1-2.4c-13.6-5.3-24.9-19-29.4-35.6c-1.9-7.3-2.9-15.3-3.9-23.8
		c-2.2-18.6-4.6-39.7-20-55c-7.8-7.8-17.4-12.1-25.9-16.2c-6.7-3.2-13.1-6.1-17.9-10.2c-10.7-9.2-13.6-23.1-17.1-39
		c-2.1-9.6-4.3-19.4-8.4-28.9c-4.3-10-10.8-17.5-16.5-24.2c-9.2-10.7-14.5-17.4-14-29.2c0.6-14.7,11.2-29,25-34
		c7.7-2.8,16.6-3.3,26.1-3.8c12.9-0.6,26.2-1.3,39-7.8c17.1-8.6,27.2-24.8,36.1-39.1c1.1-1.7,2.1-3.4,3.2-5.1
		c7-11.1,16.3-17.3,27.1-24.4c9.4-6.2,19-12.6,27.7-22.6c19.2-22.1,27.3-47.3,23.3-72.8c-0.2-1.3-0.5-2.7-0.7-4
		c-1-5.2-1.8-10.2-0.6-13.2c0.6-1.7,2.9-7,5.3-7c5.8,0,18.7,10.4,30.3,28.1c6.3,9.7,9.4,17.1,9.8,19.7c4,22.5-1.5,46.4-7.3,66.8
		c-2.3,8-4.1,16.6-6.1,25.9c-5.7,26.7-12.3,57-30.7,70.2c-6.6,4.6-14.9,7.3-23.9,10c-9,2.8-18.2,5.6-27,10.8
		c-15.2,9.1-26,24.8-30,42c-1.9,8.6-2.6,18.3-0.6,27.1c2.4,10.3,3.5,22-0.7,32.4c-5,12.3-15.4,18.6-15.9,33
		c-0.5,15.6,6.6,30.7,17.9,41.3c12,11.4,28.8,18.6,51,22c3.4,0.5,6.9,1,10.2,1.3c8.3,1,16,1.9,23.2,4.4c9.4,3,16.4,8.7,18.7,15.2
		c1.1,3,0.9,6.8-0.7,9.8c-0.6,1.1-1.8,3-3.9,3.6c-1,0.2-2.3,0.5-3.9,0.6c-3.2,0.4-7.2,0.9-11.3,2.7c-8.1,3.6-12.4,10.3-15.9,15.7
		c-0.8,1.3-1.7,2.7-2.6,3.8C555.7,801.9,546,806.4,535.1,806.4z"/>
	<path class="st2" d="M529.6,524.7c-6.3,0-12-1.6-17.9-3.3l-14-4.1c-2.6-0.7-8.4-2.4-11.9-8.3c-3.9-6.4-2.9-14.6,2.6-21.9
		c5.8-7.5,12.9-12.6,19.8-17.6c5.7-4.1,11.1-7.9,14.7-12.6c2.7-3.4,4.9-7.7,7-12.3c2.3-4.6,4.6-9.4,7.9-14
		c6.4-9.2,17.5-14.7,29.4-14.7c4,0,7.9,0.6,11.4,1.8c8.4,2.8,14.5,8.7,16.8,16.2c1.7,5.5,2.1,14.3-5.7,24.7c-2.8,3.6-5.6,7-8.3,10.2
		c-5.7,6.8-10.7,12.6-14.1,20.3c-0.6,1.2-1.1,2.4-1.7,3.8c-4.9,11.2-10.9,25.2-25.9,30.1C536.8,524.1,533.2,524.7,529.6,524.7z"/>
	<path class="st2" d="M574.9,429.5c-8.5-2.9-20.7-0.7-27.1,8.4c-6,8.5-9,18.7-15.4,26.9c-9.5,12-25,18-34.4,30.1
		c-1.8,2.3-3.4,5.6-1.8,8c1,1.7,3.2,2.4,5,2.9c4.6,1.3,9.4,2.7,14,4.1c6.8,2.1,14.2,4,21,1.7c11.1-3.8,15.4-16.6,20.3-27.3
		c6-13.2,15.3-21.6,23.7-32.8C588.5,440.4,583.5,432.4,574.9,429.5z"/>
	<path class="st2" d="M529.6,506.5c-7.7,0.6-16.4-3.2-23.7-4.7c-1.3-0.2-2.9-0.7-3.4-2.1c-0.6-1.6,1-3.2,2.3-4.3
		c10.8-8.5,23.8-16.2,32.4-27c3.9-4.9,6.6-10.2,9.1-15.4c2.1-4.1,4-8.1,6.6-11.7c4.4-6.2,23.4-12.4,25-0.6c0.6,4.6-3.2,8.6-6.4,12
		c-9.4,9.7-17,21-22.6,33.3c-2.4,5.3-4.5,11.1-8.5,15.3C537.3,504.8,533.5,506.2,529.6,506.5z"/>
	<path class="st2" d="M479.8,576.3c-9-19.2-84-79-86.8-30.5c-0.7,12.8,9.7,23.2,12.8,35.6c2.1,8,0.9,16.5,1.9,24.8
		c1.7,13.5,11.1,31.6,19.4,42.3c3.9,5,10,8.5,16.2,7.5c15.7-2.4,12-19.7,16.9-30c5.6-11.7,19.9-18.2,22.8-31.3
		C484.4,588.4,482.5,582,479.8,576.3z"/>
	<path class="st2" d="M441.3,650c-3.2,0-6.8-2.1-9.4-5.3c-7.7-9.8-16.6-27-18.2-39.2c-0.4-3-0.5-6.2-0.5-9.5
		c-0.1-5.2-0.2-10.6-1.6-16c-1.5-5.6-4-10.7-6.6-15.6c-3.3-6.3-6.4-12.3-6.1-18.2c0.7-12.9,6.9-12.9,10-12.9
		c20.2,0,59.3,32.7,65.4,45.6c2.8,6,3.6,10.6,2.8,14.5c-1.2,5.7-5.8,10.2-10.6,15.1c-4.4,4.4-8.9,9-11.8,14.9
		c-1.8,3.9-2.7,8.3-3.4,12.4c-1.7,9.5-2.9,13.2-9,14.2C442,650,441.6,650,441.3,650z"/>
	<path class="st2" d="M439.4,634.2c-5.3,1-10.7-9.1-11.8-13c-1.9-6.7-1.1-13.7-1.1-20.7c0-15.3-4.1-30.6-11.7-44
		c-1.1-1.9-2.3-3.9-2.7-6.1c-0.4-2.2,0.4-4.7,2.3-5.8c2.9-1.7,6.3,0.5,8.9,2.7c9.6,7.8,19.1,15.7,28.7,23.4
		c5.1,4.3,10.7,9.1,11.4,15.7c0.7,6.1-2.8,11.9-7,16.4c-4.3,4.5-9.2,8.3-12.6,13.4c-1.8,2.8-3.2,6.3-3.2,9.7c0,3,3,7.4-1,8.3
		C439.6,634.2,439.4,634.2,439.4,634.2z"/>
	<path class="st2" d="M438.6,603.2c-0.4,0-0.6-0.2-0.7-0.5c-0.1-0.4,0.1-0.9,0.2-1.3c1.2-2.6-0.1-6.3-0.6-9
		c-0.6-2.9-1.5-5.8-2.2-8.7c-0.6-2.4-1.3-4.9-1.6-7.4c-0.1-1.1-0.5-3.2,0.6-4c0.1,0,0.1-0.1,0.2-0.1c2.6-1.1,5.6,2.6,6.9,4.3
		c0.9,1.1,1.6,2.3,2.4,3.3c1.3,1.6,2.9,2.8,4.4,4.1c1.1,1,2.8,2.4,3,4c0.1,0.7-0.6,3-3.8,6.6c-1.2,1.2-2.4,2.4-3.9,3.8
		c-1.5,1.3-2.1,3.2-3.5,4.4c-0.4,0.2-0.7,0.5-1.1,0.6C438.8,603.2,438.7,603.2,438.6,603.2z"/>
	<path class="st2" d="M685.1,790.6c-12.9,0-26.6-8.5-34.7-21.6c-6-9.5-9-19.9-12-30.1c-1.1-3.8-2.3-7.5-3.5-11.3
		c-5.2-15.4-12.6-25.5-22-29.8c-4.1-1.9-9-2.8-14.7-2.8c-6.2,0-12.5,1-19.2,2.1c-3.4,0.5-7,1.1-10.6,1.5c-2.6,0.2-5.2,0.5-7.8,0.5
		c-20.4,0-35.1-8.4-39.5-22.5c-3.6-11.7,1.3-23.6,5.5-31.6c1-1.9,2.1-4,3.2-6c4.9-9.1,9.5-17.7,9.7-26.7c0.1-2.6-0.2-5.3-0.5-8.1
		c-0.5-4.4-1-9-0.2-13.9c2.9-19.7,23.8-30.9,43.3-33.2c2.3-0.2,4.7-0.6,6.9-0.9c10.1-1.3,19.7-2.4,28.4-2.4
		c25,0,40.1,10.6,50.1,35.5c2.6,6.2,4.5,12.6,6.4,18.8c2.7,8.3,5.1,16.2,8.6,23.6c9.2,19.4,26.5,36.9,49.9,50.8
		c1.8,1.1,3.6,2.1,5.5,3.2c11.4,6.6,23.2,13.2,30.5,25c5.3,8.7,6.2,21.1,2.1,30.6c-3.3,7.4-9,12.4-16.3,14c-1.8,0.4-3.8,0.6-6,0.6
		c-1.2,0-2.4,0-3.6-0.1c-1.1,0-2.1-0.1-3.2-0.1c-0.9,0-1.7,0-2.3,0.1c-8,0.9-14.3,7.8-21,15.2c-7,7.8-14.5,15.9-25.2,18.8
		C690.3,790.2,687.8,790.6,685.1,790.6z"/>
	<path class="st2" d="M763.2,713.7c-7.5-12.3-21.4-18.8-33.9-26.1c-21.9-12.9-41.6-30.5-52.4-53.3c-6.4-13.7-9.6-28.7-15.3-42.8
		c-15.7-38.9-42.2-32.8-79.1-28.3c-16.8,2.1-35.5,11.3-37.9,28.1c-1.1,7,1,14.1,0.7,21.3c-0.4,12.8-7.8,24.1-13.6,35.4
		c-4.3,8.4-7.9,18-5.1,27c4.7,15.4,24.8,19.7,40.8,17.7c16-1.8,33-6.9,47.8-0.2c13,6,20.5,19.7,25.2,33.3
		c4.6,13.6,7.4,27.9,14.9,40.1c7.7,12.1,22,21.6,35.8,17.9c19.1-5.1,27.5-32,47.1-34.1c4.9-0.5,9.8,0.6,14.6-0.4
		C767.1,746.2,770.8,726,763.2,713.7z"/>
	<path class="st2" d="M685.1,772.4c-6.6,0-14.5-5.3-19.3-13c-4.6-7.3-7.3-16.3-10.1-25.6c-1.2-3.9-2.3-7.9-3.8-11.9
		c-6.9-20.4-17.6-34-31.7-40.5c-6.6-3-13.9-4.5-22.2-4.5c-7.5,0-14.9,1.2-22.1,2.3c-3.4,0.5-6.7,1.1-9.8,1.5
		c-1.8,0.2-3.8,0.4-5.7,0.4c-8.9,0-19.9-2.6-22.1-9.6c-1.2-4,0.1-9.7,4.3-17.9c1-1.8,1.9-3.8,3-5.6c5.5-10.1,11.5-21.5,11.9-34.9
		c0.1-3.8-0.2-7.4-0.6-10.6c-0.4-3.4-0.7-6.7-0.4-9.2c1.1-7.3,10.8-15.8,27.3-17.9c2.4-0.2,4.7-0.6,7-0.8c10-1.2,18.6-2.3,26.2-2.3
		c15.2,0,25,3.8,33.2,24.1c2.3,5.6,4.1,11.4,6.1,17.5c2.7,8.5,5.5,17.3,9.5,25.9c10.8,22.7,30.5,43,57.2,58.7
		c1.8,1.1,3.8,2.2,5.7,3.3c9.8,5.6,19.2,10.9,23.9,18.7c2.3,3.8,2.7,9.7,1,14c-1.2,2.9-2.8,3.3-3.3,3.3c-0.5,0.1-1.2,0.1-2.3,0.1
		c-1,0-1.9,0-2.9-0.1c-1.2,0-2.6-0.1-4-0.1c-1.6,0-2.9,0.1-4.3,0.2c-14.9,1.6-24.3,11.9-32.6,21c-5.6,6.1-10.8,11.9-16.4,13.5
		C687.2,772.1,686.1,772.4,685.1,772.4z"/>
	<path class="st2" d="M619.6,597.8c-9-10.8-22.6-16.8-36.5-7.8c-6.7,4.4-7,13.9-10.8,20.9c-4.1,7.8-12.9,12.9-15.2,21.4
		c-2.3,8.9,3.4,18,10.3,23.9c4.6,4,7.7,3.9,13,2.2c5.3-1.7,9.6-2.2,15.4-1.7c12.9,1,25.4,4.9,38.4,4.1c4.7-0.2,10-1.6,12.3-5.7
		c2.6-4.6,0.1-10.2-2.3-14.8C636.6,626,630.1,610.4,619.6,597.8z"/>
	<path class="st2" d="M630.9,654.9c-11.7-0.4-23-3.2-34.5-4.1c-1.5-0.1-2.9-0.1-4.3-0.1c-9,0-18.2,5.8-25.4-2.8
		c-3.2-3.9-4.3-9.2-3-14.1c1.9-8.3,10.2-12.5,14.1-19.8c1.6-2.9,2.6-6,3.5-8.9c1.5-4.4,2.7-8.1,5.2-9.8c3.5-2.3,7-3.4,10.6-3.4
		c8.4,0,14.8,6.2,17.9,10c7.7,9.4,13.5,20.8,19,32c1.9,3.8,3.6,7.3,5.8,10.9c1.6,2.7,2.4,6.4,0.2,8.6c-1.6,1.6-4,1.8-6.2,1.8
		C632.9,654.9,631.9,654.9,630.9,654.9z"/>
	<path class="st2" d="M622.8,640.7c-0.7,0.8-1.9,1.3-3.2,1.5c-1.6,0.1-3.2-0.4-4.7-0.9c-6.9-1.9-14-2.9-21.1-2.8
		c-3.6,0-7.4,0.2-10.9,1c-2.3,0.4-6,2.3-7.3-0.9c-1.3-2.9,3-6.6,4.9-8.5c2.7-2.9,5.8-6.2,8.3-10.6c2.1-3.8,2.4-7.5,4.1-11.3
		c0.7-1.7,1.9-3.2,3.6-3.8c2.3-0.8,4.9,0.1,6.7,1.7c3.8,3.3,6.9,8.7,9.6,12.9c3.3,5.1,6.3,10.3,9.6,15.6c1,1.6,1.9,3.3,1.3,5
		C623.4,639.9,623.2,640.3,622.8,640.7z"/>
	<path class="st2" d="M607.2,630.6c-0.2,0.4-0.6,0.7-1.1,0.8c-0.5,0.1-1.1,0.1-1.6,0.1c-2.7,0-5.3-0.4-8-0.7
		c-0.6-0.1-1.3-0.1-1.8-0.6c-0.6-0.5-0.8-1.2-0.6-1.9c0.2-1,1.6-1.3,2.1-2.3c0.6-1.1,0.9-2.4,1.1-3.8c0.4-1.2,1.8-5.1,3.5-3
		c0.4,0.5,0.5,1.1,0.7,1.6c0.8,2.8,2.6,5.3,4.6,7.3c0.6,0.6,1.3,1.3,1.2,2.2C607.4,630.3,607.4,630.5,607.2,630.6z"/>
	<path class="st2" d="M701.8,693.4c-8.1-2.7-16.2-6.8-23.8-10.8c-14.7-7.7-18.8,5.2-20.2,17.6c-0.9,8.5,0.1,17.1,3.2,25.2
		c2.8,7.7,11.1,14.1,11.7,22.2c0.2,3.9-0.4,9.4,3.5,10.2c3.2,0.7,5.3-2.9,7.5-5.5c4.5-5.1,11.9-6,18.3-8.1
		c11.5-3.9,21.4-14.3,21.9-26.5C724.2,706.5,713.8,697.3,701.8,693.4z"/>
	<path class="st2" d="M683.1,737.1c-0.1,0-0.2-0.1-0.4-0.1c-3.3-1.5-4.5-6.7-6.4-9.5c-1.6-2.3-3.3-4.6-3.9-6.3
		c-2.7-7.4-4.6-17-1.8-24.7c2.2-6.2,9.4,0.9,13.2,2.7c4.6,2.2,9.4,4.3,14.3,5.8c7.8,2.6,13.9,7.9,13.6,12.3
		c-0.2,6.3-6.1,13-13.6,15.6c-1.2,0.4-2.7,0.9-4.1,1.2C690.7,734.8,686.6,738.3,683.1,737.1z"/>
	<path class="st2" d="M685.5,730c-2.8-0.6-2.8-4-4.3-6c-1.1-1.5-2.8-4-3.2-5c-1.2-3.3-2.1-6.7-2.6-10.2c-0.1-1.3-0.9-5.6,0.6-6.4
		c1.5-0.9,8.3,3.6,9.8,4.3c4.5,1.8,9.1,3.8,13.6,5.6c2.2,0.8,4.5,1.9,5.2,4.1c0.6,1.7,0,3.6-1.1,5.1c-1.1,1.5-2.7,2.4-4.4,3.3
		c-3,1.7-6.1,3.2-9.2,4.4c-1.5,0.6-3,1.1-4.6,0.7C685.6,730,685.5,730,685.5,730z"/>
	<path class="st2" d="M931.2,733.5c-14.2-16-24.2-40.3-12.5-58.2c5.7-8.9,15.6-14.1,23.7-20.7c22.2-17.9,33.8-50.4,21.9-76.3
		c-12-25.9-50.3-37.2-71.3-17.9c-13,12-16.2,21.7-32.8,26.7c-12.6,3.8-29.4,3.3-35.8,17.4c-4.3,9.4-2.4,23.8-12.4,26.7
		c-2.8,0.8-5.8,0.2-8.6-0.6c-26.1-7.4-42.9-32.6-66.3-46.3c-8.6-5-18.8-8.5-28.6-6.3c-9.7,2.3-18.1,11.9-16,21.7
		c1.9,9.2,11.3,14.3,18.5,20.5c14.5,12.6,20.8,32.2,33.4,46.5c11.8,13.5,28.4,21.7,42.2,33.3c43.1,35.8,9.4,88.6-42,75.9
		c-2.9-0.7-6-1.7-9-1.5c-22,1.8,16.2,20.3,17.3,23.2c2.9,7.3,2.3,15.4,4.3,23.1c3.6,14.1,16,24.5,29.6,29.9
		c13.6,5.3,28.3,6.3,42.9,7.5c26,2.3,49.5,13.4,75.8,12.3c23.6-1,48.1-10.2,62-29.4c12.3-16.9,14.5-40.5,5.7-59.4
		C963.8,762.4,945.3,749.4,931.2,733.5z"/>
	<path class="st2" d="M911.2,857.9c-2.2,0.2-4.4,0.5-6.7,0.5c-13.5,0.6-26.6-2.6-40.5-5.8c-10.8-2.6-21.9-5.2-33.8-6.3l-2.6-0.2
		c-13.2-1.1-25.8-2.2-36.9-6.6c-11.7-4.5-19.9-12.6-22.2-21.6c-1.8-7-6.1-16.8-2.2-24.4c5.8-11.4,19.6-7.8,28.8-14.1
		c10-6.8,17.6-16.8,21-28.3c6.2-21.1-1.9-43.6-22.1-60.4c-5.6-4.6-11.5-8.7-17.1-12.6c-8.9-6.1-17.3-11.9-23.7-19.2
		c-4.7-5.5-8.6-11.9-12.8-18.8c-6-10.1-12.1-20.4-21.9-28.9c-1.8-1.6-3.6-3-5.5-4.5c-4.1-3.3-8.5-6.7-9.1-9.5
		c-0.5-2.3,2.8-6.4,6.9-7.4c0.5-0.1,1.1-0.2,1.6-0.2c5-0.6,11.2,1.2,18.1,5.2c8.4,4.9,16,11.7,24.1,18.7
		c13.1,11.5,26.7,23.6,45.1,28.8c3,0.8,7.2,1.8,11.8,1.2c1.2-0.1,2.4-0.4,3.5-0.7c13.6-4,16.4-17.4,18-25.5c0.6-2.9,1.2-6.1,2.1-7.9
		c2.2-4.7,7-6.2,17.9-8.3c3.4-0.7,6.9-1.5,10.4-2.4c14.9-4.5,21.9-12.4,28.6-19.9c2.7-3,5.5-6.2,9-9.5c3.8-3.5,8.6-5.6,14.3-6.3
		c15.1-1.8,31.6,7.2,37.8,20.3c4.4,9.5,4.9,21,1.3,32.6c-3.5,11.4-10.6,21.9-19.7,29.3c-2.1,1.6-4.1,3.2-6.4,4.9
		c-6.8,4.9-14.5,10.4-19.9,18.7c-10,15.3-12.3,43.6,13.6,72.9c4.9,5.5,10,10.4,15.1,15.3c10.1,9.7,19.6,18.8,24.8,30
		c6.9,14.9,5.1,33.9-4.5,47.1C947.9,846.8,931.2,855.5,911.2,857.9z"/>
	<path class="st2" d="M907.6,846.6c-9.7,0.4-19.7-1.2-29.4-2.7c-22-3.5-43.9-7-65.9-10.6c-8.3-1.3-23.9-6.1-30.1-11.7
		c-4.6-4-6.2-12.2-1.6-16.2c2.4-2.2,6-2.7,9.2-3.4c19.7-4.3,34.6-20.7,39.6-39.9c5.8-22.7-1.6-47.4-15.4-66.2
		c-11.1-14.9-32.3-26.1-47.1-37.3c-1.9-1.5-3.9-2.9-4.9-5.1c-1-2.2-0.5-5.2,1.6-6.3c2.9-1.5,6,1.2,8.3,3.5
		c14.7,14,39.5,13.2,56.4,3.5c10.1-5.8,13.7-15.2,21.1-23.4c3.8-4.3,8.6-7.4,13.2-10.6c12.6-8.5,25.3-16.9,37.8-25.4
		c8.3-5.5,18.1-11.3,27.5-8.1c8.7,3,13.4,13.5,12.1,22.7c-1.2,9.2-7.2,17.1-13.9,23.6c-6.7,6.4-14.5,11.8-21,18.3
		c-12.6,12.8-20.3,30.3-21.3,48.1c-0.9,17.9,5,36.1,16.3,49.9c9.6,11.9,22.8,20.5,33.2,32c10.3,11.3,17.9,27.5,12.6,41.9
		c-4.4,12.2-16.8,19.9-29.5,22.4C913.7,846.1,910.6,846.5,907.6,846.6z"/>
	<path class="st2" d="M921.4,827.9c-4.3,0.2-8.5-0.1-12.8-0.6c-25.5-2.8-50.9-5.5-76.4-8.3c-2.8-0.2-5.8-0.7-7.5-2.9
		c-2.1-2.6-1.3-6.6,0.7-9.1c2.1-2.6,5.1-4.1,7.9-6c28.1-17.6,32-53.5,22.6-82.6c-2.4-7.5-5.7-14.8-9.7-21.7
		c-3.5-6.3-25.6-17-8.3-24.9c3.3-1.6,7-1.7,10.7-2.6c10.7-2.8,15.7-14.8,22.2-22.5c6.8-7.9,15.3-14.2,23.9-19.9
		c7.5-5,20.3-9.5,25.9-16.3c1.7-2.1,3.2-4.4,5.3-5.8c2.2-1.5,5.6-1.6,7.2,0.5c1.1,1.5,1,3.6,0.1,5.3c-0.9,1.7-2.3,3-3.8,4.3
		c-13.2,11.8-28.1,22.6-37.8,37.5c-9,13.6-14.3,29.6-15.2,45.9c-1.1,22.2,6.3,45.1,20.3,62.3c6.3,7.8,13.4,14,20.2,19.9
		c5,4.4,9.6,8.4,13.6,12.8c8.4,9.2,15.2,25.2,0.1,32.2C928,827,924.8,827.6,921.4,827.9z"/>
	<path class="st2" d="M918.8,808.6c-2.9,0.4-6.4-0.1-8.5,0c-10.1,0.5-20,1.1-30.1,1.6c-7.5,0.4-16.3,1.6-23.7-0.1
		c-2.6-0.6-5-2.7-5.1-5.3c-0.1-2.8,3.2-5.6,4.6-7.9c2.3-3.9,4.4-7.9,6.1-12c2.9-7,4.7-14.3,6.2-21.9c0.9-4.5,2.2-16.2,8.1-16.8
		c7.9-1,8.9,16.3,12.5,20.9c8,10.6,18.3,19.9,28.6,28.2c2.4,1.9,4.9,4,5.8,6.9C925,806.7,922.3,808.2,918.8,808.6z"/>
	<path class="st2" d="M914.4,801c-0.5,1.2-2.2,1.6-3.6,1.6c-8.5,0.4-17.1,0.7-25.6,1.1c-6.7,0.2-13.6,2.6-20.5,1.8
		c-4.6-0.5-4.4-1.7-2.8-5.7c1.2-3,2.8-5.8,4.1-8.7c2.2-5.1,4-10.4,5.5-15.8c1-3.5,0.9-11.7,4.7-13.4c4.5-2.2,7.5,5.2,9.2,8.1
		c6.4,11.1,15.7,20.4,26.6,27.1C913.3,798,915,799.5,914.4,801z"/>
	<path class="st2" d="M889,793.9c-3.4,0.2-11.9,4-14.8,1.3c-3.3-3,0.5-8.9,2.2-11.7c3.8-6.1,7.9,1.9,10.9,5.1
		C888.3,789.5,892.8,793.6,889,793.9z"/>
	<path class="st2" d="M863.4,707c-5.5,2.6-4.7-10.8-7.8-16.2c-1.9-3.5-10.3-1.7-8.3-9c1.9-7.3,2.1-0.4,3.2-0.7
		c8.9-2.3,12.3-15.8,19.3-13.9c7,1.9-5.8,20.2-6.3,30.7C863.2,700.9,868.8,704.4,863.4,707z"/>
	<path class="st2" d="M989.7,761.2l-0.1,0.1c-1.8,1.7-2.3,4.5-2.1,6.9c1,9,7.2,18.2,10.4,26.5c3.9,9.7,7.3,19.7,10.2,29.6
		c6.1,20.7,14.1,46.8,11.1,68.5c-0.6,4.7-1.2,10.3,2.2,13.6c3.9,3.6,10.1,2.2,14.9-0.2c11.2-5.5,17.5-13.6,25.5-22.6
		c8.4-9.5,20.3-16.3,30.3-23.9c4.3-3.3,9-7.8,7.5-13c-1.3-5-7.4-6.6-12.5-7.8c-39.7-9.7-59.9-47.6-86.9-74.7
		C997.7,761.5,993.5,757.7,989.7,761.2z"/>
	<path class="st2" d="M1025.6,893.6c-0.5-3.2,0.5-6.8,0.5-9.7c0-6.8-0.6-13.5-1.7-20.2c-2.1-13-5.8-25.6-9.5-38.2l-0.8-2.9
		c-3.8-12.6-8.3-24.8-13.6-36.8c-0.5-1.2-1.1-2.7-0.4-3.8c2.6-3.8,14.7,7.4,16.3,9.5c9.2,11.1,18.6,22.2,29.5,31.7
		c12.1,10.6,24.7,15.9,39.5,21.3c1.8,0.6,3.5,1.8,4.4,3.6c1.2,2.7,0,6.1-2.2,8.1c-3.9,3.8-10.1,6.4-14.5,9.7
		c-5.6,4.1-11.1,8.5-15.8,13.7c-1,1.1-1.8,2.1-2.8,3.2c-4.6,5.2-10.3,12.8-16.5,16.2c-3,1.7-7.2,1.9-9.8-0.2
		C1026.5,897.3,1025.8,895.6,1025.6,893.6z"/>
	<path class="st2" d="M1031.5,872.1c-1.7-1-2.7-3.8-3-5.5c-1-5.5,2.2-10.8,1.3-16.3c-1.8-11.1-8.6-20.7-11.9-31.3
		c-0.5-1.6-1-3.2-0.9-4.7c0-1.6,0.6-3.3,1.8-4.4c4.7-3.9,9.2,4.1,11.2,7.2c3.6,5.6,9.1,9.8,14.9,13c5.4,2.9,11.1,4.4,16.5,6.8
		c3.8,1.7,5.1,5.7,0.7,7.8c-5.4,2.6-10,4.7-14.3,8.9c-1.9,1.8-3.8,3.9-5.5,6c-1.6,2.1-2.7,5-4.5,6.8c-1,1.8-2.8,6.1-5.2,6.2
		C1032.4,872.5,1031.9,872.4,1031.5,872.1z"/>
	<path class="st2" d="M223.1,904.6c-19.3,13.4-41.7,22.5-64.9,25.9c-47.3,7-81.5-11.3-121.1-33.3c-44.5-24.7-27.9-57.3-6.1-95.3
		c22.6-39.2,28.2-87.4,17.9-131.2C38.1,625.3-5,588.4,17.7,539.2c15.4-33.7,58.8-49.2,92.9-54.6c7.8-1.2,16.5-1.7,23.1,2.8
		c7.7,5.2,9.7,15.4,11.9,24.4c5.1,20.2,30.7,37.1,51.6,33.5c13.4-2.2,26.4-10.8,39.2-6.9c17.1,5.1,21.3,27.6,34.5,39.5
		c18.3,16.4,51.6,10.8,65.2,31.3c9.8,14.8,3.3,34.7,6.6,52.2c9,47.1,82.7,58.7,91.7,105.7c4.4,22.6-11.2,47.3-33.5,53.1
		c-33.7,8.7-75.5-32.7-104.1-8.7c-12.8,10.7-18.8,27.1-27,41.6C258.7,873.6,242.4,891.2,223.1,904.6z"/>
	<path class="st2" d="M138,919.9c-35.2,0-64.3-16.2-95.1-33.3C31,880,24.2,872.8,22,864.9c-4-14.5,6.4-34.3,19.6-57
		c23.6-40.8,30.5-91.9,19.1-140.1c-3.9-16.6-11.7-31.8-19.1-46.5c-13.6-26.7-25.4-49.8-12.9-77.2c15.8-34.5,68.2-45.2,83.8-47.6
		c3-0.5,5.5-0.7,7.5-0.7c3,0,5.2,0.5,6.7,1.5c3.3,2.3,5,9,6.6,15.4l0.5,2.1c6,23.3,32.4,43.1,57.7,43.1c2.6,0,5.2-0.2,7.7-0.6
		c5.5-1,10.6-2.6,15.4-4.3c5.5-1.8,10.7-3.5,14.9-3.5c1.3,0,2.4,0.1,3.5,0.5c5.7,1.7,9.8,8.6,14.7,16.6c4,6.7,8.6,14.3,15.2,20.3
		c10.6,9.5,24.1,12.9,36,15.9c12,3,22.4,5.7,27.1,13c4,6.1,3.9,14.8,3.6,24.9c-0.1,7.4-0.4,15.1,1.2,23
		c5.5,28.4,29.5,45.4,50.8,60.5c19.2,13.6,37.4,26.5,40.9,45.2c3.2,16.3-8.6,34.9-24.7,39c-2.2,0.6-4.5,0.9-7,0.9
		c-9.8,0-21-4-32.9-8.1c-12.9-4.6-26.2-9.4-39.5-9.4c-11.3,0-21.1,3.5-29.5,10.4c-11.7,9.7-18.2,22.6-24.5,35.1
		c-1.8,3.5-3.4,6.8-5.2,10c-10.3,18.5-25.3,34.9-43.3,47.4c-18.1,12.5-38.8,20.8-59.8,23.9C150.2,919.4,144.1,919.9,138,919.9z"/>
	<path class="st2" d="M138,900.9c-23.7,0.6-47.6-5.2-68.2-17.1c-9.5-5.5-18.6-12.6-23.3-22.5c-7.7-15.8-0.7-28.9,8.1-41.7
		c8.7-12.4,14.7-25.9,19.4-40.5c12-37.1,13.2-77.5,4.4-115.4c-4.5-18.8-12.6-35-20.7-50.5c-14.1-27.6-21-42.9-12.5-61.4
		c6-13.1,21-21.7,32.6-26.7c9.2-4,25-11.4,35.5-7.3c7.3,2.8,7.4,6.4,10,13c4,10.6,7,16.8,16.5,25c14.2,12.3,32.8,20.2,51.8,20.2
		c12.4,0,23-9.4,35.4-3.5c11.1,5.2,15.2,17.7,22.6,26.6c9,10.7,19.2,14.7,32.7,16.8c10.9,1.7,23.2,4.6,28.3,14.5
		c3.3,6.3,2.6,13.7,2.6,20.9c0.2,40.2,27.6,66.2,58.1,87.8c10.1,7.2,24.8,15.7,31,26.6c3.9,6.8,3.6,16.5-2.4,21.4
		c-6.1,4.7-14.8,2.9-22.4,0.9c-33.8-9.6-69.1-25.4-100,0.4c-20.7,17.3-26.4,42.8-42.2,63.2c-16.6,21.4-40.2,37.5-66.3,45
		C158.9,899.1,148.5,900.7,138,900.9z"/>
	<path class="st2" d="M134.5,895c-21.9,0-43.1-5.7-61.6-16.4c-10.6-6.2-17.5-12.6-20.9-19.9c-5.8-12.2-1.6-22.2,7.7-35.6
		c8.4-12,14.8-25.4,20.3-42.2c12.3-38,13.9-79.1,4.5-118.7c-4.6-19.6-13-36-21.1-51.9c-17.4-34-23.2-62.3,17.1-82.3
		c10.1-5,23.3-5.7,32.1,1.5c2.9,2.4,5.2,5.5,7.5,8.5c18.8,25.5,37.2,44.1,71.7,44.1c5.7,0,10.9-1.6,15.6-3c4-1.2,7.7-2.4,11.2-2.4
		c2.2,0,4.1,0.5,6.1,1.3c5.8,2.8,9.6,8.6,13.5,14.8c2.2,3.4,4.4,6.9,7,10.1c11.2,13.4,24.2,17,36.4,18.8c9.7,1.6,20.2,4,23.8,11.2
		c2.1,3.9,1.9,9.1,1.9,14.6c0,1.2,0,2.4,0,3.5c0.2,44.1,30.9,71.7,60.6,92.7c1.8,1.3,3.8,2.7,5.8,4c8.9,6.1,19,12.9,23.4,20.7
		c2.4,4.3,2.7,10.8-0.9,13.6c-1.5,1.1-3.4,1.7-6.1,1.7c-3.4,0-7.4-1-10.9-1.9c-4.3-1.2-8.6-2.6-12.9-3.8c-16.3-5-33-10.1-49.7-10.1
		c-16.5,0-30.5,5-43,15.4c-13.2,11.1-20.7,25.3-27.9,38.9c-4.7,9-9.1,17.5-15.2,25.2c-16,20.7-38.5,35.8-63.3,42.9
		c-9.5,2.7-19.4,4.1-29.4,4.5C136.8,895,135.6,895,134.5,895z"/>
	<path class="st2" d="M138.1,872.7c-17,0.1-34.4-3.6-50.3-11.7c-6-2.9-11.9-6.9-14.1-13.1c-1.8-5.2-0.6-11.1,2.1-15.9
		c4.1-7.5,22-39.2,25.2-49c11.3-34.9,14.1-72.3,8.7-108.5c-2.3-15.7-6.4-31.3-11.2-46.5c-4.1-13.4-15.2-22.2-21.4-34.6
		c-5.5-10.9-7.5-24.2-2.7-35.4c4.9-11.2,18-19.1,29.6-15.7c11.2,3.3,17.4,14.8,24.5,23.9c11.2,14.1,26.6,22.6,43.4,28.2
		c15.9,5.3,32.8-4.6,48.1,1.7c13.4,5.6,17.7,23.3,30.3,30.6c10,5.8,23.1,4,32.7,10.3c10.4,6.9,13.2,20.8,17,32.7
		c7.3,23.1,22,43.9,41.3,58.4c4.4,3.3,9.1,6.4,11.8,11.2c2.7,4.7,2.4,11.8-2.2,14.7c-7.8,5-19.7-4.5-27.7-5.8
		c-11.4-1.9-23.3-0.7-34.1,3.3c-25.4,9.2-43.7,35.7-55.9,58.8c-4.5,8.6-8.4,16-13.5,22.5C199.6,858.6,169.2,872.4,138.1,872.7z"/>
	<path class="st3" d="M137.2,855.2c-2.8,0.1-5.7,0.1-8.6-0.1c-8.4-0.5-17.5-2.8-22.6-9.5c-4.4-5.7-5-13.6-3.4-20.7
		c1.6-7,5-13.5,8.1-19.9c32.1-67.1,27-150.7-13-213.4c-2.6-4-5.3-8.1-6.7-12.8c-1.3-4.6-1-10.1,2.2-13.6
		c13.9-16,24.8,16.6,31.3,23.5c13.6,14.3,34.6,24.5,54.6,23.8c12.9-0.5,27-1.7,37.5,5.7c8.9,6.1,13.4,17.1,22.5,23
		c8.4,5.3,19.2,5.5,27.8,10.3c11.1,6.2,14.6,17.4,19.2,28.3c5.2,12.5,13.7,23.8,21,35.4c2.1,3.3,4.1,7,2.8,10.7
		c-3.2,8.6-19,6.3-25.9,8.3c-11.4,3-21.9,9.7-30.4,17.9c-12.9,12.3-22.1,27.8-31.5,43C202.8,825.9,174.6,853.6,137.2,855.2z"/>
	<path class="st2" d="M142.1,844.9c-9-1.2-13.9-8.5-8.9-20.7c7.4-18.2,15.2-35.4,19.4-54.8c5.1-23.8,6.3-48.4,4.3-72.5
		c-1.8-20.4-6.8-38.8-13-58.2c-1.1-3.4-2.1-7.5,0.4-10.2c2.7-3,7.7-1.9,11.5-0.6c10,3.4,17.4,8.4,27.9,8.1c12.5-0.2,23.6,0.7,34,8.5
		c7.4,5.6,13.1,13.4,20.9,18.3c7.4,4.6,16.3,6.4,23.8,11.1c12.8,7.9,35.1,33.9,24.4,49.3c-4.6,6.7-12.4,10.2-19.8,13.4
		c-11.1,4.6-23.1,11.1-30.3,21c-11.3,15.7-19.1,33.3-31.6,48.4c-13.4,16.2-30.1,30-49.8,37.1C150.5,844.9,145.9,845.5,142.1,844.9z"
		/>
	<path class="st2" d="M144.9,839.1c-0.7,0-1.3,0-2.1-0.1c-1.7-0.2-3.9-0.9-5-2.7c-1.2-2.1-0.9-5.6,0.8-9.7c1.2-3.2,2.6-6.2,3.8-9.2
		c6.3-15.3,12.4-29.9,15.9-46.5c5.1-23.7,6.6-48.7,4.4-74.4c-0.9-9.2-3.9-18-6.7-26.9c-2.2-6.8-9.5-23-6.2-30.1
		c3.5-7.5,24.4,2.7,32.9,2.7c0.2,0,0.6,0,0.9,0c1.1,0,2.2,0,3.3,0c10.3,0,18.8,1.2,27,7.3c2.9,2.2,5.7,4.9,8.5,7.7
		c3.9,3.8,7.9,7.8,12.8,10.8c4.3,2.7,8.7,4.4,13,6.2c3.9,1.6,7.5,3,10.8,5c8.1,5.1,21.4,19.1,23.9,31.2c0.9,3.9,0.4,7-1.3,9.6
		c-3.6,5.2-10.2,8.3-17.1,11.3c-10,4.3-24.3,11.2-32.8,23.1c-5,6.9-9.4,14.2-13.5,21.3c-5.6,9.5-10.9,18.5-17.7,26.7
		c-14.5,17.4-30.3,29.3-47.1,35.2C150.4,838.5,147.5,839.1,144.9,839.1z"/>
	<path class="st2" d="M165.3,810.3c-6.9-3.6,8.4-23.6,11.1-35.7c5.5-25.4,7-52.2,4.6-79.6c-0.7-8.3-3-18-7.2-25.3
		c-1.7-2.9-2.7-6.9-0.2-9.2c2.1-2.1,5.5-1.5,8.1-0.7c7.3,2.2,14.7-0.8,21.4,4.1c1.9,1.5,4.1,3.6,6.7,6.1c4.4,4.3,9.2,9.1,15.9,13.4
		c5.7,3.5,11.2,5.7,16,7.7c3.3,1.3,6.1,2.4,7.9,3.5c4.7,2.9,14.6,9.1,11.9,15.9c-2.4,6.3-16.4,9.7-22,13.1
		c-8.6,5.2-16.5,11.7-22.5,19.9c-5.5,7.5-10,15.2-14.3,22.6c-5.5,9.2-10.2,17.3-16.2,24.4C180.5,797.8,172.3,813.9,165.3,810.3z"/>
	<path class="st2" d="M195.2,744.8c-2.8-0.2-4.1-2.4-5-5.1c-1.7-6.2,0.2-13.2,1.1-19.4c1.2-8.6,4.4-17,3.8-25.8
		c-0.2-4.5-1.8-7.8-4-11.4c-2.1-3.4-2.7-5.2,1.5-7.3c9.2-4.6,13.6,13.1,23.8,19.6c4.1,2.6,24.1,1.3,21.9,10.4c-0.2,1-1,1.7-1.7,2.3
		c-3,2.4-6.9,3.4-10.2,5.6c-3.5,2.3-7,5-10.3,7.8c-3.9,3.3-7.7,6.8-11.1,10.6c-1.7,1.8-3.6,3.8-4.9,5.8c-1.9,3.3,1.1,6.9-4.3,6.9
		C195.7,744.8,195.5,744.8,195.2,744.8z"/>
	<path class="st2" d="M513.8,345.2c-7.9-14.2-25.3-24.5-25-40.8c0.1-9.2,6.2-17.1,10.3-25.5c16.6-33.4-2.8-73.3-35-89.9
		c-17.5-9-36.5-4.4-53.5-12.5c-18.8-9-30.6-28.3-45.6-42c-11.2-10.2-24.5-17.9-38.9-22.5c-29.3-9.4-87.2-1.3-90.6,38.5
		c-1.1,12.3,4.9,24.5,13.9,32.9c21.5,19.8,72.3,26.5,66.6,67.4c-1.3,9.2-6.8,18.1-5.3,27.3c2.4,14.9,20.7,20.8,30.9,32
		c9.6,10.6,11.9,26,11.1,40.2c-0.7,14.2-4,28.4-3.4,42.6c0.7,18.7,8.7,37.8,24.1,48.7c15.2,10.9,37.8,12.2,52.2,0.2
		c14.5-11.9,20.2-34.7,38.2-40c7-2.1,14.7-0.9,22-1.7C509.8,397.3,525.5,366.4,513.8,345.2z"/>
	<path class="st2" d="M400.4,438.4c-7.2,0-14.5-2.3-20.2-6.4c-11.2-8.1-18.3-22.8-19-39.4c-0.2-7.7,0.6-15.6,1.7-23.8
		c0.7-5.7,1.5-11.7,1.7-17.7c1.1-21-3.6-37.5-14.2-49.1c-4.5-4.9-9.8-8.7-14.7-12.2c-7.8-5.5-12.5-9.2-13.2-13.6
		c-0.5-2.9,0.7-6.8,2.2-11.3c1.2-3.6,2.4-7.8,3.2-12.3c5.2-36.8-25.2-52.5-47.3-63.9c-9.1-4.7-17.6-9.1-23.1-14.1
		c-6.8-6.3-10.7-15.1-10.1-23c0.9-9.7,6.2-17.1,16.5-22.7c9.6-5.2,23.1-8.3,36.8-8.3c8,0,15.7,1.1,21.6,2.9
		c12.6,4,24.5,10.9,34.4,19.9c4.6,4.1,9,9.1,13.6,14.2c10,11.2,20.3,22.7,35,29.8c10.1,4.9,20.5,6,29.6,6.9c8.5,1,16.5,1.8,23.4,5.5
		c25.5,13.2,43.5,45.9,29.6,73.6c-0.9,1.7-1.9,3.5-2.9,5.5c-4,7-8.5,15.2-8.6,25.3c-0.2,15.1,9.4,25.9,17,34.5
		c3.8,4.3,7.3,8.3,9.5,12.3c3.5,6.4,3.3,15.1-0.9,23c-4,7.9-10.8,13.2-18.2,14.1c-2.2,0.2-4.6,0.2-7.3,0.4c-5,0-10.7,0.1-16.5,1.8
		c-14.9,4.4-23.1,16.5-30.4,27.1c-4,6-7.8,11.5-12.1,15.2C413.3,436.3,407.1,438.4,400.4,438.4z"/>
	<path class="st3" d="M388.3,419.8c-1.3,0.2-2.8,0.2-4.1,0c-11.3-2.2-16.3-18.1-16.6-27.9c-0.2-6.2,0.6-13,1.6-20.9
		c0.7-6.1,1.5-12.3,1.8-19.1c0.7-14.6-0.8-29.6-6.7-43.1c-6.4-14.9-18.7-22.5-29-33.8c-2.4-2.7-4.3-6.1-4.3-9.6
		c0-5.2,3.4-9.5,4-14.6c0.6-5.3-0.2-11.8-1.1-17.1c-2.2-13.5-8.9-25.6-18.3-35.4c-15.1-15.4-35.2-23.1-53.3-34.1
		c-3.9-2.4-8.1-5.6-8.4-10.1c-0.1-3.3,2.1-6.4,4.9-8.3c8.1-5.5,20.5-6.9,30-6.9c6.1,0,11.9,0.7,16,2.1c10.2,3.3,19.8,8.7,27.7,16
		c3.9,3.5,7.9,8.1,12.3,12.9c10.7,11.9,22.7,25.5,40.7,34.1c12.9,6.2,25.4,7.5,35.5,8.6c7,0.7,13.1,1.5,17.1,3.5
		c17.4,9,30.6,31.5,21.7,49.3c-0.6,1.3-1.6,2.9-2.6,4.6c-4.6,8.1-10.8,19.2-10.9,34c-0.1,10.8,3.2,20.7,8.5,29.9
		c1.8,3.2,3.5,6.8,6,9.4c3.4,3.6,8,5.3,10.8,9.7c3,4.6,3.3,11.5-0.9,15.2c-3.6,3.2-8.9,2.8-13.7,2.9c-19.3,0.5-38.2,11.1-48.5,27.3
		c-3.2,4.9-5.5,10.2-9.4,14.6C396.4,416.5,392.4,419.2,388.3,419.8z"/>
	<path class="st2" d="M386.6,398.9c-1,0-1.9-0.2-2.8-0.5c-8.1-3.3-7.4-14.2-7.2-17.9c0.4-5.5,1.9-10.4,3.5-15.3
		c1.3-4.4,2.7-8.5,2.9-12.5c1-18.3-1.6-34.6-7.7-48.6c-3-7-7.5-13.9-13.2-20.3c-1.2-1.3-3-2.9-5.1-4.5c-4-3.3-8.6-7-10.7-12.2
		c-2.2-5.2-1.1-10.1-0.2-14c0.4-1.5,0.6-2.7,0.7-3.9c0.5-5,0.2-10.6-0.9-17.4c-1.9-11.8-10.6-20.3-20.7-30.1
		c-2.2-2.2-4.5-4.4-6.7-6.7c-0.1-0.1-13.2-15.4-9.8-25.3c1.2-3.5,4.1-5.7,8-6.2c0.5,0,0.9-0.1,1.3-0.1c3.5,0,6.3,1.7,8,2.7
		c1.1,0.6,2.1,1.2,3.2,1.8c5.2,3,10.6,6.2,14.9,11.3c2.3,2.7,4.3,5.3,6.2,8.1c1.3,1.8,2.7,3.6,4,5.3c8.7,11.2,17,18.2,25.9,22.4
		c14.8,7,29,8.6,39.5,9.7c11.8,1.3,26.5,6.2,29.3,22.6c1.9,11.4-3.8,21.7-8.3,30c-4.6,8.5-6.3,15.4-6.4,26.6
		c-0.1,8.6,1.8,17.3,6.1,26.5c0.4,0.7,1.3,2.4,2.4,4c4.1,6.7,9.4,15.1,7.4,21.9c-0.7,2.8-2.7,5.1-5.3,6.4c-3,1.6-6.1,1.7-8.7,1.7
		h-1.5h-0.6c-6.9,0.1-14.7,4.1-23.7,12.5c-0.7,0.6-2.8,3.4-4.4,5.5c-6.1,7.9-10.7,13.6-15.1,15.7
		C389.3,398.6,387.9,398.9,386.6,398.9z"/>
	<path class="st2" d="M387.9,392.4c-0.7,0.4-1.5,0.5-1.9,0.2c-3.9-1.6-3.5-8.7-3.4-11.9c0.6-9.6,6-18.5,6.4-27.9
		c1-19.3-1.7-36.6-8.1-51.4c-3.5-8.1-8.5-15.4-14.3-22c-4.3-4.7-12.4-9.1-14.7-14.8c-2.1-5,0.5-10,1-15.1c0.6-6.2,0-12.8-1-19
		c-2.7-16.6-16.5-27.2-29-40.1c-2.3-2.3-14.5-20-5.3-21.3c1.9-0.2,3.8,0.9,5.5,1.8c6.1,3.6,12.2,6.7,16.6,11.9
		c3.5,4.1,6.6,8.9,10.1,13.2c7.7,9.7,16.6,18.8,28.1,24.1c15.7,7.5,30.5,9.1,41.3,10.3c10.9,1.2,21.7,5.2,23.9,17.6
		c1.6,9.1-3.2,18-7.7,26.1c-5.5,10.1-7,18.2-7.3,29.4c-0.1,10.2,2.4,19.8,6.6,29c2.3,5,14.9,20.5,7.3,24.4c-2.4,1.2-5.5,1-8.3,1
		c-10.6,0.1-20.3,7.2-27.7,14.1C402.9,375.2,393.2,390,387.9,392.4z"/>
	<path class="st2" d="M398.1,360.4c-0.5-0.4-0.8-1-1.1-1.9c-0.5-1.7,0.4-3.4,1.1-5c5.2-10.8,3.5-21.9,2.1-33.3
		c-1.3-10.2-3.9-20.3-8-29.6c-3-7-7.2-13.6-11.9-19.7c-4.5-5.6-12.2-9.6-15.4-15.9c-2.7-5.1-0.2-9.8,0.2-14.9c0.7-6.7-0.1-14-3.3-20
		c-0.8-1.7-2.1-3.5-1.6-5.5c0.2-1.3,1.5-2.6,2.8-2.9c5.1-1.1,12.2,9.2,16.3,11.8c12.4,7.4,26.9,8.3,40.9,9.8
		c14,1.6,14.9,6.9,15.4,9.6c1,6-3,13.2-6.6,19.8c-6.8,12.4-8.3,22.6-8.4,34c-0.1,7.5,1.1,14.8,3.2,22.1c1.6,5.7,11.3,16.5,10.3,21.9
		c-0.5,2.7-2.8,4.7-5.2,5.7c-3.5,1.3-7.3,0.8-10.8,2.2c-4.4,1.7-8.7,4.1-12.1,7.4C404.5,357,400.4,362.4,398.1,360.4z"/>
	<path class="st2" d="M414.1,339.6c-1-0.7-1.8-1.8-2.1-3.3c-2.9-16.6-2.9-32.7-9.8-48.7c-3-6.9-6.9-13.6-11.5-19.6
		c-2.3-3-4.9-5.8-7.5-8.5c-5.2-5.1-9.2-8.4-9-16.6c0.1-2.9,1.7-6.1,4.5-7c1.9-0.7,4.1-0.2,6.1,0.2c8.9,2.1,17.9,4.3,26.7,6.3
		c3.8,0.8,7.5,1.2,11.2,1.8c3.3,0.5,5.8,1.3,3.6,5.6c-7,14-13,27-13.9,42.9c-0.5,9.5,0.5,19.1,3.2,28.2c1.2,4.3,5,9.7,5.3,14
		C421.2,338.6,417.6,342,414.1,339.6z"/>
	<path class="st2" d="M1003.5,107.8c-8.5-14.6-22.1-25.4-36.3-34.4C893,26.2,799.3,20.2,712.3,32.8c-18.2,2.7-36.8,6.3-52.1,16.5
		c-18.5,12.4-30.1,34.4-30.1,56.7c0.1,40.2,47.8,61.6,46.3,99.3c-0.9,23.7-13.7,45.9-6.8,70c3.6,13,15.2,23.9,14.7,37.5
		c-0.5,15.9-16.8,26.5-23.1,41.1c-13.6,31.7,22.5,71,4.9,100.6c-5.5,9.1-14.8,14.8-22,22.6c-7.2,7.8-11.9,20-5.8,28.7
		c10.8,15.4,36.1-0.2,53.8,6.1c13.1,4.7,19,20.7,31.2,27.5c14.1,7.9,33,0.8,42.3-12.4c9.2-13.1,10.6-30.5,8.4-46.4
		c-1.8-13.4-6.1-26.7-14.3-37.4c-13.1-16.9-37.1-29.2-36.7-50.7c0.2-20.5,24.1-35.5,23.6-56c-0.4-20-23.7-34.5-23-54.4
		c0.4-7.8,4.5-15.1,10-20.7c23.7-23.8,64-15.2,93.9,0.1c29.9,15.3,60.1,36.3,93.4,32.6c30.1-3.4,56.1-29.9,58.9-60
		c1.6-16.8-3-34.6,4.4-49.7c5.3-10.7,15.9-18,21.7-28.4C1014.3,141.4,1011.8,122.5,1003.5,107.8z"/>
	<path class="st2" d="M739.8,530.6c-2.7,0-5-0.6-7-1.7c-3.6-2.1-7-6.1-10.7-10.3c-5.7-6.7-12.1-14.3-22.4-18
		c-4.4-1.6-9.1-2.3-14.7-2.3c-5.5,0-10.7,0.7-15.8,1.5c-4.1,0.6-8.1,1.1-11.4,1.1c-4.9,0-5.6-1.1-6.1-1.8c-1.7-2.4,0.6-8.9,4.9-13.5
		c2.2-2.4,4.9-4.7,7.7-7.2c5.5-4.7,11.5-10.1,15.9-17.5c11.9-19.9,5.5-41.7-0.2-61c-4.5-15.3-8.7-29.8-3.9-41.1
		c1.8-4.4,5.3-8.7,9-13.4c6.8-8.6,14.6-18.5,15.1-32.1c0.4-11.5-4.7-20.8-9.4-28.9c-2.4-4.4-4.7-8.5-5.8-12.4
		c-3.4-11.9-0.6-23.8,2.6-37.4c2.2-9.1,4.4-18.7,4.7-28.8c0.9-23.2-12.9-40.8-25-56.5c-10.9-14.1-21.3-27.3-21.3-43.4
		c0-18.1,9.7-36.5,24.8-46.5c13.6-9.1,31.5-12.3,47.1-14.6c25.5-3.8,50.5-5.6,74.4-5.6c67.8,0,125.6,14.9,172,44.3
		c10.1,6.4,24.3,16.5,32.3,30.3c7,12.2,8,26.4,2.4,36.1c-2.1,3.8-5.3,7.3-8.9,11.2c-4.6,5-9.7,10.7-13.2,17.9
		c-6.2,12.6-5.8,26.2-5.5,38.2c0.1,5.6,0.4,10.8-0.1,15.8c-2.3,24.3-23.9,46.4-48.2,49.1c-2.2,0.2-4.4,0.4-6.6,0.4
		c-21.5,0-42.3-11.3-64.3-23.2c-5.1-2.8-10.4-5.7-15.8-8.4c-20.4-10.4-41.8-16.2-60.1-16.2c-19.3,0-36,6.3-47.9,18.3
		c-8.3,8.4-13.1,18.5-13.5,28.7c-0.6,14.2,6.9,25.3,13.5,35.1c4.9,7.2,9.4,14,9.5,20.2c0.1,6.6-4.4,13.4-9.7,21.3
		c-6.4,9.6-13.7,20.5-13.9,34.3c-0.2,20,13.7,33,26,44.6c5,4.7,9.7,9.1,13.2,13.7c6.1,7.9,10.1,18.5,11.9,31.6
		c1.6,11.1,1.7,26.5-6.2,37.8C754.9,526.3,746.8,530.6,739.8,530.6z"/>
	<path class="st2" d="M737.7,525.5c-2.8-0.9-4.9-3.9-7.2-6.6c-5-5.8-10-11.5-16.2-16c-8.7-6.4-16.3-7.8-26.9-9.2
		c-2.6-0.4-5.3-0.8-7-2.8c-2.1-2.4-1.7-6.2,0-8.9c3.4-5.2,7.4-6.9,9.8-13.1c3-7.5,4.5-15.3,4.3-23.5c-0.5-16.5-6.7-32.3-11.3-48
		c-3.8-13-2.6-26.5,0.4-33.3c1.2-2.8,4.4-6.8,7.5-10.8c5.1-6.4,6.9-15.7,11.4-22.7c3.6-5.7,10.7-10,15.2-2.8
		c4.7,7.5-1.7,14.8-5.7,20.8c-7.7,11.5-10.8,25.8-10.9,45.2c-0.2,17.7,5.5,38.2,18.3,51.2c11.2,11.2,22.6,22.7,27.9,37.9
		c3.5,10.1,7.5,34.1-3.6,41.2C741.4,525.8,739.4,526.1,737.7,525.5z"/>
	<path class="st2" d="M694.1,265.2c-8,0.7-0.6-25.3,0.5-29.9c2.2-9.2,4.6-19.6,5-30.9c0.9-21.9-9.7-43.5-23.7-59.8
		c-13.4-15.7-26.1-31-18-53.3c8.9-24.5,32.2-27.6,54.4-30.9c24.3-3.5,48.2-5.3,70.8-5.3c58.3,0,115.2,12.4,164.9,44
		c9.6,6.1,19.3,13.4,23.9,23.8c9.2,21-12.6,32.2-20.8,48.7c-7.7,15.6-7.2,31.5-6.8,44.1c0.1,5,0.2,9.7-0.1,13.6
		c-1.6,17.1-17.5,33.3-34.6,35.2c-1.6,0.1-3.2,0.2-4.9,0.2c-17.4,0-36.2-10.2-56.1-21c-5.1-2.8-10.4-5.7-15.8-8.4
		c-22-11.3-45.2-17.5-65.5-17.5c-14.9,0-31,3.6-43.9,12c-6.7,4.4-12.6,10.1-17.1,16.8c-3.2,4.7-5.8,17-12,18.5
		C694.5,265.2,694.2,265.2,694.1,265.2z"/>
	<path class="st2" d="M738.3,507.1c-6.2-0.8-11.5-10.2-16.6-14c-6-4.4-22.2-4.5-23-14c-0.2-2.8,4.4-13.5,5.3-17
		c1.6-5.7,3.3-10.8,10.3-7.3c10.2,5.1,18,22.1,21.5,32.2C738.1,493.3,740.5,500.7,738.3,507.1z"/>
	<path class="st2" d="M904.4,245.9c-5,0.4-10-0.2-14.7-1.7c-12.6-3.8-23.3-11.9-34.6-18.6c-21.6-13-46.2-21.1-71.3-23.8
		c-11.3-1.2-26.2-3.3-37.2,0.7c-9.1,3.4-17.7,13.2-28.1,12.8c-9.2-0.4-6.6-8.7-6.2-16.8c1.2-32.1-16.6-55-29.8-71.8
		c-7.8-10.1-15.2-19.6-15.2-26.2c-0.1-26.6,29.3-29.8,49.3-33.5c23.9-4.5,48.5-6.4,72.9-5.7c49.3,1.5,98.5,13.4,142.6,35.6
		c8.9,4.5,18,9.6,23.8,18c7.2,10.2,3.8,15.6-3,24.5c-12.9,17-20.9,37.1-21.3,58.6c-0.2,13,1.8,27.3-6.1,37.7
		C920.7,242.1,912.8,245.3,904.4,245.9z"/>
	<path class="st2" d="M816.2,575.9c-17.9,0-28.8-12-30-23.3c-0.6-5.6,0.8-10.8,1.9-14.2c3.2-9.6,8.4-18.7,13.5-27.5
		c8.6-14.9,16.8-29,13.2-43.5c-2.8-11.3-12-19.9-21.9-28.9c-2.2-2.1-4.5-4.1-6.8-6.3c-17.3-16.9-23.3-36-16.2-50.8
		c2.2-4.6,5.5-8.3,8.5-11.8c3.8-4.4,7.2-8.1,7.7-12.5c0.4-3.5-1.1-7.4-2.7-11.5c-0.7-1.7-1.3-3.5-1.9-5.5c-5-15.6-1-32.7,9.7-42.6
		c4.7-4.4,10.4-6.7,17-6.7c12.9,0,26.6,8.6,39.9,16.9c9,5.6,17.5,10.9,24.3,12.6c3.9,1,8,1.9,11.9,2.8c14.7,3.4,30,6.9,43.7,14.3
		c12.9,7,26.9,22,36.2,39.1c17.5,31.8,15.3,61.4-5.7,77c-12.6,9.5-28.9,9.5-43.4,9.6c-1.6,0-3,0-4.6,0c-18.5,0.2-30.4,4.7-35.6,13.5
		c-2.4,4.1-3.4,9.5-4.4,14.9l-0.1,0.9c-3.3,18.2-7.2,32.8-12.3,45.6c-7.5,18.7-17.4,30.4-30.3,35.6
		C824.4,575.2,820.4,575.9,816.2,575.9z"/>
	<path class="st2" d="M957.8,381.9c-9-16.3-22-30.3-33.8-36.7c-16.6-9-35.8-12-54.3-16.6c-22.4-5.6-55.9-42.5-75.5-24.3
		c-9.6,9-12.2,23.9-8.1,36.4c2.1,6.4,5.7,12.8,5,19.6c-1.2,10.4-12.1,16.8-16.8,26.2c-7.2,14.8,3.2,32.2,14.9,43.7
		c11.8,11.5,26.4,22.1,30.3,38.2c6.3,26.1-18.5,48.7-26.9,74.4c-1.2,3.8-2.1,7.8-1.7,11.7c1.5,14.3,20.2,21.5,33.5,16
		c13.4-5.5,21.5-18.8,26.9-32.2c5.7-14.2,9.2-29.3,12-44.3c1.1-6.2,2.1-12.5,5.3-17.9c7.8-13.2,25.4-16.3,40.7-16.5
		c15.3-0.1,32.1,0.7,44.3-8.4C975.4,435,971.1,405.9,957.8,381.9z"/>
	<path class="st2" d="M816.2,557.7c-5.2,0-11.4-2.9-11.9-7c-0.1-1.6,0.2-3.8,1.2-6.6c2.6-7.9,7.2-15.7,11.9-24.1
		c9.6-16.5,20.5-35.4,15.2-57c-4-16.6-16.4-28.1-27.2-38c-2.2-2.1-4.4-4-6.4-6c-8.4-8.3-16.8-20.9-12.5-29.8c1.1-2.3,3.4-5,5.8-7.8
		c4.9-5.6,10.8-12.4,12-22.4c0.8-7.9-1.7-14.7-3.8-20.2c-0.6-1.6-1.2-3-1.6-4.4c-2.8-8.7-0.8-18.6,4.9-23.8c1.3-1.2,2.7-1.7,4.6-1.7
		c7.7,0,19.6,7.5,30.3,14.1c10.2,6.4,19.9,12.4,29.4,14.8c4.1,1,8.3,1.9,12.3,2.9c14.2,3.3,27.6,6.3,39.2,12.6
		c9.8,5.3,21.3,17.9,28.9,31.8c6.2,11.2,9.6,22.5,9.6,31.8c0,9.6-3.3,16.6-10.2,21.9c-7.9,5.8-19.8,6-32.6,6c-1.6,0-3.2,0-4.7,0
		c-25.3,0.2-42.4,7.9-51,22.5c-4.1,7-5.5,14.5-6.7,21l-0.1,0.9c-3,17-6.7,30.4-11.3,42c-5.5,13.7-12.3,22.4-20.2,25.5
		C819.7,557.3,818,557.7,816.2,557.7z"/>
	<path class="st2" d="M848.9,441.2c-11.7-2.8-14.1-17.6-21.9-25.6c-6.7-6.8-19.2-12.4-20.8-22.6c-1.8-12.1,13.1-23.9,13-38.2
		c0-7.2,1.7-15.7,8.3-18.2c9.7-3.6,26,11.5,35.8,14c4.3,1.1,8.5,2.1,12.5,2.9c13.6,3.2,25.2,5.8,34.6,10.9
		c12.3,6.7,35.6,35,26.9,49.7c-3.4,5.7-10.2,8.7-16.9,9.2c-14.9,1.1-24.4-1.5-39.5,4c-9.8,3.5-19.3,15.6-30.5,14.1
		C850,441.4,849.5,441.4,848.9,441.2z"/>
	<path class="st2" d="M852.7,422.2c-6-0.4-7.3-6.8-9.7-11.4c-3.3-6.2-8-11.8-14.1-15.4c-4.1-2.4-8.6-5.8-8.9-10.7
		c-0.1-2.2,0.6-4.4,1.5-6.4c3.3-8.9,6.6-17.7,9.8-26.6c3.8-10.1,10.9-6.1,17.6-1.8c10.1,6.6,21.5,9,33,11.5
		c17.5,4,33.5,11.5,42.8,27.8c2.3,4,2.7,9.5-0.2,13c-4.3,5.3-12.4,4-19.2,3.3c-13.4-1.3-27.2,2.3-38.3,10c-3.9,2.7-7.8,6.1-12.5,6.6
		C853.8,422.3,853.2,422.3,852.7,422.2z"/>
	<path class="st2" d="M858.3,396.3c-5.7-1.5-10.2-6.1-14.3-10.4c-3.5-3.8-7.2-7.8-8.9-12.8c-6.4-19,12.8-14.3,23.1-11.7
		c10.7,2.8,21.9,5,32,9.7c2.8,1.3,10.9,4.5,10,8.5c-0.8,3.6-20.2,10.6-23.8,12.4c-5.1,2.7-10.7,5.3-16.4,4.5
		C859.2,396.6,858.7,396.4,858.3,396.3z"/>
	<path class="st2" d="M328.5,409.7c-0.2-0.4-0.5-0.7-0.7-1.2c-8.7-14-13-26.5-13.7-43.3c-0.9-18.8-0.2-39.2-11.4-54.4
		c-9.4-12.8-25.8-19.6-33.2-33.5c-6.3-11.8-4.9-26.1-4.9-39.5c-0.1-27-19.6-50.8-47-54.6c-15.6-2.2-45.1,3.3-59.5,11.1
		c-22.7,12.2-24.9,39.4-29,61.8c-7.9,42.6-56.6,61.8-56.6,106.6c-0.2,22.7,10,45.3,27.1,60.3c7.3,6.3,15.9,11.4,25.4,13.4
		c26.1,5.2,53.7-14.1,78.7-4.9c13.1,4.9,22.5,16.9,27.5,30c5.1,13.6,3.2,28.8,12,40c5.7,7.2,18.3,13.6,25.8,19.3
		c7.9,6,39,34.5,50.4,26.5c10.7-7.5,7.2-34.6,8.9-46.4C332.6,468.7,346.6,437.8,328.5,409.7z"/>
	<path class="st2" d="M304,519.2c-15.3,2.3-40-21.5-45.7-33.7c-5.7-12-8.4-25.4-14.5-37.2c-9.1-17.9-26.1-31.6-45.6-36.7
		c-30.9-8.1-60.4,20.8-86.8-2.4c-13.1-11.5-20.9-28.8-20.8-46.3v-0.1c0-17.4,11.1-30.5,23.9-45.7c15.6-18.5,28.3-37.3,32.7-61.5
		c1.9-10.8,3.4-22,8.4-31.7c9.7-19.1,34.6-22.7,54.2-22.7c2.6,0,4.3,0.1,5.3,0.2c43.6,6.1,23.2,54.9,36.2,82.1
		c8,16.6,27.6,25,37.1,40.8c17,28.7,5.1,63.9,23.9,93.9c0.2,0.5,0.6,0.8,0.9,1.3c10.4,16.3,10.1,40.3,8.1,58.8
		c-1.1,10.1-2.6,21.6-7,30.9C311.3,515.8,307.7,518.5,304,519.2z"/>
	<path class="st2" d="M295.8,494.2c-6.6,2.3-14.8-3.3-21.1-16.6c-2.2-4.7-4-10.1-6-15.7c-2.4-7.2-5-14.6-8.7-22
		c-11.4-22.4-32.8-39.6-57.2-46c-5.2-1.3-10.8-2.1-16.6-2.1c-11.1,0-21.4,2.6-30.5,4.7c-7.3,1.8-14.1,3.5-19.8,3.5
		c-5.1,0-8.7-1.3-12.5-4.6c-9.2-8-14.7-20.2-14.6-32.4v-0.2c0-10.2,7-19.1,19.7-33.9c12-14.2,23.1-29.6,30-47
		c7.2-17.7,3.5-40.6,18.7-54.1c8.7-7.9,30.1-14.3,41.2-7c9.7,6.4,8.7,19.8,9.2,30.5c0.6,12.9,1.2,27.5,7.3,40.1
		c5.8,12.3,15.4,20.5,23.8,27.7c5.7,5,11.2,9.6,14.1,14.6c6.2,10.4,7.4,23,8.7,37.5c1.6,17.6,3.5,37.7,15.4,56.7
		c0.2,0.5,0.6,1,1,1.5c8.1,12.6,10.6,32.2,8.3,46.8C304.6,486.6,300.7,492.5,295.8,494.2z"/>
	<path class="st2" d="M292.9,488.7c-3,0-8.1-4.3-12.6-13.6c-2.1-4.4-3.9-9.6-5.7-14.9c-2.6-7.4-5.1-15.1-9.1-22.8
		c-12.3-23.9-35.1-42.3-61.1-49.1c-5.7-1.5-11.9-2.3-18.1-2.3c-11.8,0-22.6,2.7-32,5c-6.9,1.7-13.5,3.3-18.3,3.3
		c-3.6,0-5.8-0.8-8.5-3.2c-7.9-6.9-12.6-17.4-12.5-27.8v-0.4c0-8.1,6.6-16.3,18.2-30.1c15.2-18,24.8-33,31.1-48.6
		c2.8-7,4.1-14.6,5.2-21.9c1.9-11.7,3.8-22.7,11.8-29.9c4.7-4.3,15.3-8.6,24.7-8.6c3.8,0,7,0.7,9.2,2.2c5.5,3.6,6.1,10.8,6.3,21.4
		c0,1.5,0.1,2.9,0.1,4.4c0.6,13.5,1.2,28.7,7.9,42.4c6.4,13.4,16.4,22.1,25.3,29.8c5.3,4.6,10.4,9,12.9,13.1
		c5.5,9.2,6.6,21.1,7.9,35c1.7,18.3,3.6,39.1,16.4,59.4c0.2,0.5,0.6,1,1,1.6c6.7,10.3,9.7,27.8,7.4,42.5c-1.3,8.6-4.3,12.5-6.3,13.2
		C293.5,488.7,293.2,488.7,292.9,488.7z"/>
	<path class="st2" d="M207.5,376.3c-6.8-1.8-14-2.7-21.3-2.7c-7.3,0-15.1,0.6-22.2,2.2c-6.2,1.5-12.2,4.7-18.6,5.5
		c-6,0.6-12.5-1.2-16-6.2c-2.9-4.1-3-9.8-1.5-14.7c2.7-7.7,9.2-13.9,14.3-19.9c16-19.1,26.2-35.1,33-52c3.3-8.3,4.7-16.9,6-24.4
		c1.6-9.8,3-18.5,7.9-22.8c4.3-3.9,13-8.4,18-3.3c5.1,5.2,2.8,15.1,2.7,21.6c0,9,1.3,18,3.9,26.5c3.6,12,9.8,23.3,18,32.8
		c7.2,8.4,19.6,14.6,25.3,24.1c4.1,6.8,5.1,17.5,6.2,29.9C265.1,391.6,236.8,384,207.5,376.3z"/>
	<path class="st2" d="M248.3,370.9c-0.2,0.1-0.5,0.4-0.9,0.5c-2.3,1-5,0.5-7.4-0.1c-9.7-2.2-19.6-4-29.2-6.6l-0.5-0.1
		c-18.8-4.9-38.9-4.3-57.1,2.8c-2.2,0.8-4.5,1.8-6.9,1.9c-2.4,0.1-5-1.1-6-3.3c-1.2-2.9,1-6.2,2.9-8.6c9.1-11.1,19-21.7,27.3-33.3
		c6-8.1,13.2-21,15.7-30.9c3.2-7.9,1.9-16,2.8-24.2c0.5-4.7,1.9-9.5,4.4-13.6c0.6-1,2.9-5.2,4.3-5.2c4,0,3.3,13.1,3.2,15.7
		c-0.4,8-1.3,16,1.1,23.8c4.1,13.6,11.2,26.5,20.4,37.2c3.8,4.5,8.4,8,12.6,11.5c7.9,6.3,14.9,14.2,16.2,24.7
		C251.9,365.9,250.8,369.2,248.3,370.9z"/>
	<path class="st2" d="M293,453.3c-1.6-3.6-4.1-6.7-6-10.2c-3.8-6.9-4.9-14.9-7.4-22.5c-1.7-4.9-4.7-6.3-8.3-9.5
		c-0.6-0.5-1.2-1.1-1.9-1.3c-0.7-0.2-1.7,0-2.1,0.6c-0.4,0.6,0,1.5,0.2,2.1c1.2,2.8,2.3,5.6,3.3,8.5c4.9,15.9,5.1,33.4,13.7,47.6
		c1.5,2.3,4.1,4.7,6.4,3.4c1-0.5,1.5-1.5,1.9-2.4C295.2,464.6,295.3,458.5,293,453.3z"/>
	<path class="st2" d="M579.4,243.8c-1.3-9-7.9-16.3-14.6-22.4c-8-7.4-17.3-14.1-27.8-16.8c-6-1.5-16.8-1.3-16.6,7.3
		c0,2.1,0.7,4,1.5,5.8c3.6,9,11.9,19.3,6.2,29c-2.4,4.1-6.1,7.3-9,11.2c-5.7,7.4-8.3,17.1-7,26.4c1.7,12.5,13.7,36.1,27.9,22.4
		c9.2-9,4.3-25.6,16.6-33.4c2.7-1.7,5.8-2.6,8.7-3.9C574.9,265,581.1,254.2,579.4,243.8z"/>
	<path class="st2" d="M532.5,306c-4.4,0-11.7-10.6-13.1-21.3c-1-7.5,1.1-15.7,5.8-21.7c1-1.2,2.1-2.6,3.3-3.8
		c2.2-2.4,4.4-4.9,6.2-7.9c7.4-12.6-1.9-22.7-6.2-34c-0.6-1.7-0.6-3.9,0.6-5.3c1.8-2.2,5.6-0.6,7.9-0.1c10.3,2.4,19.3,10,25.2,15.3
		c5.2,4.9,11.4,11.4,12.6,18.8c1.1,7.4-3.5,15.8-10.6,19.2c-0.8,0.4-1.9,0.9-2.9,1.2c-2.1,0.7-4.3,1.7-6.6,3
		c-8.9,5.6-10.9,14.7-12.6,21.9c-1.2,5.1-2.2,9.6-5.1,12.3C535.8,304.7,534.1,306,532.5,306z"/>
	<path class="st2" d="M530.6,291.1c-0.9,0.1-1.7-0.5-2.2-1.2c-1.5-2.8-0.9-8.1-0.6-11.2c0.2-4,1.3-7.8,3.8-11.1
		c0.7-1,1.7-1.9,2.8-3.2c2.4-2.7,5.1-5.6,7.4-9.6c7.3-12.4-6.7-27.1-0.5-31.6c1.9-1.5,4.1-1.3,6,0.2c1.1,1,1.8,2.2,2.6,3.3
		c2.3,3.5,5,6.9,8,9.8c2.6,2.6,5.5,5.7,6.1,9.5c0.5,3.2-1.9,7.4-5.1,8.9c-0.6,0.2-1.5,0.6-2.3,1c-2.2,0.9-5.2,2.1-8.3,3.9
		c-4.9,3-8.7,7.3-11.5,12.3c-2.6,4.6-5.2,9.8-4.7,15.3c0.1,1.2,0.2,2.9-0.8,3.5C530.9,291,530.8,291.1,530.6,291.1z"/>
	<path class="st2" d="M1139.9,305.7c-5.7-19.4-12.6-38.6-22.4-56.5c-6.8-12.6-15.4-24.8-27.5-32.4c-11.1-7-24.2-9.8-36.9-12.6
		c-39-8.3-25.9,51.3-34.9,71.1c-7.3,16.3-21.6,29.2-38.5,34.9c-6.2,2.1-12.9,3.3-18,7.4c-5.1,4.1-7.3,12.6-2.6,17.1
		c1.8,1.8,4.5,2.6,6.8,3.6c12.9,6.3,16.8,22.6,17.5,36.8c0.7,14.2,0,29.8,8.4,41.4c5.2,7.3,13.6,12.1,18,20c7.7,13.6,1.1,31,5,46
		c3.4,13.2,17.1,24.1,30.6,21.4c17.6-3.6,24.3-25.3,24.4-43.3c0.1-18-2.2-37.9,9-51.9c13-16.3,38.5-16.8,53.6-31.2
		c9.2-8.7,13.4-21.9,13.7-34.5C1146.7,330.5,1143.5,318,1139.9,305.7z"/>
	<path class="st2" d="M1041.4,498.4c-8.9,0-18-7.8-20.5-17.3c-1.5-5.6-1.2-11.8-1-18.3c0.4-9.8,0.6-19.9-4.6-29.3
		c-2.9-5.1-6.9-9-10.9-12.6c-2.8-2.7-5.5-5.1-7.4-7.9c-6.1-8.5-6.6-20-7-32.2c-0.1-2.1-0.1-4-0.2-6c-1.1-21.3-8.3-35.8-20.9-42
		c-0.7-0.4-1.5-0.6-2.1-1c-1.3-0.6-2.6-1.1-3.2-1.7c-0.1-0.1-0.7-0.7-0.7-2.2c0.1-2.1,1.3-4.5,2.9-5.8c2.9-2.4,7.2-3.6,11.7-5
		c1.5-0.5,2.9-0.9,4.4-1.3c18.3-6.2,34.1-20.4,42.2-38.2c3.2-7,3.9-17.3,4.6-28.2c1.7-24.2,3.9-40.1,17.7-40.1
		c1.7,0,3.6,0.2,5.6,0.6c12.2,2.6,24.7,5.2,35,11.8c9.4,6,17.4,15.6,25.4,30.3c8.3,15.3,15.2,32.8,21.9,55.3
		c3.2,10.7,6.4,23.2,6.2,35.6c-0.4,12.4-4.6,23.5-11.9,30.3c-6.2,5.8-14.6,9.2-23.6,12.8c-11.2,4.4-22.7,9-30.6,19.1
		c-10.8,13.5-10.6,31.5-10.3,47.3c0,2.9,0.1,5.7,0,8.4c-0.1,16.6-6.2,34.6-19.6,37.3C1043.4,498.3,1042.3,498.4,1041.4,498.4z"/>
	<path class="st2" d="M1033.7,478.1c-1.5-1-2.6-2.6-3-4.3c-1-3.3,0-7,0.1-10.3c0.4-11.2,0.8-25-6.9-38.8
		c-7.2-12.9-19.6-17.4-21.9-33.4c-1.5-9.8-0.9-20.2-4.6-29.4c-3.4-8.3-10.4-15.3-11.1-24.3c-0.9-11.5,9.2-20.8,19-26.9
		c10.6-6.6,20.3-12.4,26.4-23.6c7-13,8.6-27.9,7-42.4c-0.5-4.3-1.2-8.6,0.5-12.5c5.1-11.5,20.3-3.6,27.3,1
		c8.4,5.5,14.8,17.1,20,25.4c12.4,19.6,21.4,41.3,26.1,64c2.2,10.3,3.4,21.6-1.6,31c-6.2,11.7-19.9,16.6-32.2,21.4
		c-15.4,6-24.4,13.9-32.4,28.2c-8.3,14.8-8.4,32.9-8.1,49.3C1038.4,460.2,1037.7,471.5,1033.7,478.1z"/>
	<path class="st2" d="M1030.7,417.3c-3.8,0.9-7-5.5-9.6-8.5c-2.8-3.5-5.2-7.4-5.8-12c-0.4-2.8-0.6-5.7-0.9-8.7
		c-0.6-7.3-1.2-15.4-4.5-23.5c-1.6-3.9-3.6-7.3-5.5-10.3c-2.3-3.8-4.5-7.4-4.6-10.2c-0.4-4.5,4.6-10.3,13.2-15.8l1.5-1
		c10.7-6.7,21.9-13.6,29.2-27.2c7.7-14,6.9-30.9,7.7-46.4c0.1-2.1,0.4-4.4,2.1-5.7c1.3-1,3.2-1,4.6-0.2c1.5,0.6,2.7,1.8,3.9,3
		c20.8,21.4,34.4,52.6,40.3,81.5c1.6,7.3,2.9,16.5-0.5,22.8c-3.9,7.4-14.6,11.4-24.9,15.4l-1,0.4c-9.8,3.8-19,9.1-26.2,16.6
		c-4.5,4.6-7.9,10-10.9,15.6c-2.1,3.9-2.6,9.2-5.6,12.5C1032.2,416.6,1031.4,417.1,1030.7,417.3z"/>
	<path class="st2" d="M1031.4,404.3c-1.2,0.4-2.4-1-3-5.3c-0.4-2.4-0.6-5.2-0.8-8.1c-1-12-2.7-24.5-9.7-34.7
		c-1.7-2.4-3.4-5.2-3.4-8.1c-0.1-5,5.2-6.6,8.7-8.7c11.2-7,23.9-14.9,32.6-30.9c4.9-9,7.2-19.4,6.8-29.6c-0.1-2.3-0.1-5,1.8-6.2
		c1.7-1,3.9-0.2,5.2,1.2c4.5,5.2,7.9,13.6,11.1,19.9c5.5,10.6,10.1,21.6,13.6,33c2.3,7.3,4.1,15.1,2.2,22.5
		c-3.2,11.7-12.3,13.9-22.2,16.9c-10.1,3-20.7,10.9-27.9,18.5c-3,3.2-5.6,6.7-7.9,10.3C1036.7,397.4,1033.8,403.6,1031.4,404.3z"/>
	<path class="st2" d="M1034.4,374c-0.5,0-0.9-0.2-1.2-0.5c-3.3-2.1-3-9.2-4.1-12.5c-1.6-4.6-4.9-8.5-6.2-13.1
		c-1.3-4.6,3.4-5.2,6.7-7.4c2.4-1.7,5-3.4,7.3-5.2c12.6-9.5,24.3-21.6,27.8-37.4c0.2-1.1,0.5-2.3,1.5-3c2.1-1.6,3.5,1.8,4.2,3.2
		c1.9,3.3,2.9,7,4.4,10.6c2.4,5.7,4.6,11.7,6.4,17.6c2.2,6.8,5,14.3-0.2,20.4c-4,4.7-10.7,6.1-16.5,8.1c-7.4,2.7-14.2,6.9-19.8,12.4
		C1042.7,369,1038.1,374.4,1034.4,374z"/>
	<path class="st2" d="M1032.6,354.4c-0.1,0.1-0.4,0.2-0.5,0.4c-0.5,0.4-1.1,0.6-1.6,0.4c-0.6-0.2-0.7-1-0.7-1.7c0-1.8,0.1-3.8,1-5.3
		c1.5-2.8,4.1-1.9,6.3-3.5c5-3.8,8.5-9.1,12.3-14.2c2.3-3,7.3-11.1,12.3-8.6c1,0.5,1.7,1.6,1.8,2.7c0.2,2.6-1.3,4.5-0.2,7.3
		c0.5,1.3,1.3,2.6,1.6,4c0.1,1.3-0.4,2.7-1.3,3.5c-1.5,1.2-4.4,1.6-6.2,2.2c-1.2,0.4-2.5,0.9-3.8,1.2
		C1045.7,345.4,1039.3,350,1032.6,354.4z"/>
	<path class="st2" d="M1083.3,536.5c-6.7-12.6-19.9-23.7-33.5-23.2c-10,0.4-19.6,5.5-29.4,4.1c-14.1-1.8-23.2-15.4-34.6-23.8
		c-18.7-13.7-44-13.5-67.1-10.9c-4.5,0.5-9.7,1.6-11.7,5.7c-1.6,3.3-0.4,7.2,1.2,10.4c5.7,11.9,16,21.4,28.2,26.4
		c10.8,4.4,22.7,5.2,33.4,10c21.4,9.7,33.2,35,30.9,58.4c-2.3,23.3-16.6,44.3-34.9,59c-10.8,8.6-24.3,17.7-24.8,31.6
		c-0.2,7.4,3.8,14.3,9.2,19.3c5.5,5,12.3,8.1,19.1,10.8c5.8,2.3,12.4,4.7,15.4,10.3c2.8,5.2,1.6,11.9,3.8,17.4
		c2.7,6.4,9.4,10.1,15.8,12.9c6.3,2.8,13.5,5.3,20.2,3.2c4.4-1.5,7.9-4.6,11.1-7.9c13.6-14,25.2-30.7,28.3-49.9
		c1.9-11.2,1-22.6,0.8-33.9c-0.2-25.9,4-51.8,12.5-76.3c4.6-13.2,12.4-27,10.3-41.3C1086.9,544.8,1085.5,540.7,1083.3,536.5z"/>
	<path class="st2" d="M1018.9,746.1c-2.6,0.6-5.1,0.5-7.7-0.2c-5.5-1.7-10.1-6.2-12-11.7c-1.1-3.3-1.3-6.7-2.1-10.1
		c-2.3-11.3-13.4-17-23.2-20.8l-0.5-0.2c-5.2-2.1-11.1-4.6-15.3-8.5c-3.3-3-5.3-6.9-5.2-10.1c0.1-6.7,8.5-13.2,16.6-19.7
		c1.2-1,2.4-1.8,3.5-2.8c22.6-18.2,36.9-42.8,39.4-67.4c2.9-30.1-12.6-59.2-37.9-70.6c-6.7-3-13.4-4.6-19.8-6.1c-5-1.2-9.8-2.3-14-4
		c-4.4-1.8-8-4.7-11.4-8c-4.1-3.9-14.1-11.4-4.7-14.5c3-1,7.2,0.1,10.1,1c15.1,4.4,29.9,0.8,43.6,10.9c3,2.2,6,5,9.1,7.9
		c8.3,7.7,17.5,16.4,31.2,18.2c1.6,0.2,3.2,0.2,4.9,0.2c6,0,11.5-1.3,16.4-2.6c3.6-0.9,7.2-1.7,10.2-1.8c0.1,0,0.2,0,0.5,0
		c7.5,0,16.9,7.2,22,16.8c1.6,2.9,2.6,5.7,2.9,8.4c1.2,8.7-2.5,18-6.1,25.8c-4.4,9.5-7.5,19.4-10,29.6c-4.6,20.2-6,41.1-6.7,61.7
		c-0.5,15.4-0.8,31.2-5.7,45.8C1043.6,723.6,1032.1,743.2,1018.9,746.1z"/>
	<path class="st2" d="M1015.6,740c-1.3,0-2.6-0.2-3.9-0.7c-3.5-1.5-6.1-4.7-7.3-8.4c-1.9-5.7-1.2-11.1-4.5-16.3
		c-2.9-4.5-6.9-8.1-11.4-11.1c-7.3-4.5-16.6-5.8-23.4-10.7c-3-2.2-5.3-5.8-4.7-9.6c0.6-3.5,3.5-6.2,6.4-8.1
		c26.7-17.9,48.7-46.9,52-79.6c3.2-32.7-13.9-64.3-41.4-76.8c-7.2-3.3-14.1-4.9-20.9-6.4c-4.9-1.1-9.4-2.2-13.1-3.8
		c-2.3-1-10.3-4.3-10.2-7.5c0.1-5.8,14.7,0,17.6,0.4c9.1,0.9,16.9,1.7,24.3,7c2.7,1.9,5.6,4.6,8.5,7.4c8.5,7.9,19,17.7,34.5,19.8
		c1.8,0.2,3.6,0.4,5.6,0.4c6.7,0,12.9-1.5,17.7-2.7c3.4-0.9,6.6-1.6,9-1.7h0.2c4.6,0,12.3,5.5,16.6,13.5c1.2,2.2,1.9,4.5,2.2,6.3
		c1,7-2.4,15.2-5.6,22.4c-4.4,9.5-7.8,19.9-10.3,30.7c-4.7,20.8-6.1,42.5-6.8,62.8l-0.1,2.3c-0.5,14.1-1,28.7-5.3,41.8
		c-2.9,8.5-9,19.3-16.2,25C1022.4,738.6,1019,740,1015.6,740z"/>
	<path class="st2" d="M1016.9,725.5c-2.9-0.7-2.8-7.7-4.3-11.1c-1.9-4.4-4.5-8.5-7.5-12.2c-6.3-7.3-14.9-12.4-24.5-13.7
		c-1.9-0.2-4.1-0.6-5.1-2.2c-1.2-1.9,0-4.4,1.2-6.2c7.3-11.4,16.5-21.3,25.4-31.3c8.9-10.1,17.5-20.8,23-33
		c5.5-12.3,7.7-26.6,3.3-39.4c-1.7-5-4.4-9.7-6.1-14.7c-5-15.6,8-14.2,19.3-16.3c4.1-0.7,9-1.3,12.3,1.2c2.7,2.1,3.6,5.8,3.3,9.1
		c-0.4,3.4-1.7,6.6-3,9.6c-11.9,28.1-18.5,58.3-19.3,88.7c-0.4,13.1,0.4,26.2-1.7,39.2c-1.1,6.7-2.6,13.4-5.4,19.6
		c-1.7,3.8-4.3,9-7.5,11.4C1018.8,725.3,1017.8,725.6,1016.9,725.5z"/>
	<path class="st2" d="M1017.9,704.3c-0.2,0-0.4,0-0.6-0.1c-1.5-0.6-1.9-3.6-2.7-4.9c-1.5-2.7-3.2-5.2-5.1-7.5
		c-3-3.4-6.9-5.8-10.9-7.8c-2.7-1.3-10.4-2.8-10.8-6.3c-0.4-3.4,4.9-6.7,6.7-9c2.9-3.5,5.8-7,8.9-10.4c1.2-1.3,2.4-2.7,3.6-4
		c5.3-6.1,10.2-12.5,14.5-19.3c2.1-3.3,4.9-7,6-10.7c0.5-1.7-0.1-7.7,2.7-7.7c1.9,0-3.9,27.9-4.1,30.3c-1.1,8.1-0.4,16.9-0.9,25.1
		c-0.5,8.4-1.2,16.8-2.2,25.2c-0.2,1.7-0.5,3.5-1.3,5C1020.8,703,1019.2,704.4,1017.9,704.3z"/>
	<path class="st2" d="M1015.4,688c-1.2,0.6-2.2-1.2-2.4-2.3c-1.7-5.6-6.6-6.9-11.3-9.2c-0.7-0.4-1.5-1-1.7-1.7
		c-0.7-1.7,0.8-3.3,1.8-4.5c1.5-1.7,2.8-3.5,4.1-5.2c1.5-1.7,2.8-3.5,4.3-5.2c0.7-1,1.7-1.8,2.4-2.9c0.7-0.9,1.2-1.9,1.9-2.9
		c0.4-0.5,1-0.9,1.5-0.9c1,0,1.8,1,1.9,2.1c0.1,1.1-0.4,2.1-0.5,3c-0.1,1.2-0.1,2.4-0.1,3.6c-0.1,2.6-0.1,5.1-0.2,7.7
		c-0.2,5.1-0.4,10.1-0.5,15.2c0,1-0.1,2.1-0.7,2.7C1015.8,687.8,1015.6,687.9,1015.4,688z"/>
	<path class="st2" d="M744.9,875.9c-2.8-8.6-13.1-14.8-11.5-23.8c0.6-3.5,3-6.4,4.6-9.7c3-6.2,2.8-14-0.7-19.9
		c-3.5-6-10.2-10-17.1-10.2c-12.1-0.5-22.2,9.2-34.1,11.7c-25.8,5.3-49.6-24.1-75.1-17.9c-17.1,4.1-26.2,22.2-38.8,34.6
		c-15.1,15.1-50.3,14.3-58,36.6c-1.9,5.7-1.3,13,3.8,16.2c2.9,1.8,6.7,1.8,10.1,1.6c30.9-2.2,61.2-19,91.2-11.5
		c10.6,2.6,20.2,8,30.4,12.1c20.4,8.3,43,11.1,64.9,8.5c7.9-1,16-2.7,22.4-7.4C743.2,891.9,747.3,883.4,744.9,875.9z"/>
	<path class="st2" d="M698.6,899c-16.2,0-32.3-3.2-46.8-9c-3.2-1.2-6.3-2.7-9.4-4.1c-6.9-3.2-14-6.4-21.7-8.3
		c-5.6-1.3-11.3-2.1-17.5-2.1c-14.1,0-28.2,3.5-41.8,6.9c-11.2,2.8-22.7,5.7-33.9,6.4c-1,0.1-1.7,0.1-2.4,0.1c-1.8,0-3.2-0.2-4-0.7
		c-2.2-1.3-2.3-5.8-1.2-9.1c3.6-10.3,15.8-14.8,28.8-19.6c10.1-3.6,20.7-7.5,27.7-14.7c3.9-3.9,7.4-8.1,10.7-12.3
		c7.7-9.5,14.9-18.3,25.2-20.8c1.9-0.5,3.9-0.7,5.8-0.7c9,0,18.1,4.4,27.9,9.1c10.6,5.1,21.6,10.3,33.4,10.3c2.6,0,5.2-0.2,7.7-0.7
		c5.7-1.2,10.8-3.8,15.8-6.2c5.6-2.8,10.9-5.5,16.2-5.5c0.2,0,0.5,0,0.7,0c4.9,0.2,9.6,3,12.2,7.3c2.4,4.3,2.7,9.7,0.5,14.1
		c-0.4,0.8-1,1.7-1.5,2.6c-1.5,2.4-3.2,5.2-3.8,8.7c-1.3,7.9,3.3,14,6.9,18.8c2.1,2.7,4,5.3,4.9,7.8c1.6,5.1-1.7,10.9-6,14.1
		c-5.6,4.1-13.2,5.6-19.4,6.2C708.8,898.7,703.7,899,698.6,899z"/>
	<path class="st2" d="M698.6,887.2c-11.3-1.2-22.7-1.2-33.4-6.1c-12.4-5.6-25-10.8-38.3-13.9c-17-3.9-35.4-4.1-51.4,2.6
		c-2.9,1.2-5.7,2.7-8.9,3.2c-11.1,1.6-6.8-7.2-0.6-10.2c6.2-3.2,14-3.8,19.1-8.9c4.3-4.3,8-8.7,11.5-13.1c3.8-4.6,8-11.9,13.2-14.6
		c6.9-3.5,16.9-1.1,23.7,1.6c8.7,3.5,16.8,8.9,25.6,12.2c16.4,6,35.6,3.6,50.2-6.1c1.7-1.1,3.4-2.4,5.3-2.8c1.9-0.4,4.4,0.4,5.1,2.2
		c0.5,1.2,0.1,2.7-0.1,4c-2.1,8.1-6.8,17.6-3.4,25.8c2.7,6.6,10.9,14.1,6.7,21.7c-3,5.5-9.1,5.3-14.5,4.1
		C705.2,887.9,701.9,887.5,698.6,887.2z"/>
	<path class="st2" d="M709.9,878.2c-0.6,1.3-1.7,2.3-3.4,2.9c-4.6,1.6-11.5-2.6-16-3.8c-8.9-2.3-17.9-4.7-26.7-7
		c-17.4-4.6-34.7-9.1-52.2-13.7c-3.5-1-7.5-2.2-9-5.6c-1.6-3.8,0.9-8,4.1-10.4c9.7-7.7,24.1-4.4,35.2,0.9
		c11.3,5.2,22.7,12.1,35,10.9c6.7-0.7,13.5-3.8,19.9-1.8c5.5,1.6,9.4,6.7,11.1,12C709.5,866.5,712.1,873.8,709.9,878.2z"/>
	<path class="st3" d="M9.6,416.4C30.2,432.9,52,450,78,454.9c32.3,6,67.7-7.9,97.6,6c4.5,2.1,8.9,4.9,11.8,9
		c8.7,12.5,0.6,31.7,9.7,44c6.4,8.6,18.6,10,29.3,9.5c10.7-0.6,22-2.4,31.6,2.3c13.4,6.4,18.5,22.5,28.2,33.8
		c11.2,13.1,28.3,19.2,43.7,26.9c15.4,7.7,31.1,19.1,34.5,36.1c1.6,8.1,0.1,16.6,0.9,25c1.7,18.2,14.1,33.8,28.1,45.8
		c14,11.9,29.9,21.5,42.6,34.7c12.8,13.2,22.2,31.6,18.6,49.6c-2.7,13.9-12.4,25-21.9,35.4c-20.3,22.2-42.3,44.8-70.8,54.2
		c-19.6,6.3-40.8,6-60.6,11.3c-19.9,5.3-40,19.4-42,40"/>
	<path class="st3" d="M191.2,134c7.3,17.1,18.8,32.3,33.4,44c12.9,10.3,27.8,17.9,40.7,28.1c12.9,10.2,24.2,24.3,25.3,40.8
		c0.4,6.2-0.6,12.5,0.1,18.6c3,23.8,30.9,36.2,40.7,58.2c10.2,22.7-1.1,49.8,6.1,73.6c5.3,17.7,20.8,33.7,17.4,51.9
		c-2.6,13.5-14.2,22.7-18.8,35.2c-3.2,8.5-3,32.1,12.6,21.6c3.2-2.1,5.3-5.3,7-8.7c4.7-8.7,7.8-17.5,18.6-20
		c7.2-1.7,14.8-0.6,22.1,0.2c19.8,2.1,41.8-4.7,54.3-20.9c10.7-14,14-33.7,27.9-44.2c9.7-7.3,22.6-8.7,33.3-14.3
		c34.1-17.9,33.4-59.9,40.1-92.3c6.3-30.3,47.9-36.9,64.2-60c7.2-10.2,8.4-23.9,5-36c-3.4-12-10.8-22.6-19.7-31.5"/>
	<path class="st3" d="M1108.9,129c-25-6.3-51.2,9.2-66.5,30.1c-15.2,20.8-22.4,46.3-31.6,70.3c-9.2,24.1-22,48.5-44.1,61.8
		c-6,3.6-12.5,6.4-18.1,10.7c-4.9,3.8-8.7,8.6-13.9,12c-13.5,9-31.8,5.6-46-2.2c-14.1-7.9-25.6-19.6-39.4-28.2
		c-17.3-10.8-37.8-16.5-58.1-15.9c-10.6,0.2-21.5,2.3-30,8.5c-8.6,6.2-14.3,17-12.1,27.3c3.4,15.7,23.6,27.5,18.7,42.8
		c-3.2,10.3-15.8,14-23,22.1c-13.1,14.9-3.6,38.9,10.1,53.2c13.7,14.5,31.8,26.4,37.8,45.3c7.3,23.3-6.6,47.6-19.9,68.2
		c-5.1,7.9-10.7,16-19.2,20c-11.3,5.2-24.8,1.2-35.5-5.2c-10.7-6.4-19.9-15.2-31.1-20.8c-8.4-4.1-20.9-4.9-24.5,3.6
		c-2.4,5.6,0.9,12.5,5.8,16c5,3.5,11.3,4.6,17.4,5.6c32.6,5.2,67.7,12.1,89.3,37.1c19.2,22.1,43.6,8.4,63.1-8.6
		c18.2-15.9,27.5-50.1,56.4-49.9c14.2,0.1,28.4,10,42.4,13.2c11.4,2.8,23.1,5.3,33.3,11.3c10.2,6,18.8,15.8,19.9,27.5
		c1.9,19-18.5,51.2-30.6,64.9C947,664,929.1,673.2,930.9,695c0.6,7,5,10.6,8.1,16.6c3.5,6.9,5,14.6,8.4,21.6
		c14.6,30.6,47.1,49.1,38.3,87.7c-7.8,33.4-40.9,50.3-61.4,75.1"/>
	<path class="st3" d="M442.2,889.4c3.4-23.3,15.9-48.7,39-53.7c17.7-3.8,36,6,53.9,3.6c19.3-2.4,34-17.7,48.8-30.4
		c14.8-12.6,35-23.8,53-16.3c10.4,4.4,18.5,14.7,29.8,15.8c6.3,0.6,12.6-1.8,18.5-4.5c8.9-4,17.7-8.7,27.3-10.4
		c9.6-1.8,20.4-0.4,27.5,6.6c11.8,11.7,7.2,31.2,9.4,47.6c1.9,15.2,10.8,29.4,23.6,37.9"/>
</g>
</svg>
